SplineFontDB: 3.0
FontName: GravitasOne
FullName: Gravitas One
FamilyName: Gravitas One
Weight: Book
Copyright: Copyright (c) 2011, Sorkin Type Co (www.sorkintype.com)\nwith Reserved Font Name "Gravitas".\n\nThis Font Software is licensed under the SIL Open Font License,\nVersion 1.1. This license is available with a FAQ at:\nhttp://scripts.sil.org/OFL
Version: 1.001
ItalicAngle: 0
UnderlinePosition: -8
UnderlineWidth: 114
Ascent: 1638
Descent: 410
sfntRevision: 0x00010041
LayerCount: 2
Layer: 0 1 "Back"  1
Layer: 1 1 "Fore"  0
XUID: [1021 288 713564382 13915570]
FSType: 0
OS2Version: 3
OS2_WeightWidthSlopeOnly: 0
OS2_UseTypoMetrics: 1
CreationTime: 1305819720
ModificationTime: 1308169054
PfmFamily: 17
TTFWeight: 400
TTFWidth: 5
LineGap: 0
VLineGap: 0
Panose: 2 7 9 2 8 5 0 6 10 4
OS2TypoAscent: 1937
OS2TypoAOffset: 0
OS2TypoDescent: -668
OS2TypoDOffset: 0
OS2TypoLinegap: 0
OS2WinAscent: 1937
OS2WinAOffset: 0
OS2WinDescent: 668
OS2WinDOffset: 0
HheadAscent: 1937
HheadAOffset: 0
HheadDescent: -668
HheadDOffset: 0
OS2SubXSize: 1434
OS2SubYSize: 1331
OS2SubXOff: 0
OS2SubYOff: 287
OS2SupXSize: 1434
OS2SupYSize: 1331
OS2SupXOff: 0
OS2SupYOff: 977
OS2StrikeYSize: 114
OS2StrikeYPos: 688
OS2Vendor: 'STC '
OS2CodePages: 20000111.40000000
OS2UnicodeRanges: 800000a7.00000002.00000000.00000000
MarkAttachClasses: 1
DEI: 91125
TtTable: prep
PUSHW_1
 511
SCANCTRL
PUSHB_1
 4
SCANTYPE
EndTTInstrs
ShortTable: maxp 16
  1
  0
  238
  129
  5
  0
  0
  1
  0
  0
  0
  0
  0
  0
  0
  0
EndShort

StartChar: exclam
Encoding: 33 33 4
Width: 912
Flags: W
LayerCount: 2
Fore
SplineSet
457 564 m 1,0,1
 436 599 436 599 410.5 636 c 128,-1,2
 385 673 385 673 356 713 c 0,3,4
 317 768 317 768 277.5 826.5 c 128,-1,5
 238 885 238 885 206.5 946.5 c 128,-1,6
 175 1008 175 1008 155.5 1070.5 c 128,-1,7
 136 1133 136 1133 136 1195 c 0,8,9
 136 1263 136 1263 161.5 1312.5 c 128,-1,10
 187 1362 187 1362 231 1393.5 c 128,-1,11
 275 1425 275 1425 333 1440 c 128,-1,12
 391 1455 391 1455 457 1455 c 0,13,14
 521 1455 521 1455 579 1440 c 128,-1,15
 637 1425 637 1425 681 1393.5 c 128,-1,16
 725 1362 725 1362 750.5 1312.5 c 128,-1,17
 776 1263 776 1263 776 1195 c 0,18,19
 776 1132 776 1132 756 1069.5 c 128,-1,20
 736 1007 736 1007 704.5 945.5 c 128,-1,21
 673 884 673 884 634 825.5 c 128,-1,22
 595 767 595 767 556 712 c 0,23,24
 528 672 528 672 502.5 635 c 128,-1,25
 477 598 477 598 457 564 c 1,0,1
197 231 m 256,26,27
 197 287 197 287 218 336.5 c 128,-1,28
 239 386 239 386 276 422.5 c 128,-1,29
 313 459 313 459 362 480 c 128,-1,30
 411 501 411 501 467 501 c 0,31,32
 522 501 522 501 571 480 c 128,-1,33
 620 459 620 459 657 422.5 c 128,-1,34
 694 386 694 386 715 336.5 c 128,-1,35
 736 287 736 287 736 231 c 256,36,37
 736 175 736 175 715 126.5 c 128,-1,38
 694 78 694 78 657 41 c 128,-1,39
 620 4 620 4 571 -17 c 128,-1,40
 522 -38 522 -38 467 -38 c 0,41,42
 411 -38 411 -38 362 -17 c 128,-1,43
 313 4 313 4 276 41 c 128,-1,44
 239 78 239 78 218 126.5 c 128,-1,45
 197 175 197 175 197 231 c 256,26,27
EndSplineSet
EndChar

StartChar: quotedbl
Encoding: 34 34 5
Width: 960
Flags: W
LayerCount: 2
Fore
SplineSet
649 965 m 1,0,1
 641 1021 641 1021 625.5 1086 c 128,-1,2
 610 1151 610 1151 592 1220 c 0,3,4
 578 1271 578 1271 565.5 1321.5 c 128,-1,5
 553 1372 553 1372 542.5 1419.5 c 128,-1,6
 532 1467 532 1467 526 1510.5 c 128,-1,7
 520 1554 520 1554 520 1591 c 0,8,9
 520 1625 520 1625 534 1653 c 128,-1,10
 548 1681 548 1681 571.5 1701 c 128,-1,11
 595 1721 595 1721 624.5 1732 c 128,-1,12
 654 1743 654 1743 685 1743 c 256,13,14
 716 1743 716 1743 745.5 1732 c 128,-1,15
 775 1721 775 1721 798 1701 c 128,-1,16
 821 1681 821 1681 835.5 1653 c 128,-1,17
 850 1625 850 1625 850 1591 c 0,18,19
 850 1554 850 1554 843.5 1510.5 c 128,-1,20
 837 1467 837 1467 827 1419 c 128,-1,21
 817 1371 817 1371 803.5 1320.5 c 128,-1,22
 790 1270 790 1270 777 1219 c 0,23,24
 759 1150 759 1150 744 1085.5 c 128,-1,25
 729 1021 729 1021 721 965 c 1,26,-1
 649 965 l 1,0,1
239 965 m 1,27,28
 231 1021 231 1021 215.5 1086 c 128,-1,29
 200 1151 200 1151 182 1220 c 0,30,31
 168 1271 168 1271 155.5 1321.5 c 128,-1,32
 143 1372 143 1372 132.5 1419.5 c 128,-1,33
 122 1467 122 1467 116 1510.5 c 128,-1,34
 110 1554 110 1554 110 1591 c 0,35,36
 110 1625 110 1625 124 1653 c 128,-1,37
 138 1681 138 1681 161.5 1701 c 128,-1,38
 185 1721 185 1721 214.5 1732 c 128,-1,39
 244 1743 244 1743 275 1743 c 256,40,41
 306 1743 306 1743 335.5 1732 c 128,-1,42
 365 1721 365 1721 388 1701 c 128,-1,43
 411 1681 411 1681 425.5 1653 c 128,-1,44
 440 1625 440 1625 440 1591 c 0,45,46
 440 1554 440 1554 433.5 1510.5 c 128,-1,47
 427 1467 427 1467 417 1419 c 128,-1,48
 407 1371 407 1371 393.5 1320.5 c 128,-1,49
 380 1270 380 1270 367 1219 c 0,50,51
 349 1150 349 1150 334 1085.5 c 128,-1,52
 319 1021 319 1021 311 965 c 1,53,-1
 239 965 l 1,27,28
EndSplineSet
EndChar

StartChar: numbersign
Encoding: 35 35 6
Width: 1480
Flags: W
LayerCount: 2
Fore
SplineSet
382 421 m 1,0,-1
 123 421 l 1,1,-1
 123 545 l 1,2,-1
 415 545 l 1,3,-1
 499 861 l 1,4,-1
 123 861 l 1,5,-1
 123 985 l 1,6,-1
 532 985 l 1,7,-1
 647 1417 l 1,8,-1
 764 1417 l 1,9,-1
 649 985 l 1,10,-1
 1022 985 l 1,11,-1
 1137 1417 l 1,12,-1
 1254 1417 l 1,13,-1
 1139 985 l 1,14,-1
 1357 985 l 1,15,-1
 1357 861 l 1,16,-1
 1106 861 l 1,17,-1
 1022 545 l 1,18,-1
 1357 545 l 1,19,-1
 1357 421 l 1,20,-1
 989 421 l 1,21,-1
 877 0 l 1,22,-1
 760 0 l 1,23,-1
 872 421 l 1,24,-1
 499 421 l 1,25,-1
 387 0 l 1,26,-1
 270 0 l 1,27,-1
 382 421 l 1,0,-1
905 545 m 1,28,-1
 989 861 l 1,29,-1
 616 861 l 1,30,-1
 532 545 l 1,31,-1
 905 545 l 1,28,-1
EndSplineSet
EndChar

StartChar: dollar
Encoding: 36 36 7
Width: 1769
Flags: W
LayerCount: 2
Fore
SplineSet
184 544 m 1,0,-1
 251 544 l 1,1,2
 281 485 281 485 327 417.5 c 128,-1,3
 373 350 373 350 438 285.5 c 128,-1,4
 503 221 503 221 588 166.5 c 128,-1,5
 673 112 673 112 781 79 c 1,6,-1
 781 387 l 1,7,-1
 757 394 l 2,8,9
 611 436 611 436 502.5 490 c 128,-1,10
 394 544 394 544 322.5 611 c 128,-1,11
 251 678 251 678 215.5 759.5 c 128,-1,12
 180 841 180 841 180 940 c 0,13,14
 180 1058 180 1058 227 1151 c 128,-1,15
 274 1244 274 1244 355 1309.5 c 128,-1,16
 436 1375 436 1375 545.5 1411.5 c 128,-1,17
 655 1448 655 1448 781 1454 c 1,18,-1
 781 1624 l 1,19,-1
 884 1624 l 1,20,-1
 884 1452 l 1,21,22
 913 1450 913 1450 942 1446.5 c 128,-1,23
 971 1443 971 1443 1001 1437 c 1,24,-1
 1001 1624 l 1,25,-1
 1104 1624 l 1,26,-1
 1104 1412 l 1,27,28
 1177 1391 1177 1391 1242.5 1361 c 128,-1,29
 1308 1331 1308 1331 1356 1295 c 1,30,-1
 1507 1441 l 1,31,-1
 1576 1441 l 1,32,-1
 1576 1006 l 1,33,-1
 1513 1006 l 1,34,35
 1453 1114 1453 1114 1348.5 1199.5 c 128,-1,36
 1244 1285 1244 1285 1104 1333 c 1,37,-1
 1104 1043 l 1,38,39
 1219 1010 1219 1010 1318 968.5 c 128,-1,40
 1417 927 1417 927 1490 864.5 c 128,-1,41
 1563 802 1563 802 1604.5 713 c 128,-1,42
 1646 624 1646 624 1646 496 c 0,43,44
 1646 395 1646 395 1611.5 304 c 128,-1,45
 1577 213 1577 213 1508.5 142 c 128,-1,46
 1440 71 1440 71 1338.5 24.5 c 128,-1,47
 1237 -22 1237 -22 1104 -34 c 1,48,-1
 1104 -190 l 1,49,-1
 1001 -190 l 1,50,-1
 1001 -38 l 1,51,52
 939 -37 939 -37 884 -29 c 1,53,-1
 884 -190 l 1,54,-1
 781 -190 l 1,55,-1
 781 -8 l 1,56,57
 690 16 690 16 605 61 c 128,-1,58
 520 106 520 106 429 172 c 1,59,-1
 259 -19 l 1,60,-1
 184 -19 l 1,61,-1
 184 544 l 1,0,-1
781 1378 m 1,62,63
 754 1377 754 1377 723 1373.5 c 128,-1,64
 692 1370 692 1370 665 1360 c 128,-1,65
 638 1350 638 1350 620 1332 c 128,-1,66
 602 1314 602 1314 602 1284 c 0,67,68
 602 1212 602 1212 781 1141 c 1,69,-1
 781 1378 l 1,62,63
884 1105 m 1,70,71
 910 1097 910 1097 939.5 1088.5 c 128,-1,72
 969 1080 969 1080 1001 1071 c 1,73,-1
 1001 1360 l 1,74,75
 972 1366 972 1366 943 1370 c 128,-1,76
 914 1374 914 1374 884 1376 c 1,77,-1
 884 1105 l 1,70,71
884 55 m 1,78,79
 912 50 912 50 941 47 c 128,-1,80
 970 44 970 44 1001 42 c 1,81,-1
 1001 327 l 1,82,-1
 884 360 l 1,83,-1
 884 55 l 1,78,79
1104 44 m 1,84,85
 1134 47 1134 47 1164.5 53.5 c 128,-1,86
 1195 60 1195 60 1219.5 72 c 128,-1,87
 1244 84 1244 84 1259.5 103.5 c 128,-1,88
 1275 123 1275 123 1275 151 c 0,89,90
 1275 195 1275 195 1233 228 c 128,-1,91
 1191 261 1191 261 1104 293 c 1,92,-1
 1104 44 l 1,84,85
EndSplineSet
EndChar

StartChar: percent
Encoding: 37 37 8
Width: 1861
Flags: W
LayerCount: 2
Fore
SplineSet
519 718 m 256,0,1
 409 718 409 718 334 751.5 c 128,-1,2
 259 785 259 785 212.5 838.5 c 128,-1,3
 166 892 166 892 145.5 957.5 c 128,-1,4
 125 1023 125 1023 125 1087 c 256,5,6
 125 1151 125 1151 145.5 1216.5 c 128,-1,7
 166 1282 166 1282 212.5 1335 c 128,-1,8
 259 1388 259 1388 334 1421.5 c 128,-1,9
 409 1455 409 1455 519 1455 c 256,10,11
 629 1455 629 1455 704.5 1421.5 c 128,-1,12
 780 1388 780 1388 826.5 1335 c 128,-1,13
 873 1282 873 1282 893.5 1216.5 c 128,-1,14
 914 1151 914 1151 914 1087 c 256,15,16
 914 1023 914 1023 893.5 957.5 c 128,-1,17
 873 892 873 892 826.5 838.5 c 128,-1,18
 780 785 780 785 704.5 751.5 c 128,-1,19
 629 718 629 718 519 718 c 256,0,1
1555 1411 m 1,20,-1
 1632 1332 l 1,21,-1
 323 23 l 1,22,-1
 244 101 l 1,23,-1
 1555 1411 l 1,20,-1
519 787 m 0,24,25
 562 787 562 787 585 812 c 128,-1,26
 608 837 608 837 618.5 879 c 128,-1,27
 629 921 629 921 631 975 c 128,-1,28
 633 1029 633 1029 633 1087 c 0,29,30
 633 1144 633 1144 631 1198 c 128,-1,31
 629 1252 629 1252 618.5 1294 c 128,-1,32
 608 1336 608 1336 585 1361 c 128,-1,33
 562 1386 562 1386 519 1386 c 0,34,35
 477 1386 477 1386 454 1360.5 c 128,-1,36
 431 1335 431 1335 420.5 1293 c 128,-1,37
 410 1251 410 1251 408 1197.5 c 128,-1,38
 406 1144 406 1144 406 1087 c 0,39,40
 406 1029 406 1029 408 975 c 128,-1,41
 410 921 410 921 420.5 879 c 128,-1,42
 431 837 431 837 454 812 c 128,-1,43
 477 787 477 787 519 787 c 0,24,25
948 331 m 256,44,45
 948 395 948 395 968 460.5 c 128,-1,46
 988 526 988 526 1034.5 579 c 128,-1,47
 1081 632 1081 632 1156 665.5 c 128,-1,48
 1231 699 1231 699 1341 699 c 256,49,50
 1451 699 1451 699 1526.5 665.5 c 128,-1,51
 1602 632 1602 632 1648.5 579 c 128,-1,52
 1695 526 1695 526 1715.5 460.5 c 128,-1,53
 1736 395 1736 395 1736 331 c 256,54,55
 1736 267 1736 267 1715.5 201.5 c 128,-1,56
 1695 136 1695 136 1648.5 82.5 c 128,-1,57
 1602 29 1602 29 1526.5 -4.5 c 128,-1,58
 1451 -38 1451 -38 1341 -38 c 256,59,60
 1231 -38 1231 -38 1156 -4.5 c 128,-1,61
 1081 29 1081 29 1034.5 82.5 c 128,-1,62
 988 136 988 136 968 201.5 c 128,-1,63
 948 267 948 267 948 331 c 256,44,45
1228 331 m 0,64,65
 1228 273 1228 273 1230 219 c 128,-1,66
 1232 165 1232 165 1242.5 123 c 128,-1,67
 1253 81 1253 81 1276 56 c 128,-1,68
 1299 31 1299 31 1341 31 c 0,69,70
 1384 31 1384 31 1407 56 c 128,-1,71
 1430 81 1430 81 1440.5 123 c 128,-1,72
 1451 165 1451 165 1453 219 c 128,-1,73
 1455 273 1455 273 1455 331 c 0,74,75
 1455 388 1455 388 1453 442 c 128,-1,76
 1451 496 1451 496 1440.5 538 c 128,-1,77
 1430 580 1430 580 1407 605 c 128,-1,78
 1384 630 1384 630 1341 630 c 0,79,80
 1299 630 1299 630 1276 604.5 c 128,-1,81
 1253 579 1253 579 1242.5 537 c 128,-1,82
 1232 495 1232 495 1230 441.5 c 128,-1,83
 1228 388 1228 388 1228 331 c 0,64,65
EndSplineSet
EndChar

StartChar: ampersand
Encoding: 38 38 9
Width: 1866
Flags: W
LayerCount: 2
Fore
SplineSet
77 297 m 0,0,1
 77 373 77 373 106 434.5 c 128,-1,2
 135 496 135 496 187.5 545.5 c 128,-1,3
 240 595 240 595 313 633.5 c 128,-1,4
 386 672 386 672 473 702 c 1,5,6
 436 747 436 747 408 789.5 c 128,-1,7
 380 832 380 832 361 874 c 128,-1,8
 342 916 342 916 332 959 c 128,-1,9
 322 1002 322 1002 322 1048 c 0,10,11
 322 1127 322 1127 354.5 1200.5 c 128,-1,12
 387 1274 387 1274 450.5 1330.5 c 128,-1,13
 514 1387 514 1387 607.5 1421 c 128,-1,14
 701 1455 701 1455 823 1455 c 0,15,16
 876 1455 876 1455 932 1451 c 128,-1,17
 988 1447 988 1447 1041 1435.5 c 128,-1,18
 1094 1424 1094 1424 1140.5 1403.5 c 128,-1,19
 1187 1383 1187 1383 1222.5 1350 c 128,-1,20
 1258 1317 1258 1317 1278.5 1270.5 c 128,-1,21
 1299 1224 1299 1224 1299 1161 c 0,22,23
 1299 1103 1299 1103 1281.5 1054.5 c 128,-1,24
 1264 1006 1264 1006 1232.5 966 c 128,-1,25
 1201 926 1201 926 1157 893 c 128,-1,26
 1113 860 1113 860 1061 834 c 1,27,28
 1130 749 1130 749 1199 672 c 128,-1,29
 1268 595 1268 595 1334 531 c 1,30,-1
 1440 695 l 2,31,32
 1444 702 1444 702 1444 711 c 0,33,34
 1444 724 1444 724 1430.5 732.5 c 128,-1,35
 1417 741 1417 741 1392.5 746.5 c 128,-1,36
 1368 752 1368 752 1334.5 754.5 c 128,-1,37
 1301 757 1301 757 1262 757 c 1,38,-1
 1262 829 l 1,39,-1
 1737 829 l 1,40,-1
 1737 757 l 1,41,42
 1692 757 1692 757 1661.5 753 c 128,-1,43
 1631 749 1631 749 1610.5 740.5 c 128,-1,44
 1590 732 1590 732 1576.5 720.5 c 128,-1,45
 1563 709 1563 709 1553 694 c 0,46,47
 1514 637 1514 637 1476.5 581 c 128,-1,48
 1439 525 1439 525 1401 468 c 1,49,50
 1435 437 1435 437 1464 413 c 128,-1,51
 1493 389 1493 389 1521 372.5 c 128,-1,52
 1549 356 1549 356 1576.5 347 c 128,-1,53
 1604 338 1604 338 1634 338 c 0,54,55
 1688 338 1688 338 1722 371.5 c 128,-1,56
 1756 405 1756 405 1756 474 c 1,57,-1
 1820 474 l 1,58,59
 1829 403 1829 403 1829 344 c 0,60,61
 1829 241 1829 241 1799.5 168.5 c 128,-1,62
 1770 96 1770 96 1713.5 50 c 128,-1,63
 1657 4 1657 4 1576 -17 c 128,-1,64
 1495 -38 1495 -38 1392 -38 c 0,65,66
 1302 -38 1302 -38 1225.5 -14.5 c 128,-1,67
 1149 9 1149 9 1073 61 c 1,68,69
 1038 39 1038 39 995 20.5 c 128,-1,70
 952 2 952 2 898 -11 c 128,-1,71
 844 -24 844 -24 777.5 -31 c 128,-1,72
 711 -38 711 -38 630 -38 c 0,73,74
 502 -38 502 -38 400 -17.5 c 128,-1,75
 298 3 298 3 226 44 c 128,-1,76
 154 85 154 85 115.5 148 c 128,-1,77
 77 211 77 211 77 297 c 0,0,1
1020 885 m 1,78,79
 1055 916 1055 916 1082.5 954 c 128,-1,80
 1110 992 1110 992 1129 1033 c 128,-1,81
 1148 1074 1148 1074 1158 1117 c 128,-1,82
 1168 1160 1168 1160 1168 1202 c 0,83,84
 1168 1235 1168 1235 1158.5 1264 c 128,-1,85
 1149 1293 1149 1293 1131 1315 c 128,-1,86
 1113 1337 1113 1337 1087 1349.5 c 128,-1,87
 1061 1362 1061 1362 1028 1362 c 0,88,89
 1001 1362 1001 1362 977.5 1349 c 128,-1,90
 954 1336 954 1336 936 1313.5 c 128,-1,91
 918 1291 918 1291 907.5 1260 c 128,-1,92
 897 1229 897 1229 897 1193 c 0,93,94
 897 1106 897 1106 930.5 1028.5 c 128,-1,95
 964 951 964 951 1020 885 c 1,78,79
477 529 m 0,96,97
 477 487 477 487 495.5 438 c 128,-1,98
 514 389 514 389 544.5 340 c 128,-1,99
 575 291 575 291 614.5 245.5 c 128,-1,100
 654 200 654 200 697 165.5 c 128,-1,101
 740 131 740 131 783.5 110 c 128,-1,102
 827 89 827 89 865 89 c 256,103,104
 903 89 903 89 935.5 96.5 c 128,-1,105
 968 104 968 104 997 118 c 1,106,107
 950 158 950 158 899.5 209 c 128,-1,108
 849 260 849 260 792 324 c 128,-1,109
 735 388 735 388 670 465 c 128,-1,110
 605 542 605 542 530 633 c 1,111,112
 504 612 504 612 490.5 586.5 c 128,-1,113
 477 561 477 561 477 529 c 0,96,97
EndSplineSet
EndChar

StartChar: quotesingle
Encoding: 39 39 10
Width: 550
Flags: W
LayerCount: 2
Fore
SplineSet
231 1021 m 1,0,1
 200 1151 200 1151 182 1220 c 0,2,3
 168 1271 168 1271 155.5 1321.5 c 128,-1,4
 143 1372 143 1372 132.5 1419.5 c 128,-1,5
 122 1467 122 1467 116 1510.5 c 128,-1,6
 110 1554 110 1554 110 1591 c 0,7,8
 110 1625 110 1625 124 1653 c 128,-1,9
 138 1681 138 1681 161.5 1701 c 128,-1,10
 185 1721 185 1721 214.5 1732 c 128,-1,11
 244 1743 244 1743 275 1743 c 256,12,13
 306 1743 306 1743 335.5 1732 c 128,-1,14
 365 1721 365 1721 388 1701 c 128,-1,15
 411 1681 411 1681 425.5 1653 c 128,-1,16
 440 1625 440 1625 440 1591 c 0,17,18
 440 1554 440 1554 433.5 1510.5 c 128,-1,19
 427 1467 427 1467 417 1419 c 128,-1,20
 407 1371 407 1371 393.5 1320.5 c 128,-1,21
 380 1270 380 1270 367 1219 c 0,22,23
 349 1150 349 1150 334 1085.5 c 128,-1,24
 319 1021 319 1021 311 965 c 1,25,-1
 239 965 l 1,26,-1
 231 1021 l 1,0,1
EndSplineSet
EndChar

StartChar: parenleft
Encoding: 40 40 11
Width: 980
Flags: W
LayerCount: 2
Fore
SplineSet
236 709 m 256,0,1
 236 953 236 953 278 1132.5 c 128,-1,2
 320 1312 320 1312 398 1430 c 128,-1,3
 476 1548 476 1548 587.5 1606 c 128,-1,4
 699 1664 699 1664 838 1664 c 1,5,-1
 838 1595 l 1,6,7
 803 1595 803 1595 777.5 1583.5 c 128,-1,8
 752 1572 752 1572 734.5 1539 c 128,-1,9
 717 1506 717 1506 705.5 1445.5 c 128,-1,10
 694 1385 694 1385 688 1286.5 c 128,-1,11
 682 1188 682 1188 679.5 1046.5 c 128,-1,12
 677 905 677 905 677 709 c 256,13,14
 677 513 677 513 679.5 371 c 128,-1,15
 682 229 682 229 688 130.5 c 128,-1,16
 694 32 694 32 705.5 -28.5 c 128,-1,17
 717 -89 717 -89 734.5 -122 c 128,-1,18
 752 -155 752 -155 777.5 -166.5 c 128,-1,19
 803 -178 803 -178 838 -178 c 1,20,-1
 838 -247 l 1,21,22
 699 -247 699 -247 587.5 -189 c 128,-1,23
 476 -131 476 -131 398 -12.5 c 128,-1,24
 320 106 320 106 278 285.5 c 128,-1,25
 236 465 236 465 236 709 c 256,0,1
EndSplineSet
EndChar

StartChar: parenright
Encoding: 41 41 12
Width: 980
Flags: W
LayerCount: 2
Fore
SplineSet
142 -177 m 1,0,1
 177 -178 177 -178 202.5 -166.5 c 128,-1,2
 228 -155 228 -155 245.5 -122 c 128,-1,3
 263 -89 263 -89 274.5 -28.5 c 128,-1,4
 286 32 286 32 292 130.5 c 128,-1,5
 298 229 298 229 300.5 371 c 128,-1,6
 303 513 303 513 303 709 c 256,7,8
 303 905 303 905 300.5 1046.5 c 128,-1,9
 298 1188 298 1188 292 1286.5 c 128,-1,10
 286 1385 286 1385 274.5 1445.5 c 128,-1,11
 263 1506 263 1506 245.5 1539 c 128,-1,12
 228 1572 228 1572 202.5 1583.5 c 128,-1,13
 177 1595 177 1595 142 1595 c 1,14,-1
 142 1664 l 1,15,16
 281 1664 281 1664 392.5 1606 c 128,-1,17
 504 1548 504 1548 582 1430 c 128,-1,18
 660 1312 660 1312 702 1132.5 c 128,-1,19
 744 953 744 953 744 709 c 256,20,21
 744 465 744 465 702 285.5 c 128,-1,22
 660 106 660 106 582 -12.5 c 128,-1,23
 504 -131 504 -131 392.5 -189 c 128,-1,24
 281 -247 281 -247 142 -247 c 1,25,-1
 142 -177 l 1,0,1
EndSplineSet
EndChar

StartChar: asterisk
Encoding: 42 42 13
Width: 1044
Flags: W
LayerCount: 2
Fore
SplineSet
522 737 m 256,0,1
 474 737 474 737 445 766.5 c 128,-1,2
 416 796 416 796 416 836 c 256,3,4
 416 876 416 876 431 923 c 128,-1,5
 446 970 446 970 466 1021 c 0,6,7
 476 1045 476 1045 484 1069.5 c 128,-1,8
 492 1094 492 1094 498 1120 c 1,9,10
 480 1101 480 1101 463 1082.5 c 128,-1,11
 446 1064 446 1064 430 1042 c 0,12,13
 415 1021 415 1021 394.5 995.5 c 128,-1,14
 374 970 374 970 350 947 c 128,-1,15
 326 924 326 924 299.5 908.5 c 128,-1,16
 273 893 273 893 246 893 c 0,17,18
 223 893 223 893 204 903 c 128,-1,19
 185 913 185 913 170.5 929 c 128,-1,20
 156 945 156 945 148 965 c 128,-1,21
 140 985 140 985 140 1006 c 0,22,23
 140 1046 140 1046 166 1070.5 c 128,-1,24
 192 1095 192 1095 229 1109 c 128,-1,25
 266 1123 266 1123 306.5 1129 c 128,-1,26
 347 1135 347 1135 375 1138 c 0,27,28
 400 1141 400 1141 425 1146.5 c 128,-1,29
 450 1152 450 1152 475 1160 c 1,30,31
 428 1174 428 1174 375 1182 c 0,32,33
 342 1186 342 1186 301 1193 c 128,-1,34
 260 1200 260 1200 224.5 1214 c 128,-1,35
 189 1228 189 1228 164.5 1252 c 128,-1,36
 140 1276 140 1276 140 1315 c 0,37,38
 140 1337 140 1337 148.5 1357 c 128,-1,39
 157 1377 157 1377 172 1392.5 c 128,-1,40
 187 1408 187 1408 206 1417.5 c 128,-1,41
 225 1427 225 1427 246 1427 c 0,42,43
 270 1427 270 1427 296.5 1410.5 c 128,-1,44
 323 1394 323 1394 348 1370.5 c 128,-1,45
 373 1347 373 1347 394.5 1321.5 c 128,-1,46
 416 1296 416 1296 430 1278 c 0,47,48
 447 1257 447 1257 463.5 1237.5 c 128,-1,49
 480 1218 480 1218 498 1200 c 1,50,51
 491 1225 491 1225 483.5 1249.5 c 128,-1,52
 476 1274 476 1274 466 1299 c 0,53,54
 446 1350 446 1350 431 1397 c 128,-1,55
 416 1444 416 1444 416 1484 c 256,56,57
 416 1524 416 1524 445 1553.5 c 128,-1,58
 474 1583 474 1583 522 1583 c 256,59,60
 570 1583 570 1583 599 1553.5 c 128,-1,61
 628 1524 628 1524 628 1484 c 0,62,63
 628 1443 628 1443 612 1396 c 128,-1,64
 596 1349 596 1349 576 1298 c 0,65,66
 557 1251 557 1251 545 1199 c 1,67,68
 564 1217 564 1217 581.5 1236 c 128,-1,69
 599 1255 599 1255 615 1276 c 0,70,71
 635 1303 635 1303 655.5 1330 c 128,-1,72
 676 1357 676 1357 698.5 1378.5 c 128,-1,73
 721 1400 721 1400 746 1413.5 c 128,-1,74
 771 1427 771 1427 798 1427 c 0,75,76
 820 1427 820 1427 839.5 1417 c 128,-1,77
 859 1407 859 1407 873.5 1391 c 128,-1,78
 888 1375 888 1375 896 1355 c 128,-1,79
 904 1335 904 1335 904 1314 c 0,80,81
 904 1276 904 1276 877.5 1252 c 128,-1,82
 851 1228 851 1228 814 1213.5 c 128,-1,83
 777 1199 777 1199 737 1192 c 128,-1,84
 697 1185 697 1185 670 1181 c 0,85,86
 644 1177 644 1177 618.5 1172 c 128,-1,87
 593 1167 593 1167 568 1159 c 1,88,89
 594 1152 594 1152 619 1147.5 c 128,-1,90
 644 1143 644 1143 670 1139 c 0,91,92
 701 1134 701 1134 741.5 1126.5 c 128,-1,93
 782 1119 782 1119 818 1104.5 c 128,-1,94
 854 1090 854 1090 879 1066 c 128,-1,95
 904 1042 904 1042 904 1005 c 0,96,97
 904 983 904 983 895.5 963 c 128,-1,98
 887 943 887 943 872 927.5 c 128,-1,99
 857 912 857 912 838 902.5 c 128,-1,100
 819 893 819 893 798 893 c 0,101,102
 770 893 770 893 742.5 909.5 c 128,-1,103
 715 926 715 926 691 950 c 128,-1,104
 667 974 667 974 647.5 1000 c 128,-1,105
 628 1026 628 1026 615 1044 c 0,106,107
 600 1065 600 1065 582 1084 c 128,-1,108
 564 1103 564 1103 546 1120 c 1,109,110
 557 1068 557 1068 576 1022 c 0,111,112
 596 971 596 971 612 924 c 128,-1,113
 628 877 628 877 628 836 c 0,114,115
 628 796 628 796 599 766.5 c 128,-1,116
 570 737 570 737 522 737 c 256,0,1
EndSplineSet
EndChar

StartChar: plus
Encoding: 43 43 14
Width: 1070
Flags: W
LayerCount: 2
Fore
SplineSet
473 591 m 1,0,-1
 88 591 l 1,1,-1
 88 715 l 1,2,-1
 473 715 l 1,3,-1
 473 1100 l 1,4,-1
 597 1100 l 1,5,-1
 597 715 l 1,6,-1
 983 715 l 1,7,-1
 983 591 l 1,8,-1
 597 591 l 1,9,-1
 597 205 l 1,10,-1
 473 205 l 1,11,-1
 473 591 l 1,0,-1
EndSplineSet
EndChar

StartChar: comma
Encoding: 44 44 15
Width: 819
Flags: W
LayerCount: 2
Fore
SplineSet
137 255 m 0,0,1
 137 306 137 306 158 351 c 128,-1,2
 179 396 179 396 214 429.5 c 128,-1,3
 249 463 249 463 296 482 c 128,-1,4
 343 501 343 501 396 501 c 0,5,6
 459 501 459 501 511.5 481 c 128,-1,7
 564 461 564 461 602 422.5 c 128,-1,8
 640 384 640 384 661 327 c 128,-1,9
 682 270 682 270 682 196 c 0,10,11
 682 78 682 78 644 -15 c 128,-1,12
 606 -108 606 -108 543.5 -176.5 c 128,-1,13
 481 -245 481 -245 400.5 -290.5 c 128,-1,14
 320 -336 320 -336 234 -358 c 1,15,-1
 205 -319 l 1,16,17
 282 -290 282 -290 334.5 -246.5 c 128,-1,18
 387 -203 387 -203 418.5 -158.5 c 128,-1,19
 450 -114 450 -114 463.5 -74.5 c 128,-1,20
 477 -35 477 -35 477 -14 c 0,21,22
 477 12 477 12 451 23 c 128,-1,23
 425 34 425 34 386 40 c 0,24,25
 348 46 348 46 304.5 55 c 128,-1,26
 261 64 261 64 223.5 85.5 c 128,-1,27
 186 107 186 107 161.5 147 c 128,-1,28
 137 187 137 187 137 255 c 0,0,1
EndSplineSet
EndChar

StartChar: hyphen
Encoding: 45 45 16
Width: 1075
Flags: W
LayerCount: 2
Fore
SplineSet
90 715 m 1,0,-1
 985 715 l 1,1,-1
 985 591 l 1,2,-1
 90 591 l 1,3,-1
 90 715 l 1,0,-1
EndSplineSet
EndChar

StartChar: period
Encoding: 46 46 17
Width: 813
Flags: W
LayerCount: 2
Fore
SplineSet
137 231 m 256,0,1
 137 287 137 287 158 336.5 c 128,-1,2
 179 386 179 386 216 422.5 c 128,-1,3
 253 459 253 459 302 480 c 128,-1,4
 351 501 351 501 407 501 c 0,5,6
 462 501 462 501 511 480 c 128,-1,7
 560 459 560 459 597 422.5 c 128,-1,8
 634 386 634 386 655 336.5 c 128,-1,9
 676 287 676 287 676 231 c 256,10,11
 676 175 676 175 655 126.5 c 128,-1,12
 634 78 634 78 597 41 c 128,-1,13
 560 4 560 4 511 -17 c 128,-1,14
 462 -38 462 -38 407 -38 c 0,15,16
 351 -38 351 -38 302 -17 c 128,-1,17
 253 4 253 4 216 41 c 128,-1,18
 179 78 179 78 158 126.5 c 128,-1,19
 137 175 137 175 137 231 c 256,0,1
EndSplineSet
EndChar

StartChar: slash
Encoding: 47 47 18
Width: 945
Flags: W
LayerCount: 2
Fore
SplineSet
896 1535 m 1,0,-1
 996 1485 l 1,1,-1
 49 -484 l 1,2,-1
 -53 -433 l 1,3,-1
 896 1535 l 1,0,-1
EndSplineSet
EndChar

StartChar: zero
Encoding: 48 48 19
Width: 1800
Flags: W
LayerCount: 2
Fore
SplineSet
109 709 m 0,0,1
 109 808 109 808 124.5 902 c 128,-1,2
 140 996 140 996 176 1079 c 128,-1,3
 212 1162 212 1162 271.5 1231 c 128,-1,4
 331 1300 331 1300 419 1350 c 128,-1,5
 507 1400 507 1400 626 1427.5 c 128,-1,6
 745 1455 745 1455 901 1455 c 0,7,8
 1056 1455 1056 1455 1175 1427.5 c 128,-1,9
 1294 1400 1294 1400 1382 1350 c 128,-1,10
 1470 1300 1470 1300 1529 1231 c 128,-1,11
 1588 1162 1588 1162 1624 1079 c 128,-1,12
 1660 996 1660 996 1675.5 902 c 128,-1,13
 1691 808 1691 808 1691 709 c 256,14,15
 1691 610 1691 610 1675.5 515.5 c 128,-1,16
 1660 421 1660 421 1624 338 c 128,-1,17
 1588 255 1588 255 1529 186 c 128,-1,18
 1470 117 1470 117 1382 67 c 128,-1,19
 1294 17 1294 17 1175 -10.5 c 128,-1,20
 1056 -38 1056 -38 901 -38 c 256,21,22
 746 -38 746 -38 626.5 -10.5 c 128,-1,23
 507 17 507 17 419 67 c 128,-1,24
 331 117 331 117 271.5 186 c 128,-1,25
 212 255 212 255 176 338 c 128,-1,26
 140 421 140 421 124.5 515 c 128,-1,27
 109 609 109 609 109 709 c 0,0,1
901 31 m 0,28,29
 953 31 953 31 984.5 62 c 128,-1,30
 1016 93 1016 93 1033 170.5 c 128,-1,31
 1050 248 1050 248 1055.5 378.5 c 128,-1,32
 1061 509 1061 509 1061 709 c 0,33,34
 1061 908 1061 908 1055.5 1038.5 c 128,-1,35
 1050 1169 1050 1169 1033 1246.5 c 128,-1,36
 1016 1324 1016 1324 984.5 1355 c 128,-1,37
 953 1386 953 1386 901 1386 c 0,38,39
 848 1386 848 1386 816.5 1355 c 128,-1,40
 785 1324 785 1324 768 1246.5 c 128,-1,41
 751 1169 751 1169 745.5 1038.5 c 128,-1,42
 740 908 740 908 740 709 c 0,43,44
 740 509 740 509 745.5 378.5 c 128,-1,45
 751 248 751 248 768 170.5 c 128,-1,46
 785 93 785 93 816.5 62 c 128,-1,47
 848 31 848 31 901 31 c 0,28,29
EndSplineSet
EndChar

StartChar: one
Encoding: 49 49 20
Width: 1172
Flags: W
LayerCount: 2
Fore
SplineSet
91 79 m 1,0,-1
 267 79 l 1,1,-1
 267 1244 l 1,2,-1
 91 1244 l 1,3,-1
 91 1323 l 1,4,5
 220 1323 220 1323 322 1351 c 128,-1,6
 424 1379 424 1379 488 1417 c 1,7,-1
 909 1417 l 1,8,-1
 909 79 l 1,9,-1
 1083 79 l 1,10,-1
 1083 0 l 1,11,-1
 91 0 l 1,12,-1
 91 79 l 1,0,-1
EndSplineSet
EndChar

StartChar: two
Encoding: 50 50 21
Width: 1644
Flags: W
LayerCount: 2
Fore
SplineSet
129 99 m 1,0,1
 208 166 208 166 294 247 c 128,-1,2
 380 328 380 328 463 417 c 128,-1,3
 546 506 546 506 621.5 600 c 128,-1,4
 697 694 697 694 754 787.5 c 128,-1,5
 811 881 811 881 844.5 971.5 c 128,-1,6
 878 1062 878 1062 878 1144 c 0,7,8
 878 1214 878 1214 859 1260.5 c 128,-1,9
 840 1307 840 1307 808.5 1334.5 c 128,-1,10
 777 1362 777 1362 735.5 1373 c 128,-1,11
 694 1384 694 1384 649 1384 c 0,12,13
 594 1384 594 1384 540 1375 c 1,14,15
 585 1361 585 1361 622.5 1338.5 c 128,-1,16
 660 1316 660 1316 687 1286.5 c 128,-1,17
 714 1257 714 1257 729 1221.5 c 128,-1,18
 744 1186 744 1186 744 1148 c 0,19,20
 744 1097 744 1097 718.5 1052.5 c 128,-1,21
 693 1008 693 1008 649.5 974.5 c 128,-1,22
 606 941 606 941 547 922 c 128,-1,23
 488 903 488 903 421 903 c 256,24,25
 354 903 354 903 295.5 922 c 128,-1,26
 237 941 237 941 193.5 974.5 c 128,-1,27
 150 1008 150 1008 124.5 1052.5 c 128,-1,28
 99 1097 99 1097 99 1148 c 0,29,30
 99 1223 99 1223 149 1280.5 c 128,-1,31
 199 1338 199 1338 290.5 1376.5 c 128,-1,32
 382 1415 382 1415 510 1435 c 128,-1,33
 638 1455 638 1455 794 1455 c 0,34,35
 883 1455 883 1455 969 1444.5 c 128,-1,36
 1055 1434 1055 1434 1132 1412 c 128,-1,37
 1209 1390 1209 1390 1274.5 1356 c 128,-1,38
 1340 1322 1340 1322 1387.5 1274 c 128,-1,39
 1435 1226 1435 1226 1462 1164 c 128,-1,40
 1489 1102 1489 1102 1489 1025 c 0,41,42
 1489 943 1489 943 1459 876.5 c 128,-1,43
 1429 810 1429 810 1374.5 757 c 128,-1,44
 1320 704 1320 704 1243.5 663 c 128,-1,45
 1167 622 1167 622 1075.5 591 c 128,-1,46
 984 560 984 560 879 537 c 128,-1,47
 774 514 774 514 662 498 c 1,48,49
 660 496 660 496 658 488 c 128,-1,50
 656 480 656 480 654 472 c 0,51,52
 651 462 651 462 649 450 c 1,53,-1
 1390 450 l 1,54,55
 1402 465 1402 465 1413.5 484.5 c 128,-1,56
 1425 504 1425 504 1435 524 c 128,-1,57
 1445 544 1445 544 1453 563 c 128,-1,58
 1461 582 1461 582 1466 598 c 1,59,-1
 1526 595 l 1,60,-1
 1453 0 l 1,61,-1
 129 0 l 1,62,-1
 129 99 l 1,0,1
EndSplineSet
EndChar

StartChar: three
Encoding: 51 51 22
Width: 1634
Flags: W
LayerCount: 2
Fore
SplineSet
90 270 m 0,0,1
 90 321 90 321 115.5 365.5 c 128,-1,2
 141 410 141 410 184.5 443 c 128,-1,3
 228 476 228 476 287 495 c 128,-1,4
 346 514 346 514 413 514 c 256,5,6
 480 514 480 514 538.5 495 c 128,-1,7
 597 476 597 476 640.5 443 c 128,-1,8
 684 410 684 410 709.5 365.5 c 128,-1,9
 735 321 735 321 735 270 c 0,10,11
 735 232 735 232 721 198 c 128,-1,12
 707 164 707 164 681.5 135 c 128,-1,13
 656 106 656 106 621 83 c 128,-1,14
 586 60 586 60 544 46 c 1,15,16
 576 40 576 40 607.5 37 c 128,-1,17
 639 34 639 34 667 34 c 0,18,19
 723 34 723 34 768 48 c 128,-1,20
 813 62 813 62 845 96.5 c 128,-1,21
 877 131 877 131 894.5 189 c 128,-1,22
 912 247 912 247 912 336 c 0,23,24
 912 413 912 413 887 472 c 128,-1,25
 862 531 862 531 816 572 c 128,-1,26
 770 613 770 613 706 636 c 128,-1,27
 642 659 642 659 563 664 c 1,28,-1
 563 772 l 1,29,30
 637 778 637 778 701 805.5 c 128,-1,31
 765 833 765 833 812.5 878 c 128,-1,32
 860 923 860 923 887 984 c 128,-1,33
 914 1045 914 1045 914 1119 c 0,34,35
 914 1191 914 1191 895.5 1241 c 128,-1,36
 877 1291 877 1291 844 1322 c 128,-1,37
 811 1353 811 1353 767 1367 c 128,-1,38
 723 1381 723 1381 672 1381 c 0,39,40
 633 1381 633 1381 590 1377.5 c 128,-1,41
 547 1374 547 1374 496 1359 c 1,42,43
 551 1350 551 1350 598.5 1328 c 128,-1,44
 646 1306 646 1306 680.5 1274.5 c 128,-1,45
 715 1243 715 1243 734.5 1203 c 128,-1,46
 754 1163 754 1163 754 1119 c 0,47,48
 754 1068 754 1068 728.5 1023.5 c 128,-1,49
 703 979 703 979 659.5 946 c 128,-1,50
 616 913 616 913 557.5 894 c 128,-1,51
 499 875 499 875 432 875 c 256,52,53
 365 875 365 875 306 894 c 128,-1,54
 247 913 247 913 203.5 946 c 128,-1,55
 160 979 160 979 134.5 1023.5 c 128,-1,56
 109 1068 109 1068 109 1119 c 0,57,58
 109 1194 109 1194 156.5 1255.5 c 128,-1,59
 204 1317 204 1317 292 1361.5 c 128,-1,60
 380 1406 380 1406 505 1430.5 c 128,-1,61
 630 1455 630 1455 785 1455 c 0,62,63
 869 1455 869 1455 953.5 1445.5 c 128,-1,64
 1038 1436 1038 1436 1116 1416.5 c 128,-1,65
 1194 1397 1194 1397 1262 1366.5 c 128,-1,66
 1330 1336 1330 1336 1380 1293.5 c 128,-1,67
 1430 1251 1430 1251 1458.5 1196.5 c 128,-1,68
 1487 1142 1487 1142 1487 1074 c 0,69,70
 1487 909 1487 909 1312.5 825 c 128,-1,71
 1138 741 1138 741 774 737 c 1,72,73
 945 735 945 735 1084.5 715.5 c 128,-1,74
 1224 696 1224 696 1323.5 653 c 128,-1,75
 1423 610 1423 610 1477 541 c 128,-1,76
 1531 472 1531 472 1531 372 c 0,77,78
 1531 266 1531 266 1482 188.5 c 128,-1,79
 1433 111 1433 111 1341 61 c 128,-1,80
 1249 11 1249 11 1117 -13.5 c 128,-1,81
 985 -38 985 -38 818 -38 c 0,82,83
 655 -38 655 -38 521 -18.5 c 128,-1,84
 387 1 387 1 291 39.5 c 128,-1,85
 195 78 195 78 142.5 135.5 c 128,-1,86
 90 193 90 193 90 270 c 0,0,1
EndSplineSet
EndChar

StartChar: four
Encoding: 52 52 23
Width: 1540
Flags: W
LayerCount: 2
Fore
SplineSet
3 448 m 1,0,-1
 745 1433 l 1,1,-1
 1228 1433 l 1,2,-1
 1228 448 l 1,3,-1
 1441 448 l 1,4,-1
 1441 360 l 1,5,-1
 1228 360 l 1,6,-1
 1228 79 l 1,7,-1
 1403 79 l 1,8,-1
 1403 0 l 1,9,-1
 411 0 l 1,10,-1
 411 79 l 1,11,-1
 586 79 l 1,12,-1
 586 360 l 1,13,-1
 3 360 l 1,14,-1
 3 448 l 1,0,-1
586 448 m 1,15,-1
 586 1012 l 1,16,-1
 165 448 l 1,17,-1
 586 448 l 1,15,-1
EndSplineSet
EndChar

StartChar: five
Encoding: 53 53 24
Width: 1657
Flags: W
LayerCount: 2
Fore
SplineSet
89 270 m 0,0,1
 89 321 89 321 114.5 362.5 c 128,-1,2
 140 404 140 404 183.5 433.5 c 128,-1,3
 227 463 227 463 285.5 479.5 c 128,-1,4
 344 496 344 496 411 496 c 256,5,6
 478 496 478 496 537 479.5 c 128,-1,7
 596 463 596 463 639.5 433.5 c 128,-1,8
 683 404 683 404 708 362.5 c 128,-1,9
 733 321 733 321 733 270 c 0,10,11
 733 229 733 229 716.5 192.5 c 128,-1,12
 700 156 700 156 671 125.5 c 128,-1,13
 642 95 642 95 601 72 c 128,-1,14
 560 49 560 49 512 37 c 1,15,16
 548 32 548 32 584 29.5 c 128,-1,17
 620 27 620 27 650 27 c 0,18,19
 705 27 705 27 754 45.5 c 128,-1,20
 803 64 803 64 839 101.5 c 128,-1,21
 875 139 875 139 896 196.5 c 128,-1,22
 917 254 917 254 917 333 c 0,23,24
 917 418 917 418 892 477 c 128,-1,25
 867 536 867 536 822 573 c 128,-1,26
 777 610 777 610 714.5 626.5 c 128,-1,27
 652 643 652 643 577 643 c 0,28,29
 496 643 496 643 417 626 c 128,-1,30
 338 609 338 609 271 581 c 1,31,-1
 223 639 l 1,32,-1
 324 1417 l 1,33,34
 399 1414 399 1414 475 1407 c 128,-1,35
 551 1400 551 1400 629 1391 c 0,36,37
 729 1380 729 1380 828 1371 c 128,-1,38
 927 1362 927 1362 1024 1362 c 0,39,40
 1127 1362 1127 1362 1222 1376 c 128,-1,41
 1317 1390 1317 1390 1402 1427 c 1,42,-1
 1462 1427 l 1,43,44
 1464 1407 1464 1407 1466 1383 c 128,-1,45
 1468 1359 1468 1359 1469.5 1335 c 128,-1,46
 1471 1311 1471 1311 1471.5 1289 c 128,-1,47
 1472 1267 1472 1267 1472 1252 c 0,48,49
 1472 1148 1472 1148 1436 1081 c 128,-1,50
 1400 1014 1400 1014 1338.5 975 c 128,-1,51
 1277 936 1277 936 1195.5 921 c 128,-1,52
 1114 906 1114 906 1024 906 c 0,53,54
 920 906 920 906 812.5 919.5 c 128,-1,55
 705 933 705 933 608 947 c 0,56,57
 533 958 533 958 470 966.5 c 128,-1,58
 407 975 407 975 362 975 c 1,59,-1
 326 686 l 1,60,61
 462 738 462 738 607 770.5 c 128,-1,62
 752 803 752 803 920 803 c 0,63,64
 1052 803 1052 803 1163.5 780 c 128,-1,65
 1275 757 1275 757 1356.5 708.5 c 128,-1,66
 1438 660 1438 660 1483.5 583.5 c 128,-1,67
 1529 507 1529 507 1529 401 c 0,68,69
 1529 276 1529 276 1475.5 192 c 128,-1,70
 1422 108 1422 108 1322 57 c 128,-1,71
 1222 6 1222 6 1078.5 -16 c 128,-1,72
 935 -38 935 -38 755 -38 c 0,73,74
 608 -38 608 -38 485.5 -24 c 128,-1,75
 363 -10 363 -10 275 25 c 128,-1,76
 187 60 187 60 138 119.5 c 128,-1,77
 89 179 89 179 89 270 c 0,0,1
EndSplineSet
EndChar

StartChar: six
Encoding: 54 54 25
Width: 1689
Flags: W
LayerCount: 2
Fore
SplineSet
109 669 m 0,0,1
 109 776 109 776 123.5 876 c 128,-1,2
 138 976 138 976 172.5 1063.5 c 128,-1,3
 207 1151 207 1151 265 1223 c 128,-1,4
 323 1295 323 1295 410 1346.5 c 128,-1,5
 497 1398 497 1398 617 1426.5 c 128,-1,6
 737 1455 737 1455 895 1455 c 0,7,8
 1045 1455 1045 1455 1160 1434.5 c 128,-1,9
 1275 1414 1275 1414 1353 1377 c 128,-1,10
 1431 1340 1431 1340 1471 1288.5 c 128,-1,11
 1511 1237 1511 1237 1511 1175 c 0,12,13
 1511 1126 1511 1126 1490 1088 c 128,-1,14
 1469 1050 1469 1050 1431 1023.5 c 128,-1,15
 1393 997 1393 997 1340 983.5 c 128,-1,16
 1287 970 1287 970 1223 970 c 256,17,18
 1159 970 1159 970 1104.5 983.5 c 128,-1,19
 1050 997 1050 997 1010 1023.5 c 128,-1,20
 970 1050 970 1050 947.5 1088 c 128,-1,21
 925 1126 925 1126 925 1175 c 0,22,23
 925 1255 925 1255 981.5 1302.5 c 128,-1,24
 1038 1350 1038 1350 1141 1365 c 1,25,26
 1116 1370 1116 1370 1086 1372.5 c 128,-1,27
 1056 1375 1056 1375 1030 1375 c 0,28,29
 938 1375 938 1375 882 1349 c 128,-1,30
 826 1323 826 1323 795 1260 c 128,-1,31
 764 1197 764 1197 753.5 1092.5 c 128,-1,32
 743 988 743 988 741 831 c 1,33,34
 777 846 777 846 819.5 860.5 c 128,-1,35
 862 875 862 875 909 886.5 c 128,-1,36
 956 898 956 898 1004.5 904.5 c 128,-1,37
 1053 911 1053 911 1101 911 c 0,38,39
 1210 911 1210 911 1299 879.5 c 128,-1,40
 1388 848 1388 848 1451 792 c 128,-1,41
 1514 736 1514 736 1548.5 657.5 c 128,-1,42
 1583 579 1583 579 1583 486 c 0,43,44
 1583 425 1583 425 1569 362 c 128,-1,45
 1555 299 1555 299 1523.5 241 c 128,-1,46
 1492 183 1492 183 1440 132 c 128,-1,47
 1388 81 1388 81 1312.5 43.5 c 128,-1,48
 1237 6 1237 6 1135 -16 c 128,-1,49
 1033 -38 1033 -38 901 -38 c 0,50,51
 750 -38 750 -38 632.5 -15 c 128,-1,52
 515 8 515 8 427 51 c 128,-1,53
 339 94 339 94 278.5 156 c 128,-1,54
 218 218 218 218 180 296.5 c 128,-1,55
 142 375 142 375 125.5 469 c 128,-1,56
 109 563 109 563 109 669 c 0,0,1
881 40 m 0,57,58
 910 40 910 40 939 53 c 128,-1,59
 968 66 968 66 990.5 101.5 c 128,-1,60
 1013 137 1013 137 1027 198.5 c 128,-1,61
 1041 260 1041 260 1041 358 c 0,62,63
 1041 453 1041 453 1030.5 523 c 128,-1,64
 1020 593 1020 593 996 639.5 c 128,-1,65
 972 686 972 686 933 709 c 128,-1,66
 894 732 894 732 837 732 c 0,67,68
 792 732 792 732 740 719 c 1,69,-1
 740 699 l 2,70,71
 740 537 740 537 743 414 c 128,-1,72
 746 291 746 291 760 208 c 128,-1,73
 774 125 774 125 802.5 82.5 c 128,-1,74
 831 40 831 40 881 40 c 0,57,58
EndSplineSet
EndChar

StartChar: seven
Encoding: 55 55 26
Width: 1537
Flags: W
LayerCount: 2
Fore
SplineSet
404 238 m 0,0,1
 404 308 404 308 431.5 371.5 c 128,-1,2
 459 435 459 435 507 493 c 128,-1,3
 555 551 555 551 618.5 604.5 c 128,-1,4
 682 658 682 658 754.5 707.5 c 128,-1,5
 827 757 827 757 903.5 802.5 c 128,-1,6
 980 848 980 848 1053 891 c 0,7,8
 1144 944 1144 944 1216.5 994 c 128,-1,9
 1289 1044 1289 1044 1329 1092 c 1,10,-1
 1329 1154 l 1,11,12
 1270 1085 1270 1085 1199 1041.5 c 128,-1,13
 1128 998 1128 998 1050 974 c 128,-1,14
 972 950 972 950 889 941.5 c 128,-1,15
 806 933 806 933 721 933 c 0,16,17
 666 933 666 933 611.5 935 c 128,-1,18
 557 937 557 937 503 941 c 256,19,20
 449 945 449 945 398.5 947 c 128,-1,21
 348 949 348 949 299 949 c 0,22,23
 273 949 273 949 255 936.5 c 128,-1,24
 237 924 237 924 225.5 905 c 128,-1,25
 214 886 214 886 209 862.5 c 128,-1,26
 204 839 204 839 204 817 c 1,27,-1
 104 817 l 1,28,-1
 132 1441 l 1,29,-1
 212 1441 l 1,30,-1
 212 1359 l 1,31,32
 234 1374 234 1374 267 1390 c 128,-1,33
 300 1406 300 1406 341.5 1418.5 c 128,-1,34
 383 1431 383 1431 432 1439.5 c 128,-1,35
 481 1448 481 1448 534 1448 c 0,36,37
 603 1448 603 1448 676.5 1436 c 128,-1,38
 750 1424 750 1424 825 1409 c 0,39,40
 896 1395 896 1395 966 1384.5 c 128,-1,41
 1036 1374 1036 1374 1105 1374 c 0,42,43
 1179 1374 1179 1374 1249 1391 c 128,-1,44
 1319 1408 1319 1408 1383 1455 c 1,45,-1
 1476 1455 l 1,46,-1
 1476 1191 l 2,47,48
 1476 1177 1476 1177 1447 1127 c 128,-1,49
 1418 1077 1418 1077 1371 1003 c 0,50,51
 1336 949 1336 949 1296 885 c 128,-1,52
 1256 821 1256 821 1215 753 c 128,-1,53
 1174 685 1174 685 1135.5 616 c 128,-1,54
 1097 547 1097 547 1065.5 481.5 c 128,-1,55
 1034 416 1034 416 1012.5 357 c 128,-1,56
 991 298 991 298 985 252 c 0,57,58
 974 174 974 174 950 119 c 128,-1,59
 926 64 926 64 889.5 29 c 128,-1,60
 853 -6 853 -6 803.5 -22 c 128,-1,61
 754 -38 754 -38 694 -38 c 0,62,63
 636 -38 636 -38 583.5 -18.5 c 128,-1,64
 531 1 531 1 491 37 c 128,-1,65
 451 73 451 73 427.5 124 c 128,-1,66
 404 175 404 175 404 238 c 0,0,1
EndSplineSet
EndChar

StartChar: eight
Encoding: 56 56 27
Width: 1674
Flags: W
LayerCount: 2
Fore
SplineSet
105 318 m 0,0,1
 105 374 105 374 129.5 419 c 128,-1,2
 154 464 154 464 197 499 c 128,-1,3
 240 534 240 534 299.5 560 c 128,-1,4
 359 586 359 586 429 604 c 1,5,6
 294 699 294 699 236.5 803.5 c 128,-1,7
 179 908 179 908 179 1018 c 0,8,9
 179 1123 179 1123 225 1204 c 128,-1,10
 271 1285 271 1285 357.5 1341 c 128,-1,11
 444 1397 444 1397 569 1426 c 128,-1,12
 694 1455 694 1455 852 1455 c 0,13,14
 985 1455 985 1455 1098.5 1436 c 128,-1,15
 1212 1417 1212 1417 1294.5 1379 c 128,-1,16
 1377 1341 1377 1341 1424 1284 c 128,-1,17
 1471 1227 1471 1227 1471 1150 c 0,18,19
 1471 1050 1471 1050 1397.5 981 c 128,-1,20
 1324 912 1324 912 1172 878 c 1,21,22
 1255 842 1255 842 1329.5 797.5 c 128,-1,23
 1404 753 1404 753 1460.5 694.5 c 128,-1,24
 1517 636 1517 636 1550.5 562 c 128,-1,25
 1584 488 1584 488 1584 392 c 0,26,27
 1584 279 1584 279 1528 197.5 c 128,-1,28
 1472 116 1472 116 1367.5 63.5 c 128,-1,29
 1263 11 1263 11 1113 -13.5 c 128,-1,30
 963 -38 963 -38 775 -38 c 0,31,32
 697 -38 697 -38 617 -30 c 128,-1,33
 537 -22 537 -22 462.5 -4.5 c 128,-1,34
 388 13 388 13 323 41 c 128,-1,35
 258 69 258 69 209.5 108.5 c 128,-1,36
 161 148 161 148 133 200 c 128,-1,37
 105 252 105 252 105 318 c 0,0,1
1021 942 m 1,38,39
 1075 987 1075 987 1099.5 1048 c 128,-1,40
 1124 1109 1124 1109 1124 1175 c 0,41,42
 1124 1224 1124 1224 1109 1263 c 128,-1,43
 1094 1302 1094 1302 1066.5 1328.5 c 128,-1,44
 1039 1355 1039 1355 1000 1369 c 128,-1,45
 961 1383 961 1383 914 1383 c 0,46,47
 865 1383 865 1383 828 1370 c 128,-1,48
 791 1357 791 1357 766 1334 c 128,-1,49
 741 1311 741 1311 728.5 1280.5 c 128,-1,50
 716 1250 716 1250 716 1215 c 0,51,52
 716 1170 716 1170 740.5 1132 c 128,-1,53
 765 1094 765 1094 807 1061 c 128,-1,54
 849 1028 849 1028 904.5 998.5 c 128,-1,55
 960 969 960 969 1021 942 c 1,38,39
488 291 m 0,56,57
 488 222 488 222 512 172 c 128,-1,58
 536 122 536 122 574 90 c 128,-1,59
 612 58 612 58 660.5 43 c 128,-1,60
 709 28 709 28 759 28 c 256,61,62
 809 28 809 28 845 43.5 c 128,-1,63
 881 59 881 59 904.5 83.5 c 128,-1,64
 928 108 928 108 939 138 c 128,-1,65
 950 168 950 168 950 196 c 0,66,67
 950 238 950 238 922.5 276 c 128,-1,68
 895 314 895 314 846 352 c 128,-1,69
 797 390 797 390 730 429 c 128,-1,70
 663 468 663 468 584 511 c 1,71,72
 537 466 537 466 512.5 409 c 128,-1,73
 488 352 488 352 488 291 c 0,56,57
EndSplineSet
EndChar

StartChar: nine
Encoding: 57 57 28
Width: 1689
Flags: W
LayerCount: 2
Fore
SplineSet
178 242 m 0,0,1
 178 291 178 291 199 329 c 128,-1,2
 220 367 220 367 258 393 c 128,-1,3
 296 419 296 419 349 433 c 128,-1,4
 402 447 402 447 466 447 c 256,5,6
 530 447 530 447 584.5 433 c 128,-1,7
 639 419 639 419 679 393 c 128,-1,8
 719 367 719 367 741.5 329 c 128,-1,9
 764 291 764 291 764 242 c 0,10,11
 764 162 764 162 707.5 114.5 c 128,-1,12
 651 67 651 67 548 52 c 1,13,14
 573 47 573 47 603 44.5 c 128,-1,15
 633 42 633 42 659 42 c 0,16,17
 751 42 751 42 807 68 c 128,-1,18
 863 94 863 94 894 157 c 128,-1,19
 925 220 925 220 935.5 324.5 c 128,-1,20
 946 429 946 429 948 586 c 1,21,22
 912 571 912 571 869.5 556.5 c 128,-1,23
 827 542 827 542 780 530.5 c 128,-1,24
 733 519 733 519 684.5 512.5 c 128,-1,25
 636 506 636 506 588 506 c 0,26,27
 478 506 478 506 389 537.5 c 128,-1,28
 300 569 300 569 237 625 c 128,-1,29
 174 681 174 681 140 759.5 c 128,-1,30
 106 838 106 838 106 931 c 0,31,32
 106 992 106 992 120 1055 c 128,-1,33
 134 1118 134 1118 165.5 1176 c 128,-1,34
 197 1234 197 1234 249 1285 c 128,-1,35
 301 1336 301 1336 376.5 1373.5 c 128,-1,36
 452 1411 452 1411 554 1433 c 128,-1,37
 656 1455 656 1455 788 1455 c 0,38,39
 1014 1455 1014 1455 1166.5 1404.5 c 128,-1,40
 1319 1354 1319 1354 1410.5 1261 c 128,-1,41
 1502 1168 1502 1168 1541 1037.5 c 128,-1,42
 1580 907 1580 907 1580 748 c 0,43,44
 1580 641 1580 641 1565.5 541 c 128,-1,45
 1551 441 1551 441 1516.5 353.5 c 128,-1,46
 1482 266 1482 266 1424 194 c 128,-1,47
 1366 122 1366 122 1279 70.5 c 128,-1,48
 1192 19 1192 19 1072 -9.5 c 128,-1,49
 952 -38 952 -38 794 -38 c 0,50,51
 644 -38 644 -38 529 -17.5 c 128,-1,52
 414 3 414 3 336 40 c 128,-1,53
 258 77 258 77 218 128.5 c 128,-1,54
 178 180 178 180 178 242 c 0,0,1
852 685 m 0,55,56
 897 685 897 685 949 698 c 1,57,-1
 949 718 l 2,58,59
 949 880 949 880 946 1003 c 128,-1,60
 943 1126 943 1126 929 1209 c 128,-1,61
 915 1292 915 1292 886.5 1334.5 c 128,-1,62
 858 1377 858 1377 808 1377 c 0,63,64
 779 1377 779 1377 750 1364 c 128,-1,65
 721 1351 721 1351 698.5 1315.5 c 128,-1,66
 676 1280 676 1280 662 1218 c 128,-1,67
 648 1156 648 1156 648 1059 c 0,68,69
 648 964 648 964 658.5 894 c 128,-1,70
 669 824 669 824 693 777.5 c 128,-1,71
 717 731 717 731 756 708 c 128,-1,72
 795 685 795 685 852 685 c 0,55,56
EndSplineSet
EndChar

StartChar: colon
Encoding: 58 58 29
Width: 813
Flags: W
LayerCount: 2
Fore
SplineSet
407 612 m 0,0,1
 351 612 351 612 302 633 c 128,-1,2
 253 654 253 654 216 691 c 128,-1,3
 179 728 179 728 158 776.5 c 128,-1,4
 137 825 137 825 137 881 c 256,5,6
 137 937 137 937 158 986.5 c 128,-1,7
 179 1036 179 1036 216 1072.5 c 128,-1,8
 253 1109 253 1109 302 1130 c 128,-1,9
 351 1151 351 1151 407 1151 c 0,10,11
 462 1151 462 1151 511 1130 c 128,-1,12
 560 1109 560 1109 597 1072.5 c 128,-1,13
 634 1036 634 1036 655 986.5 c 128,-1,14
 676 937 676 937 676 881 c 256,15,16
 676 825 676 825 655 776.5 c 128,-1,17
 634 728 634 728 597 691 c 128,-1,18
 560 654 560 654 511 633 c 128,-1,19
 462 612 462 612 407 612 c 0,0,1
137 231 m 256,20,21
 137 287 137 287 158 336.5 c 128,-1,22
 179 386 179 386 216 422.5 c 128,-1,23
 253 459 253 459 302 480 c 128,-1,24
 351 501 351 501 407 501 c 0,25,26
 462 501 462 501 511 480 c 128,-1,27
 560 459 560 459 597 422.5 c 128,-1,28
 634 386 634 386 655 336.5 c 128,-1,29
 676 287 676 287 676 231 c 256,30,31
 676 175 676 175 655 126.5 c 128,-1,32
 634 78 634 78 597 41 c 128,-1,33
 560 4 560 4 511 -17 c 128,-1,34
 462 -38 462 -38 407 -38 c 0,35,36
 351 -38 351 -38 302 -17 c 128,-1,37
 253 4 253 4 216 41 c 128,-1,38
 179 78 179 78 158 126.5 c 128,-1,39
 137 175 137 175 137 231 c 256,20,21
EndSplineSet
EndChar

StartChar: semicolon
Encoding: 59 59 30
Width: 819
Flags: W
LayerCount: 2
Fore
SplineSet
409 612 m 0,0,1
 353 612 353 612 304 633 c 128,-1,2
 255 654 255 654 218 691 c 128,-1,3
 181 728 181 728 160 776.5 c 128,-1,4
 139 825 139 825 139 881 c 256,5,6
 139 937 139 937 160 986.5 c 128,-1,7
 181 1036 181 1036 218 1072.5 c 128,-1,8
 255 1109 255 1109 304 1130 c 128,-1,9
 353 1151 353 1151 409 1151 c 0,10,11
 464 1151 464 1151 513 1130 c 128,-1,12
 562 1109 562 1109 599 1072.5 c 128,-1,13
 636 1036 636 1036 657 986.5 c 128,-1,14
 678 937 678 937 678 881 c 256,15,16
 678 825 678 825 657 776.5 c 128,-1,17
 636 728 636 728 599 691 c 128,-1,18
 562 654 562 654 513 633 c 128,-1,19
 464 612 464 612 409 612 c 0,0,1
137 255 m 0,20,21
 137 306 137 306 158 351 c 128,-1,22
 179 396 179 396 214 429.5 c 128,-1,23
 249 463 249 463 296 482 c 128,-1,24
 343 501 343 501 396 501 c 0,25,26
 459 501 459 501 511.5 481 c 128,-1,27
 564 461 564 461 602 422.5 c 128,-1,28
 640 384 640 384 661 327 c 128,-1,29
 682 270 682 270 682 196 c 0,30,31
 682 78 682 78 644 -15 c 128,-1,32
 606 -108 606 -108 543.5 -176.5 c 128,-1,33
 481 -245 481 -245 400.5 -290.5 c 128,-1,34
 320 -336 320 -336 234 -358 c 1,35,-1
 205 -319 l 1,36,37
 282 -290 282 -290 334.5 -246.5 c 128,-1,38
 387 -203 387 -203 418.5 -158.5 c 128,-1,39
 450 -114 450 -114 463.5 -74.5 c 128,-1,40
 477 -35 477 -35 477 -14 c 0,41,42
 477 12 477 12 451 23 c 128,-1,43
 425 34 425 34 386 40 c 0,44,45
 348 46 348 46 304.5 55 c 128,-1,46
 261 64 261 64 223.5 85.5 c 128,-1,47
 186 107 186 107 161.5 147 c 128,-1,48
 137 187 137 187 137 255 c 0,20,21
EndSplineSet
EndChar

StartChar: less
Encoding: 60 60 31
Width: 817
Flags: W
LayerCount: 2
Fore
SplineSet
96 609 m 1,0,-1
 599 1092 l 1,1,-1
 687 1004 l 1,2,-1
 275 609 l 1,3,-1
 687 214 l 1,4,-1
 599 126 l 1,5,-1
 96 609 l 1,0,-1
EndSplineSet
EndChar

StartChar: equal
Encoding: 61 61 32
Width: 1078
Flags: W
LayerCount: 2
Fore
SplineSet
91 875 m 1,0,-1
 986 875 l 1,1,-1
 986 751 l 1,2,-1
 91 751 l 1,3,-1
 91 875 l 1,0,-1
91 475 m 1,4,-1
 986 475 l 1,5,-1
 986 351 l 1,6,-1
 91 351 l 1,7,-1
 91 475 l 1,4,-1
EndSplineSet
EndChar

StartChar: greater
Encoding: 62 62 33
Width: 817
Flags: W
LayerCount: 2
Fore
SplineSet
542 609 m 1,0,-1
 130 1004 l 1,1,-1
 218 1092 l 1,2,-1
 721 609 l 1,3,-1
 218 126 l 1,4,-1
 130 214 l 1,5,-1
 542 609 l 1,0,-1
EndSplineSet
EndChar

StartChar: question
Encoding: 63 63 34
Width: 1542
Flags: W
LayerCount: 2
Fore
SplineSet
646 545 m 1,0,1
 646 594 646 594 662 645.5 c 128,-1,2
 678 697 678 697 701.5 750 c 128,-1,3
 725 803 725 803 752.5 857.5 c 128,-1,4
 780 912 780 912 803.5 966.5 c 128,-1,5
 827 1021 827 1021 843 1076 c 128,-1,6
 859 1131 859 1131 859 1185 c 0,7,8
 859 1273 859 1273 801.5 1325.5 c 128,-1,9
 744 1378 744 1378 638 1378 c 0,10,11
 604 1378 604 1378 558.5 1373 c 128,-1,12
 513 1368 513 1368 469 1358 c 1,13,14
 522 1349 522 1349 568 1326.5 c 128,-1,15
 614 1304 614 1304 647.5 1272.5 c 128,-1,16
 681 1241 681 1241 700 1201.5 c 128,-1,17
 719 1162 719 1162 719 1119 c 0,18,19
 719 1068 719 1068 693.5 1023.5 c 128,-1,20
 668 979 668 979 624.5 946 c 128,-1,21
 581 913 581 913 522 894 c 128,-1,22
 463 875 463 875 397 875 c 0,23,24
 330 875 330 875 271 894 c 128,-1,25
 212 913 212 913 168.5 946 c 128,-1,26
 125 979 125 979 100 1023.5 c 128,-1,27
 75 1068 75 1068 75 1119 c 0,28,29
 75 1198 75 1198 122 1260.5 c 128,-1,30
 169 1323 169 1323 260 1366 c 128,-1,31
 351 1409 351 1409 485 1432 c 128,-1,32
 619 1455 619 1455 792 1455 c 0,33,34
 918 1455 918 1455 1039 1431.5 c 128,-1,35
 1160 1408 1160 1408 1255 1359 c 128,-1,36
 1350 1310 1350 1310 1408 1234 c 128,-1,37
 1466 1158 1466 1158 1466 1054 c 0,38,39
 1466 976 1466 976 1436 918 c 128,-1,40
 1406 860 1406 860 1355.5 817.5 c 128,-1,41
 1305 775 1305 775 1239.5 744.5 c 128,-1,42
 1174 714 1174 714 1103 691.5 c 128,-1,43
 1032 669 1032 669 960.5 652 c 128,-1,44
 889 635 889 635 827 619.5 c 128,-1,45
 765 604 765 604 717.5 586.5 c 128,-1,46
 670 569 670 569 646 545 c 1,0,1
499 231 m 256,47,48
 499 287 499 287 520 336.5 c 128,-1,49
 541 386 541 386 578 422.5 c 128,-1,50
 615 459 615 459 664 480 c 128,-1,51
 713 501 713 501 769 501 c 0,52,53
 824 501 824 501 873 480 c 128,-1,54
 922 459 922 459 959 422.5 c 128,-1,55
 996 386 996 386 1017 336.5 c 128,-1,56
 1038 287 1038 287 1038 231 c 256,57,58
 1038 175 1038 175 1017 126.5 c 128,-1,59
 996 78 996 78 959 41 c 128,-1,60
 922 4 922 4 873 -17 c 128,-1,61
 824 -38 824 -38 769 -38 c 0,62,63
 713 -38 713 -38 664 -17 c 128,-1,64
 615 4 615 4 578 41 c 128,-1,65
 541 78 541 78 520 126.5 c 128,-1,66
 499 175 499 175 499 231 c 256,47,48
EndSplineSet
EndChar

StartChar: at
Encoding: 64 64 35
Width: 2454
Flags: W
LayerCount: 2
Fore
SplineSet
191 475 m 0,0,1
 191 606 191 606 222.5 737.5 c 128,-1,2
 254 869 254 869 317.5 989.5 c 128,-1,3
 381 1110 381 1110 477.5 1214 c 128,-1,4
 574 1318 574 1318 703 1394.5 c 128,-1,5
 832 1471 832 1471 994 1515 c 128,-1,6
 1156 1559 1156 1559 1352 1559 c 0,7,8
 1454 1559 1454 1559 1563.5 1538.5 c 128,-1,9
 1673 1518 1673 1518 1777 1474 c 128,-1,10
 1881 1430 1881 1430 1974 1362 c 128,-1,11
 2067 1294 2067 1294 2136.5 1198 c 128,-1,12
 2206 1102 2206 1102 2247 978 c 128,-1,13
 2288 854 2288 854 2288 699 c 0,14,15
 2288 602 2288 602 2266.5 509.5 c 128,-1,16
 2245 417 2245 417 2205.5 335 c 128,-1,17
 2166 253 2166 253 2109.5 184.5 c 128,-1,18
 2053 116 2053 116 1983 66.5 c 128,-1,19
 1913 17 1913 17 1831.5 -10.5 c 128,-1,20
 1750 -38 1750 -38 1660 -38 c 0,21,22
 1578 -38 1578 -38 1519.5 -16.5 c 128,-1,23
 1461 5 1461 5 1423.5 39.5 c 128,-1,24
 1386 74 1386 74 1368 117 c 128,-1,25
 1350 160 1350 160 1349 202 c 1,26,27
 1326 150 1326 150 1293 106 c 128,-1,28
 1260 62 1260 62 1212 30 c 128,-1,29
 1164 -2 1164 -2 1098 -20 c 128,-1,30
 1032 -38 1032 -38 943 -38 c 0,31,32
 841 -38 841 -38 758.5 -4.5 c 128,-1,33
 676 29 676 29 617.5 91 c 128,-1,34
 559 153 559 153 527.5 240 c 128,-1,35
 496 327 496 327 496 435 c 0,36,37
 496 620 496 620 546.5 755 c 128,-1,38
 597 890 597 890 683 978 c 128,-1,39
 769 1066 769 1066 884 1108.5 c 128,-1,40
 999 1151 999 1151 1127 1151 c 0,41,42
 1220 1151 1220 1151 1285 1127 c 128,-1,43
 1350 1103 1350 1103 1392 1061 c 128,-1,44
 1434 1019 1434 1019 1455.5 962 c 128,-1,45
 1477 905 1477 905 1483 838 c 1,46,-1
 1529 1045 l 1,47,-1
 1968 1045 l 1,48,49
 1947 995 1947 995 1926 925 c 128,-1,50
 1905 855 1905 855 1885.5 775.5 c 128,-1,51
 1866 696 1866 696 1849 611 c 128,-1,52
 1832 526 1832 526 1819.5 447 c 128,-1,53
 1807 368 1807 368 1800 299 c 128,-1,54
 1793 230 1793 230 1793 182 c 0,55,56
 1793 142 1793 142 1812 126 c 128,-1,57
 1831 110 1831 110 1857 110 c 0,58,59
 1909 110 1909 110 1963.5 158 c 128,-1,60
 2018 206 2018 206 2063 284.5 c 128,-1,61
 2108 363 2108 363 2136.5 462.5 c 128,-1,62
 2165 562 2165 562 2165 666 c 0,63,64
 2165 813 2165 813 2106.5 938.5 c 128,-1,65
 2048 1064 2048 1064 1934.5 1156 c 128,-1,66
 1821 1248 1821 1248 1655 1300 c 128,-1,67
 1489 1352 1489 1352 1275 1352 c 0,68,69
 1137 1352 1137 1352 1011 1324.5 c 128,-1,70
 885 1297 885 1297 775.5 1244.5 c 128,-1,71
 666 1192 666 1192 577 1116.5 c 128,-1,72
 488 1041 488 1041 425 944 c 128,-1,73
 362 847 362 847 327.5 731 c 128,-1,74
 293 615 293 615 293 482 c 0,75,76
 293 284 293 284 363 144 c 128,-1,77
 433 4 433 4 558 -84.5 c 128,-1,78
 683 -173 683 -173 855 -214 c 128,-1,79
 1027 -255 1027 -255 1231 -255 c 0,80,81
 1411 -255 1411 -255 1552.5 -230.5 c 128,-1,82
 1694 -206 1694 -206 1807.5 -167 c 128,-1,83
 1921 -128 1921 -128 2011 -78 c 128,-1,84
 2101 -28 2101 -28 2178 23 c 1,85,-1
 2227 -39 l 1,86,87
 2189 -76 2189 -76 2136.5 -122 c 128,-1,88
 2084 -168 2084 -168 2016 -215 c 128,-1,89
 1948 -262 1948 -262 1865 -306.5 c 128,-1,90
 1782 -351 1782 -351 1683 -385 c 128,-1,91
 1584 -419 1584 -419 1469 -440 c 128,-1,92
 1354 -461 1354 -461 1222 -461 c 0,93,94
 1097 -461 1097 -461 972.5 -437.5 c 128,-1,95
 848 -414 848 -414 733.5 -365 c 128,-1,96
 619 -316 619 -316 520 -240.5 c 128,-1,97
 421 -165 421 -165 348 -61 c 128,-1,98
 275 43 275 43 233 176.5 c 128,-1,99
 191 310 191 310 191 475 c 0,0,1
1028 368 m 0,100,101
 1028 287 1028 287 1038 235.5 c 128,-1,102
 1048 184 1048 184 1064.5 154 c 128,-1,103
 1081 124 1081 124 1103 112.5 c 128,-1,104
 1125 101 1125 101 1150 101 c 0,105,106
 1195 101 1195 101 1242 147.5 c 128,-1,107
 1289 194 1289 194 1328 279 c 128,-1,108
 1367 364 1367 364 1391.5 483 c 128,-1,109
 1416 602 1416 602 1416 746 c 0,110,111
 1416 807 1416 807 1410.5 858 c 128,-1,112
 1405 909 1405 909 1392 945 c 128,-1,113
 1379 981 1379 981 1358 1001 c 128,-1,114
 1337 1021 1337 1021 1307 1021 c 0,115,116
 1255 1021 1255 1021 1205 974.5 c 128,-1,117
 1155 928 1155 928 1115.5 843 c 128,-1,118
 1076 758 1076 758 1052 637 c 128,-1,119
 1028 516 1028 516 1028 368 c 0,100,101
EndSplineSet
EndChar

StartChar: A
Encoding: 65 65 36
Width: 1891
Flags: W
LayerCount: 2
Fore
SplineSet
-15 79 m 1,0,1
 66 79 66 79 109.5 90 c 128,-1,2
 153 101 153 101 165 130 c 2,3,-1
 680 1417 l 1,4,-1
 1119 1417 l 1,5,-1
 1722 79 l 1,6,-1
 1896 79 l 1,7,-1
 1896 0 l 1,8,-1
 762 0 l 1,9,-1
 762 79 l 1,10,-1
 955 79 l 1,11,-1
 817 424 l 1,12,-1
 377 424 l 1,13,-1
 260 133 l 2,14,15
 259 130 259 130 259 125 c 0,16,17
 259 111 259 111 272.5 102.5 c 128,-1,18
 286 94 286 94 310.5 88.5 c 128,-1,19
 335 83 335 83 368.5 81 c 128,-1,20
 402 79 402 79 442 79 c 1,21,-1
 442 0 l 1,22,-1
 -15 0 l 1,23,-1
 -15 79 l 1,0,1
786 503 m 1,24,-1
 593 975 l 1,25,-1
 408 503 l 1,26,-1
 786 503 l 1,24,-1
EndSplineSet
EndChar

StartChar: B
Encoding: 66 66 37
Width: 1927
Flags: W
LayerCount: 2
Fore
SplineSet
99 79 m 1,0,-1
 275 79 l 1,1,-1
 275 1339 l 1,2,-1
 99 1339 l 1,3,-1
 99 1417 l 1,4,-1
 1110 1417 l 2,5,6
 1240 1417 1240 1417 1352 1401.5 c 128,-1,7
 1464 1386 1464 1386 1547 1346.5 c 128,-1,8
 1630 1307 1630 1307 1677.5 1239.5 c 128,-1,9
 1725 1172 1725 1172 1725 1069 c 0,10,11
 1725 985 1725 985 1691.5 924.5 c 128,-1,12
 1658 864 1658 864 1587 824.5 c 128,-1,13
 1516 785 1516 785 1403.5 765 c 128,-1,14
 1291 745 1291 745 1134 744 c 1,15,16
 1219 743 1219 743 1303 738.5 c 128,-1,17
 1387 734 1387 734 1463 721 c 128,-1,18
 1539 708 1539 708 1604 683.5 c 128,-1,19
 1669 659 1669 659 1717 619.5 c 128,-1,20
 1765 580 1765 580 1792 522 c 128,-1,21
 1819 464 1819 464 1819 384 c 0,22,23
 1819 270 1819 270 1776 195.5 c 128,-1,24
 1733 121 1733 121 1652 77.5 c 128,-1,25
 1571 34 1571 34 1453.5 17 c 128,-1,26
 1336 0 1336 0 1186 0 c 2,27,-1
 99 0 l 1,28,-1
 99 79 l 1,0,-1
964 775 m 1,29,30
 1009 775 1009 775 1048 786 c 128,-1,31
 1087 797 1087 797 1116 828.5 c 128,-1,32
 1145 860 1145 860 1161.5 916.5 c 128,-1,33
 1178 973 1178 973 1178 1063 c 256,34,35
 1178 1153 1178 1153 1161.5 1208 c 128,-1,36
 1145 1263 1145 1263 1116 1293.5 c 128,-1,37
 1087 1324 1087 1324 1048 1334.5 c 128,-1,38
 1009 1345 1009 1345 964 1345 c 1,39,-1
 964 775 l 1,29,30
964 79 m 1,40,41
 1019 79 1019 79 1059 88.5 c 128,-1,42
 1099 98 1099 98 1125.5 127 c 128,-1,43
 1152 156 1152 156 1165 210.5 c 128,-1,44
 1178 265 1178 265 1178 355 c 0,45,46
 1178 535 1178 535 1125.5 617.5 c 128,-1,47
 1073 700 1073 700 964 700 c 1,48,-1
 964 79 l 1,40,41
EndSplineSet
EndChar

StartChar: C
Encoding: 67 67 38
Width: 1847
Flags: W
LayerCount: 2
Fore
SplineSet
118 675 m 0,0,1
 118 841 118 841 171 984 c 128,-1,2
 224 1127 224 1127 330.5 1231.5 c 128,-1,3
 437 1336 437 1336 596 1395.5 c 128,-1,4
 755 1455 755 1455 967 1455 c 0,5,6
 1121 1455 1121 1455 1253 1408 c 128,-1,7
 1385 1361 1385 1361 1497 1256 c 1,8,-1
 1620 1440 l 1,9,-1
 1689 1440 l 1,10,-1
 1689 791 l 1,11,-1
 1611 791 l 1,12,13
 1575 950 1575 950 1513.5 1055 c 128,-1,14
 1452 1160 1452 1160 1378.5 1222.5 c 128,-1,15
 1305 1285 1305 1285 1225.5 1310.5 c 128,-1,16
 1146 1336 1146 1336 1075 1336 c 0,17,18
 1041 1336 1041 1336 1007.5 1330.5 c 128,-1,19
 974 1325 974 1325 943 1305.5 c 128,-1,20
 912 1286 912 1286 885 1249 c 128,-1,21
 858 1212 858 1212 838.5 1148.5 c 128,-1,22
 819 1085 819 1085 807.5 992 c 128,-1,23
 796 899 796 899 796 768 c 0,24,25
 796 631 796 631 804.5 527 c 128,-1,26
 813 423 813 423 830.5 347 c 128,-1,27
 848 271 848 271 873.5 221 c 128,-1,28
 899 171 899 171 933.5 141 c 128,-1,29
 968 111 968 111 1011 98.5 c 128,-1,30
 1054 86 1054 86 1105 86 c 0,31,32
 1205 86 1205 86 1292 116.5 c 128,-1,33
 1379 147 1379 147 1446 213 c 128,-1,34
 1513 279 1513 279 1556.5 383 c 128,-1,35
 1600 487 1600 487 1613 633 c 1,36,-1
 1701 633 l 1,37,38
 1693 492 1693 492 1650.5 370 c 128,-1,39
 1608 248 1608 248 1521 157 c 128,-1,40
 1434 66 1434 66 1297 14 c 128,-1,41
 1160 -38 1160 -38 963 -38 c 0,42,43
 771 -38 771 -38 615 14 c 128,-1,44
 459 66 459 66 348.5 160.5 c 128,-1,45
 238 255 238 255 178 386 c 128,-1,46
 118 517 118 517 118 675 c 0,0,1
EndSplineSet
EndChar

StartChar: D
Encoding: 68 68 39
Width: 2024
Flags: W
LayerCount: 2
Fore
SplineSet
99 79 m 1,0,-1
 274 79 l 1,1,-1
 274 1339 l 1,2,-1
 99 1339 l 1,3,-1
 99 1417 l 1,4,-1
 1214 1417 l 2,5,6
 1373 1417 1373 1417 1501 1369.5 c 128,-1,7
 1629 1322 1629 1322 1719 1231 c 128,-1,8
 1809 1140 1809 1140 1857.5 1008.5 c 128,-1,9
 1906 877 1906 877 1906 709 c 0,10,11
 1906 540 1906 540 1857.5 408 c 128,-1,12
 1809 276 1809 276 1719 185.5 c 128,-1,13
 1629 95 1629 95 1501 47.5 c 128,-1,14
 1373 0 1373 0 1214 0 c 2,15,-1
 99 0 l 1,16,-1
 99 79 l 1,0,-1
964 79 m 1,17,18
 1011 79 1011 79 1049.5 88.5 c 128,-1,19
 1088 98 1088 98 1117 124 c 128,-1,20
 1146 150 1146 150 1167 194.5 c 128,-1,21
 1188 239 1188 239 1201.5 309 c 128,-1,22
 1215 379 1215 379 1221.5 477.5 c 128,-1,23
 1228 576 1228 576 1228 709 c 256,24,25
 1228 842 1228 842 1221.5 940 c 128,-1,26
 1215 1038 1215 1038 1201.5 1108 c 128,-1,27
 1188 1178 1188 1178 1167 1223 c 128,-1,28
 1146 1268 1146 1268 1117 1293.5 c 128,-1,29
 1088 1319 1088 1319 1049.5 1329 c 128,-1,30
 1011 1339 1011 1339 964 1339 c 1,31,-1
 964 79 l 1,17,18
EndSplineSet
EndChar

StartChar: E
Encoding: 69 69 40
Width: 1852
Flags: W
LayerCount: 2
Fore
SplineSet
99 79 m 1,0,-1
 274 79 l 1,1,-1
 274 1339 l 1,2,-1
 99 1339 l 1,3,-1
 99 1417 l 1,4,-1
 1648 1417 l 1,5,-1
 1648 930 l 1,6,-1
 1580 930 l 1,7,-1
 1302 1339 l 1,8,-1
 964 1339 l 1,9,-1
 964 744 l 1,10,-1
 1115 744 l 1,11,-1
 1247 1074 l 1,12,-1
 1312 1074 l 1,13,-1
 1312 334 l 1,14,-1
 1247 334 l 1,15,-1
 1115 666 l 1,16,-1
 964 666 l 1,17,-1
 964 79 l 1,18,-1
 1337 79 l 1,19,-1
 1627 534 l 1,20,-1
 1696 534 l 1,21,-1
 1696 0 l 1,22,-1
 99 0 l 1,23,-1
 99 79 l 1,0,-1
EndSplineSet
EndChar

StartChar: F
Encoding: 70 70 41
Width: 1677
Flags: W
LayerCount: 2
Fore
SplineSet
99 79 m 1,0,-1
 274 79 l 1,1,-1
 274 1339 l 1,2,-1
 99 1339 l 1,3,-1
 99 1417 l 1,4,-1
 1601 1417 l 1,5,-1
 1601 883 l 1,6,-1
 1533 883 l 1,7,-1
 1251 1339 l 1,8,-1
 964 1339 l 1,9,-1
 964 669 l 1,10,-1
 1125 669 l 1,11,-1
 1247 999 l 1,12,-1
 1312 999 l 1,13,-1
 1312 258 l 1,14,-1
 1247 258 l 1,15,-1
 1125 590 l 1,16,-1
 964 590 l 1,17,-1
 964 79 l 1,18,-1
 1214 79 l 1,19,-1
 1214 0 l 1,20,-1
 99 0 l 1,21,-1
 99 79 l 1,0,-1
EndSplineSet
EndChar

StartChar: G
Encoding: 71 71 42
Width: 1921
Flags: W
LayerCount: 2
Fore
SplineSet
118 675 m 0,0,1
 118 840 118 840 169.5 982.5 c 128,-1,2
 221 1125 221 1125 324.5 1230 c 128,-1,3
 428 1335 428 1335 583.5 1395 c 128,-1,4
 739 1455 739 1455 948 1455 c 0,5,6
 1097 1455 1097 1455 1236.5 1410 c 128,-1,7
 1376 1365 1376 1365 1497 1256 c 1,8,-1
 1620 1440 l 1,9,-1
 1689 1440 l 1,10,-1
 1689 791 l 1,11,-1
 1611 791 l 1,12,13
 1575 950 1575 950 1513.5 1055 c 128,-1,14
 1452 1160 1452 1160 1378.5 1222.5 c 128,-1,15
 1305 1285 1305 1285 1225.5 1310.5 c 128,-1,16
 1146 1336 1146 1336 1075 1336 c 0,17,18
 1041 1336 1041 1336 1007.5 1330.5 c 128,-1,19
 974 1325 974 1325 943 1305.5 c 128,-1,20
 912 1286 912 1286 885 1249 c 128,-1,21
 858 1212 858 1212 838.5 1148.5 c 128,-1,22
 819 1085 819 1085 807.5 992 c 128,-1,23
 796 899 796 899 796 768 c 0,24,25
 796 570 796 570 804.5 433 c 128,-1,26
 813 296 813 296 833.5 211.5 c 128,-1,27
 854 127 854 127 887.5 89 c 128,-1,28
 921 51 921 51 971 51 c 0,29,30
 1011 51 1011 51 1034 67 c 128,-1,31
 1057 83 1057 83 1068 118.5 c 128,-1,32
 1079 154 1079 154 1081.5 210.5 c 128,-1,33
 1084 267 1084 267 1084 349 c 2,34,-1
 1084 633 l 1,35,-1
 898 633 l 1,36,-1
 898 712 l 1,37,-1
 1850 712 l 1,38,-1
 1850 633 l 1,39,-1
 1689 633 l 1,40,-1
 1689 -38 l 1,41,-1
 1627 -38 l 1,42,43
 1579 11 1579 11 1529 30 c 128,-1,44
 1479 49 1479 49 1423 49 c 0,45,46
 1369 49 1369 49 1314 37 c 128,-1,47
 1259 25 1259 25 1196 9 c 0,48,49
 1125 -8 1125 -8 1044.5 -23.5 c 128,-1,50
 964 -39 964 -39 867 -39 c 0,51,52
 696 -39 696 -39 558 17 c 128,-1,53
 420 73 420 73 322 170 c 128,-1,54
 224 267 224 267 171 397 c 128,-1,55
 118 527 118 527 118 675 c 0,0,1
EndSplineSet
EndChar

StartChar: H
Encoding: 72 72 43
Width: 2239
Flags: W
LayerCount: 2
Fore
SplineSet
99 79 m 1,0,-1
 274 79 l 1,1,-1
 274 1339 l 1,2,-1
 99 1339 l 1,3,-1
 99 1417 l 1,4,-1
 1063 1417 l 1,5,-1
 1063 1339 l 1,6,-1
 964 1339 l 1,7,-1
 964 798 l 1,8,-1
 1276 798 l 1,9,-1
 1276 1339 l 1,10,-1
 1176 1339 l 1,11,-1
 1176 1417 l 1,12,-1
 2140 1417 l 1,13,-1
 2140 1339 l 1,14,-1
 1966 1339 l 1,15,-1
 1966 79 l 1,16,-1
 2140 79 l 1,17,-1
 2140 0 l 1,18,-1
 1176 0 l 1,19,-1
 1176 79 l 1,20,-1
 1276 79 l 1,21,-1
 1276 720 l 1,22,-1
 964 720 l 1,23,-1
 964 79 l 1,24,-1
 1063 79 l 1,25,-1
 1063 0 l 1,26,-1
 99 0 l 1,27,-1
 99 79 l 1,0,-1
EndSplineSet
EndChar

StartChar: I
Encoding: 73 73 44
Width: 1237
Flags: W
LayerCount: 2
Fore
SplineSet
99 79 m 1,0,-1
 274 79 l 1,1,-1
 274 1339 l 1,2,-1
 99 1339 l 1,3,-1
 99 1417 l 1,4,-1
 1138 1417 l 1,5,-1
 1138 1339 l 1,6,-1
 964 1339 l 1,7,-1
 964 79 l 1,8,-1
 1138 79 l 1,9,-1
 1138 0 l 1,10,-1
 99 0 l 1,11,-1
 99 79 l 1,0,-1
EndSplineSet
EndChar

StartChar: J
Encoding: 74 74 45
Width: 1314
Flags: W
LayerCount: 2
Fore
SplineSet
-24 240 m 0,0,1
 -24 279 -24 279 -6.5 313.5 c 128,-1,2
 11 348 11 348 42.5 373.5 c 128,-1,3
 74 399 74 399 117.5 414 c 128,-1,4
 161 429 161 429 212 429 c 0,5,6
 264 429 264 429 307.5 414 c 128,-1,7
 351 399 351 399 382 373.5 c 128,-1,8
 413 348 413 348 430 313.5 c 128,-1,9
 447 279 447 279 447 240 c 0,10,11
 447 178 447 178 406 130 c 128,-1,12
 365 82 365 82 295 62 c 1,13,14
 314 54 314 54 337.5 50 c 128,-1,15
 361 46 361 46 382 46 c 0,16,17
 423 46 423 46 451.5 61.5 c 128,-1,18
 480 77 480 77 498 103 c 128,-1,19
 516 129 516 129 524 163.5 c 128,-1,20
 532 198 532 198 532 237 c 0,21,22
 532 284 532 284 510.5 337 c 128,-1,23
 489 390 489 390 463 444 c 0,24,25
 434 502 434 502 410.5 557.5 c 128,-1,26
 387 613 387 613 387 660 c 2,27,-1
 387 1339 l 1,28,-1
 212 1339 l 1,29,-1
 212 1417 l 1,30,-1
 1252 1417 l 1,31,-1
 1252 1339 l 1,32,-1
 1077 1339 l 1,33,-1
 1077 417 l 2,34,35
 1077 283 1077 283 1044.5 195.5 c 128,-1,36
 1012 108 1012 108 947.5 56 c 128,-1,37
 883 4 883 4 786.5 -17 c 128,-1,38
 690 -38 690 -38 561 -38 c 0,39,40
 443 -38 443 -38 337 -19 c 128,-1,41
 231 0 231 0 150.5 36 c 128,-1,42
 70 72 70 72 23 123.5 c 128,-1,43
 -24 175 -24 175 -24 240 c 0,0,1
EndSplineSet
EndChar

StartChar: K
Encoding: 75 75 46
Width: 2102
Flags: W
LayerCount: 2
Fore
SplineSet
99 79 m 1,0,-1
 274 79 l 1,1,-1
 274 1339 l 1,2,-1
 99 1339 l 1,3,-1
 99 1417 l 1,4,-1
 1138 1417 l 1,5,-1
 1138 1339 l 1,6,-1
 964 1339 l 1,7,-1
 964 713 l 1,8,-1
 1561 1280 l 2,9,10
 1566 1285 1566 1285 1567 1287.5 c 128,-1,11
 1568 1290 1568 1290 1568 1294 c 0,12,13
 1568 1307 1568 1307 1544.5 1316 c 128,-1,14
 1521 1325 1521 1325 1486 1330 c 128,-1,15
 1451 1335 1451 1335 1410.5 1337 c 128,-1,16
 1370 1339 1370 1339 1335 1339 c 1,17,-1
 1335 1417 l 1,18,-1
 1951 1417 l 1,19,-1
 1951 1339 l 1,20,21
 1889 1339 1889 1339 1846 1336 c 128,-1,22
 1803 1333 1803 1333 1772.5 1325.5 c 128,-1,23
 1742 1318 1742 1318 1721 1306.5 c 128,-1,24
 1700 1295 1700 1295 1681 1277 c 2,25,-1
 1481 1087 l 1,26,-1
 1956 79 l 1,27,-1
 2083 79 l 1,28,-1
 2083 0 l 1,29,-1
 1148 0 l 1,30,-1
 1148 79 l 1,31,-1
 1247 79 l 1,32,-1
 1009 637 l 1,33,-1
 964 594 l 1,34,-1
 964 79 l 1,35,-1
 1063 79 l 1,36,-1
 1063 0 l 1,37,-1
 99 0 l 1,38,-1
 99 79 l 1,0,-1
EndSplineSet
EndChar

StartChar: L
Encoding: 76 76 47
Width: 1654
Flags: W
LayerCount: 2
Fore
SplineSet
99 79 m 1,0,-1
 274 79 l 1,1,-1
 274 1339 l 1,2,-1
 99 1339 l 1,3,-1
 99 1417 l 1,4,-1
 1138 1417 l 1,5,-1
 1138 1339 l 1,6,-1
 964 1339 l 1,7,-1
 964 79 l 1,8,-1
 1282 79 l 1,9,-1
 1533 534 l 1,10,-1
 1601 534 l 1,11,-1
 1601 0 l 1,12,-1
 99 0 l 1,13,-1
 99 79 l 1,0,-1
EndSplineSet
EndChar

StartChar: M
Encoding: 77 77 48
Width: 2209
Flags: W
LayerCount: 2
Fore
SplineSet
94 79 m 1,0,1
 181 79 181 79 225 88.5 c 128,-1,2
 269 98 269 98 269 136 c 2,3,-1
 269 1339 l 1,4,-1
 94 1339 l 1,5,-1
 94 1417 l 1,6,-1
 896 1417 l 1,7,-1
 1080 825 l 1,8,-1
 1274 1417 l 1,9,-1
 2110 1417 l 1,10,-1
 2110 1339 l 1,11,-1
 1935 1339 l 1,12,-1
 1935 79 l 1,13,-1
 2110 79 l 1,14,-1
 2110 0 l 1,15,-1
 1099 0 l 1,16,-1
 1099 79 l 1,17,-1
 1274 79 l 1,18,-1
 1274 1129 l 1,19,-1
 905 0 l 1,20,-1
 721 0 l 1,21,-1
 354 1116 l 1,22,-1
 354 141 l 2,23,24
 354 99 354 99 397.5 89 c 128,-1,25
 441 79 441 79 529 79 c 1,26,-1
 529 0 l 1,27,-1
 94 0 l 1,28,-1
 94 79 l 1,0,1
EndSplineSet
EndChar

StartChar: N
Encoding: 78 78 49
Width: 1866
Flags: W
LayerCount: 2
Fore
SplineSet
46 79 m 1,0,1
 89 79 89 79 129.5 81.5 c 128,-1,2
 170 84 170 84 201 90 c 128,-1,3
 232 96 232 96 250.5 107 c 128,-1,4
 269 118 269 118 269 136 c 2,5,-1
 269 1179 l 1,6,-1
 147 1339 l 1,7,-1
 28 1339 l 1,8,-1
 28 1417 l 1,9,-1
 902 1417 l 1,10,-1
 1545 570 l 1,11,-1
 1545 1280 l 2,12,13
 1545 1298 1545 1298 1532.5 1309.5 c 128,-1,14
 1520 1321 1520 1321 1496 1327.5 c 128,-1,15
 1472 1334 1472 1334 1438 1336.5 c 128,-1,16
 1404 1339 1404 1339 1361 1339 c 1,17,-1
 1361 1417 l 1,18,-1
 1814 1417 l 1,19,-1
 1814 1339 l 1,20,21
 1728 1339 1728 1339 1679 1328 c 128,-1,22
 1630 1317 1630 1317 1630 1280 c 2,23,-1
 1630 0 l 1,24,-1
 1123 0 l 1,25,-1
 354 1067 l 1,26,-1
 354 141 l 2,27,28
 354 121 354 121 370.5 109 c 128,-1,29
 387 97 387 97 415.5 90.5 c 128,-1,30
 444 84 444 84 483 81.5 c 128,-1,31
 522 79 522 79 566 79 c 1,32,-1
 566 0 l 1,33,-1
 46 0 l 1,34,-1
 46 79 l 1,0,1
EndSplineSet
EndChar

StartChar: O
Encoding: 79 79 50
Width: 1950
Flags: W
LayerCount: 2
Fore
SplineSet
118 709 m 0,0,1
 118 808 118 808 138.5 902 c 128,-1,2
 159 996 159 996 202.5 1079 c 128,-1,3
 246 1162 246 1162 314 1231 c 128,-1,4
 382 1300 382 1300 477 1350 c 128,-1,5
 572 1400 572 1400 696 1427.5 c 128,-1,6
 820 1455 820 1455 975 1455 c 256,7,8
 1130 1455 1130 1455 1254 1427.5 c 128,-1,9
 1378 1400 1378 1400 1473.5 1350 c 128,-1,10
 1569 1300 1569 1300 1637 1231 c 128,-1,11
 1705 1162 1705 1162 1748 1079 c 128,-1,12
 1791 996 1791 996 1811.5 902 c 128,-1,13
 1832 808 1832 808 1832 709 c 256,14,15
 1832 610 1832 610 1811.5 515.5 c 128,-1,16
 1791 421 1791 421 1748 338 c 128,-1,17
 1705 255 1705 255 1637 186 c 128,-1,18
 1569 117 1569 117 1473.5 67 c 128,-1,19
 1378 17 1378 17 1254 -10.5 c 128,-1,20
 1130 -38 1130 -38 975 -38 c 256,21,22
 820 -38 820 -38 696 -10.5 c 128,-1,23
 572 17 572 17 477 67 c 128,-1,24
 382 117 382 117 314 186 c 128,-1,25
 246 255 246 255 202.5 338 c 128,-1,26
 159 421 159 421 138.5 515 c 128,-1,27
 118 609 118 609 118 709 c 0,0,1
975 31 m 256,28,29
 1027 31 1027 31 1061.5 62 c 128,-1,30
 1096 93 1096 93 1117 170.5 c 128,-1,31
 1138 248 1138 248 1146.5 378.5 c 128,-1,32
 1155 509 1155 509 1155 709 c 0,33,34
 1155 908 1155 908 1146.5 1038.5 c 128,-1,35
 1138 1169 1138 1169 1117 1246.5 c 128,-1,36
 1096 1324 1096 1324 1061.5 1355 c 128,-1,37
 1027 1386 1027 1386 975 1386 c 256,38,39
 923 1386 923 1386 888.5 1355 c 128,-1,40
 854 1324 854 1324 833.5 1246.5 c 128,-1,41
 813 1169 813 1169 804.5 1038.5 c 128,-1,42
 796 908 796 908 796 709 c 0,43,44
 796 509 796 509 804.5 378.5 c 128,-1,45
 813 248 813 248 833.5 170.5 c 128,-1,46
 854 93 854 93 888.5 62 c 128,-1,47
 923 31 923 31 975 31 c 256,28,29
EndSplineSet
EndChar

StartChar: P
Encoding: 80 80 51
Width: 1846
Flags: W
LayerCount: 2
Fore
SplineSet
99 79 m 1,0,-1
 274 79 l 1,1,-1
 274 1339 l 1,2,-1
 99 1339 l 1,3,-1
 99 1417 l 1,4,-1
 1252 1417 l 2,5,6
 1399 1417 1399 1417 1506 1381.5 c 128,-1,7
 1613 1346 1613 1346 1683 1284 c 128,-1,8
 1753 1222 1753 1222 1786.5 1136.5 c 128,-1,9
 1820 1051 1820 1051 1820 951 c 0,10,11
 1820 850 1820 850 1781.5 766.5 c 128,-1,12
 1743 683 1743 683 1668.5 623.5 c 128,-1,13
 1594 564 1594 564 1484.5 531.5 c 128,-1,14
 1375 499 1375 499 1233 499 c 2,15,-1
 964 499 l 1,16,-1
 964 79 l 1,17,-1
 1138 79 l 1,18,-1
 1138 0 l 1,19,-1
 99 0 l 1,20,-1
 99 79 l 1,0,-1
964 571 m 1,21,22
 1022 571 1022 571 1063 597.5 c 128,-1,23
 1104 624 1104 624 1129.5 672 c 128,-1,24
 1155 720 1155 720 1166.5 787 c 128,-1,25
 1178 854 1178 854 1178 936 c 0,26,27
 1178 1041 1178 1041 1166 1118.5 c 128,-1,28
 1154 1196 1154 1196 1128.5 1246 c 128,-1,29
 1103 1296 1103 1296 1062.5 1320.5 c 128,-1,30
 1022 1345 1022 1345 964 1345 c 1,31,-1
 964 571 l 1,21,22
EndSplineSet
EndChar

StartChar: Q
Encoding: 81 81 52
Width: 1951
Flags: W
LayerCount: 2
Fore
SplineSet
118 709 m 0,0,1
 118 808 118 808 138.5 902 c 128,-1,2
 159 996 159 996 202.5 1079 c 128,-1,3
 246 1162 246 1162 314 1231 c 128,-1,4
 382 1300 382 1300 477 1350 c 128,-1,5
 572 1400 572 1400 696 1427.5 c 128,-1,6
 820 1455 820 1455 975 1455 c 256,7,8
 1130 1455 1130 1455 1254 1427.5 c 128,-1,9
 1378 1400 1378 1400 1473.5 1350 c 128,-1,10
 1569 1300 1569 1300 1637 1231 c 128,-1,11
 1705 1162 1705 1162 1748 1079 c 128,-1,12
 1791 996 1791 996 1811.5 902 c 128,-1,13
 1832 808 1832 808 1832 709 c 0,14,15
 1832 590 1832 590 1802.5 479 c 128,-1,16
 1773 368 1773 368 1710 275 c 128,-1,17
 1647 182 1647 182 1547 111.5 c 128,-1,18
 1447 41 1447 41 1306 2 c 1,19,20
 1319 -31 1319 -31 1339 -59 c 128,-1,21
 1359 -87 1359 -87 1388.5 -107.5 c 128,-1,22
 1418 -128 1418 -128 1459 -139.5 c 128,-1,23
 1500 -151 1500 -151 1556 -151 c 0,24,25
 1599 -151 1599 -151 1641 -146 c 128,-1,26
 1683 -141 1683 -141 1716 -122.5 c 128,-1,27
 1749 -104 1749 -104 1769.5 -68.5 c 128,-1,28
 1790 -33 1790 -33 1790 27 c 1,29,-1
 1851 27 l 1,30,31
 1855 -2 1855 -2 1856.5 -28 c 128,-1,32
 1858 -54 1858 -54 1858 -80 c 0,33,34
 1858 -167 1858 -167 1841 -234 c 128,-1,35
 1824 -301 1824 -301 1786 -346 c 128,-1,36
 1748 -391 1748 -391 1687 -414 c 128,-1,37
 1626 -437 1626 -437 1538 -437 c 0,38,39
 1462 -437 1462 -437 1407 -421 c 128,-1,40
 1352 -405 1352 -405 1312.5 -376.5 c 128,-1,41
 1273 -348 1273 -348 1247.5 -309 c 128,-1,42
 1222 -270 1222 -270 1206.5 -224 c 128,-1,43
 1191 -178 1191 -178 1183 -127.5 c 128,-1,44
 1175 -77 1175 -77 1170 -25 c 1,45,46
 1125 -31 1125 -31 1076.5 -34.5 c 128,-1,47
 1028 -38 1028 -38 975 -38 c 0,48,49
 820 -38 820 -38 696 -10.5 c 128,-1,50
 572 17 572 17 477 67 c 128,-1,51
 382 117 382 117 314 186 c 128,-1,52
 246 255 246 255 202.5 338 c 128,-1,53
 159 421 159 421 138.5 515 c 128,-1,54
 118 609 118 609 118 709 c 0,0,1
803 394 m 1,55,56
 838 432 838 432 887.5 454.5 c 128,-1,57
 937 477 937 477 992 477 c 0,58,59
 1045 477 1045 477 1083 465.5 c 128,-1,60
 1121 454 1121 454 1149 434 c 1,61,62
 1155 551 1155 551 1155 709 c 0,63,64
 1155 908 1155 908 1146.5 1038.5 c 128,-1,65
 1138 1169 1138 1169 1117 1246.5 c 128,-1,66
 1096 1324 1096 1324 1061.5 1355 c 128,-1,67
 1027 1386 1027 1386 975 1386 c 256,68,69
 923 1386 923 1386 888.5 1355 c 128,-1,70
 854 1324 854 1324 833.5 1246.5 c 128,-1,71
 813 1169 813 1169 804.5 1038.5 c 128,-1,72
 796 908 796 908 796 709 c 0,73,74
 796 614 796 614 797.5 536.5 c 128,-1,75
 799 459 799 459 803 394 c 1,55,56
809 317 m 1,76,77
 817 236 817 236 830.5 181 c 128,-1,78
 844 126 844 126 864 92.5 c 128,-1,79
 884 59 884 59 911.5 45 c 128,-1,80
 939 31 939 31 975 31 c 0,81,82
 1008 31 1008 31 1033.5 42.5 c 128,-1,83
 1059 54 1059 54 1078.5 81 c 128,-1,84
 1098 108 1098 108 1111.5 152.5 c 128,-1,85
 1125 197 1125 197 1134 262 c 1,86,87
 1116 322 1116 322 1077 359.5 c 128,-1,88
 1038 397 1038 397 963 397 c 0,89,90
 919 397 919 397 877 374.5 c 128,-1,91
 835 352 835 352 809 317 c 1,76,77
EndSplineSet
EndChar

StartChar: R
Encoding: 82 82 53
Width: 2030
Flags: W
LayerCount: 2
Fore
SplineSet
99 79 m 1,0,-1
 274 79 l 1,1,-1
 274 1339 l 1,2,-1
 99 1339 l 1,3,-1
 99 1417 l 1,4,-1
 1242 1417 l 2,5,6
 1379 1417 1379 1417 1486.5 1395 c 128,-1,7
 1594 1373 1594 1373 1667.5 1327.5 c 128,-1,8
 1741 1282 1741 1282 1779.5 1212 c 128,-1,9
 1818 1142 1818 1142 1818 1047 c 0,10,11
 1818 964 1818 964 1784.5 899 c 128,-1,12
 1751 834 1751 834 1670.5 789 c 128,-1,13
 1590 744 1590 744 1455.5 719.5 c 128,-1,14
 1321 695 1321 695 1120 694 c 1,15,16
 1300 693 1300 693 1427 676.5 c 128,-1,17
 1554 660 1554 660 1634.5 619.5 c 128,-1,18
 1715 579 1715 579 1752 510.5 c 128,-1,19
 1789 442 1789 442 1789 337 c 0,20,21
 1789 308 1789 308 1788.5 287.5 c 128,-1,22
 1788 267 1788 267 1787 239 c 0,23,24
 1785 210 1785 210 1785 194.5 c 128,-1,25
 1785 179 1785 179 1785 159 c 0,26,27
 1785 128 1785 128 1793.5 112 c 128,-1,28
 1802 96 1802 96 1822 96 c 0,29,30
 1855 96 1855 96 1870 160 c 128,-1,31
 1885 224 1885 224 1885 345 c 1,32,-1
 1969 345 l 1,33,-1
 1969 313 l 2,34,35
 1969 214 1969 214 1950.5 146 c 128,-1,36
 1932 78 1932 78 1884.5 36 c 128,-1,37
 1837 -6 1837 -6 1757 -24.5 c 128,-1,38
 1677 -43 1677 -43 1554 -43 c 0,39,40
 1436 -43 1436 -43 1358 -18.5 c 128,-1,41
 1280 6 1280 6 1233.5 54 c 128,-1,42
 1187 102 1187 102 1168 173 c 128,-1,43
 1149 244 1149 244 1149 337 c 0,44,45
 1149 439 1149 439 1138.5 504 c 128,-1,46
 1128 569 1128 569 1106 606.5 c 128,-1,47
 1084 644 1084 644 1048.5 658 c 128,-1,48
 1013 672 1013 672 964 672 c 1,49,-1
 964 79 l 1,50,-1
 1138 79 l 1,51,-1
 1138 0 l 1,52,-1
 99 0 l 1,53,-1
 99 79 l 1,0,-1
964 751 m 1,54,55
 1018 751 1018 751 1058 764 c 128,-1,56
 1098 777 1098 777 1124.5 810 c 128,-1,57
 1151 843 1151 843 1164 900.5 c 128,-1,58
 1177 958 1177 958 1177 1047 c 256,59,60
 1177 1136 1177 1136 1164 1192.5 c 128,-1,61
 1151 1249 1151 1249 1124.5 1281.5 c 128,-1,62
 1098 1314 1098 1314 1058 1326.5 c 128,-1,63
 1018 1339 1018 1339 964 1339 c 1,64,-1
 964 751 l 1,54,55
EndSplineSet
EndChar

StartChar: S
Encoding: 83 83 54
Width: 1769
Flags: W
LayerCount: 2
Fore
SplineSet
184 544 m 1,0,-1
 251 544 l 1,1,2
 276 495 276 495 313 438.5 c 128,-1,3
 350 382 350 382 400 326 c 128,-1,4
 450 270 450 270 514 218.5 c 128,-1,5
 578 167 578 167 657 128 c 128,-1,6
 736 89 736 89 831 65.5 c 128,-1,7
 926 42 926 42 1039 42 c 0,8,9
 1072 42 1072 42 1113 45.5 c 128,-1,10
 1154 49 1154 49 1190 60.5 c 128,-1,11
 1226 72 1226 72 1250.5 93.5 c 128,-1,12
 1275 115 1275 115 1275 151 c 0,13,14
 1275 189 1275 189 1243.5 218.5 c 128,-1,15
 1212 248 1212 248 1148 275.5 c 128,-1,16
 1084 303 1084 303 986.5 331 c 128,-1,17
 889 359 889 359 757 394 c 0,18,19
 463 470 463 470 321.5 606.5 c 128,-1,20
 180 743 180 743 180 940 c 0,21,22
 180 1063 180 1063 230.5 1159 c 128,-1,23
 281 1255 281 1255 368.5 1320.5 c 128,-1,24
 456 1386 456 1386 573.5 1420.5 c 128,-1,25
 691 1455 691 1455 824 1455 c 0,26,27
 892 1455 892 1455 966.5 1443 c 128,-1,28
 1041 1431 1041 1431 1112 1410 c 128,-1,29
 1183 1389 1183 1389 1246 1359.5 c 128,-1,30
 1309 1330 1309 1330 1356 1295 c 1,31,-1
 1507 1441 l 1,32,-1
 1576 1441 l 1,33,-1
 1576 1006 l 1,34,-1
 1513 1006 l 1,35,36
 1469 1085 1469 1085 1400 1153 c 128,-1,37
 1331 1221 1331 1221 1242 1271 c 128,-1,38
 1153 1321 1153 1321 1045 1350 c 128,-1,39
 937 1379 937 1379 816 1379 c 0,40,41
 793 1379 793 1379 757 1377.5 c 128,-1,42
 721 1376 721 1376 686.5 1367 c 128,-1,43
 652 1358 652 1358 627 1338.5 c 128,-1,44
 602 1319 602 1319 602 1284 c 0,45,46
 602 1227 602 1227 705.5 1174.5 c 128,-1,47
 809 1122 809 1122 1014 1068 c 0,48,49
 1101 1045 1101 1045 1182 1019.5 c 128,-1,50
 1263 994 1263 994 1333.5 961.5 c 128,-1,51
 1404 929 1404 929 1461.5 887.5 c 128,-1,52
 1519 846 1519 846 1560 790 c 128,-1,53
 1601 734 1601 734 1623.5 662 c 128,-1,54
 1646 590 1646 590 1646 496 c 0,55,56
 1646 387 1646 387 1606 290 c 128,-1,57
 1566 193 1566 193 1486.5 120 c 128,-1,58
 1407 47 1407 47 1289 4.5 c 128,-1,59
 1171 -38 1171 -38 1016 -38 c 0,60,61
 931 -38 931 -38 856 -25 c 128,-1,62
 781 -12 781 -12 710.5 14 c 128,-1,63
 640 40 640 40 571 79.5 c 128,-1,64
 502 119 502 119 429 172 c 1,65,-1
 259 -19 l 1,66,-1
 184 -19 l 1,67,-1
 184 544 l 1,0,-1
EndSplineSet
EndChar

StartChar: T
Encoding: 84 84 55
Width: 1739
Flags: W
LayerCount: 2
Fore
SplineSet
350 79 m 1,0,-1
 524 79 l 1,1,-1
 524 1339 l 1,2,-1
 380 1339 l 1,3,-1
 135 845 l 1,4,-1
 66 845 l 1,5,-1
 66 1417 l 1,6,-1
 1673 1417 l 1,7,-1
 1673 845 l 1,8,-1
 1603 845 l 1,9,-1
 1359 1339 l 1,10,-1
 1214 1339 l 1,11,-1
 1214 79 l 1,12,-1
 1389 79 l 1,13,-1
 1389 0 l 1,14,-1
 350 0 l 1,15,-1
 350 79 l 1,0,-1
EndSplineSet
EndChar

StartChar: U
Encoding: 85 85 56
Width: 1893
Flags: W
LayerCount: 2
Fore
SplineSet
255 1339 m 1,0,-1
 80 1339 l 1,1,-1
 80 1417 l 1,2,-1
 1119 1417 l 1,3,-1
 1119 1339 l 1,4,-1
 945 1339 l 1,5,-1
 945 567 l 2,6,7
 945 473 945 473 955 388 c 128,-1,8
 965 303 965 303 996.5 238.5 c 128,-1,9
 1028 174 1028 174 1086.5 136 c 128,-1,10
 1145 98 1145 98 1242 98 c 0,11,12
 1279 98 1279 98 1318 105.5 c 128,-1,13
 1357 113 1357 113 1393.5 134 c 128,-1,14
 1430 155 1430 155 1462.5 192 c 128,-1,15
 1495 229 1495 229 1519.5 287.5 c 128,-1,16
 1544 346 1544 346 1558 428.5 c 128,-1,17
 1572 511 1572 511 1572 624 c 2,18,-1
 1572 1280 l 2,19,20
 1572 1309 1572 1309 1527.5 1324 c 128,-1,21
 1483 1339 1483 1339 1396 1339 c 1,22,-1
 1396 1417 l 1,23,-1
 1831 1417 l 1,24,-1
 1831 1339 l 1,25,26
 1745 1339 1745 1339 1701 1324 c 128,-1,27
 1657 1309 1657 1309 1657 1280 c 2,28,-1
 1657 652 l 2,29,30
 1657 470 1657 470 1623.5 339.5 c 128,-1,31
 1590 209 1590 209 1510.5 125 c 128,-1,32
 1431 41 1431 41 1299.5 1.5 c 128,-1,33
 1168 -38 1168 -38 972 -38 c 0,34,35
 836 -38 836 -38 730 -14 c 128,-1,36
 624 10 624 10 544 53.5 c 128,-1,37
 464 97 464 97 409 157.5 c 128,-1,38
 354 218 354 218 320 290.5 c 128,-1,39
 286 363 286 363 270.5 445 c 128,-1,40
 255 527 255 527 255 614 c 2,41,-1
 255 1339 l 1,0,-1
EndSplineSet
EndChar

StartChar: V
Encoding: 86 86 57
Width: 1799
Flags: W
LayerCount: 2
Fore
SplineSet
142 1339 m 1,0,-1
 -5 1339 l 1,1,-1
 -5 1417 l 1,2,-1
 1063 1417 l 1,3,-1
 1063 1339 l 1,4,-1
 887 1339 l 1,5,-1
 1225 465 l 1,6,-1
 1528 1277 l 2,7,8
 1531 1286 1531 1286 1531 1293 c 0,9,10
 1531 1306 1531 1306 1517.5 1314.5 c 128,-1,11
 1504 1323 1504 1323 1479.5 1328.5 c 128,-1,12
 1455 1334 1455 1334 1421.5 1336.5 c 128,-1,13
 1388 1339 1388 1339 1348 1339 c 1,14,-1
 1348 1417 l 1,15,-1
 1814 1417 l 1,16,-1
 1814 1339 l 1,17,18
 1726 1339 1726 1339 1684.5 1325 c 128,-1,19
 1643 1311 1643 1311 1630 1277 c 2,20,-1
 1157 0 l 1,21,-1
 728 0 l 1,22,-1
 142 1339 l 1,0,-1
EndSplineSet
EndChar

StartChar: W
Encoding: 87 87 58
Width: 2603
Flags: W
LayerCount: 2
Fore
SplineSet
136 1339 m 1,0,-1
 -5 1339 l 1,1,-1
 -5 1417 l 1,2,-1
 1006 1417 l 1,3,-1
 1006 1339 l 1,4,-1
 826 1339 l 1,5,-1
 1103 519 l 1,6,-1
 1253 1023 l 1,7,-1
 1138 1339 l 1,8,-1
 1072 1339 l 1,9,-1
 1072 1417 l 1,10,-1
 2008 1417 l 1,11,-1
 2008 1339 l 1,12,-1
 1828 1339 l 1,13,-1
 2103 524 l 1,14,-1
 2322 1277 l 2,15,16
 2325 1286 2325 1286 2325 1293 c 0,17,18
 2325 1306 2325 1306 2311.5 1314.5 c 128,-1,19
 2298 1323 2298 1323 2273.5 1328.5 c 128,-1,20
 2249 1334 2249 1334 2215.5 1336.5 c 128,-1,21
 2182 1339 2182 1339 2142 1339 c 1,22,-1
 2142 1417 l 1,23,-1
 2618 1417 l 1,24,-1
 2618 1339 l 1,25,26
 2529 1339 2529 1339 2486.5 1325.5 c 128,-1,27
 2444 1312 2444 1312 2433 1277 c 2,28,-1
 2055 0 l 1,29,-1
 1625 0 l 1,30,-1
 1310 868 l 1,31,-1
 1053 0 l 1,32,-1
 624 0 l 1,33,-1
 136 1339 l 1,0,-1
EndSplineSet
EndChar

StartChar: X
Encoding: 88 88 59
Width: 1913
Flags: W
LayerCount: 2
Fore
SplineSet
19 79 m 1,0,1
 63 79 63 79 93.5 82.5 c 128,-1,2
 124 86 124 86 145 93.5 c 128,-1,3
 166 101 166 101 180 113 c 128,-1,4
 194 125 194 125 204 141 c 2,5,-1
 581 738 l 1,6,-1
 222 1339 l 1,7,-1
 63 1339 l 1,8,-1
 63 1417 l 1,9,-1
 1141 1417 l 1,10,-1
 1141 1339 l 1,11,-1
 981 1339 l 1,12,-1
 1277 843 l 1,13,-1
 1558 1280 l 2,14,15
 1561 1284 1561 1284 1561 1293 c 0,16,17
 1561 1306 1561 1306 1547.5 1314.5 c 128,-1,18
 1534 1323 1534 1323 1510 1328.5 c 128,-1,19
 1486 1334 1486 1334 1452.5 1336.5 c 128,-1,20
 1419 1339 1419 1339 1379 1339 c 1,21,-1
 1379 1417 l 1,22,-1
 1845 1417 l 1,23,-1
 1845 1339 l 1,24,25
 1801 1339 1801 1339 1770 1335 c 128,-1,26
 1739 1331 1739 1331 1718 1323.5 c 128,-1,27
 1697 1316 1697 1316 1683.5 1304.5 c 128,-1,28
 1670 1293 1670 1293 1660 1277 c 2,29,-1
 1330 754 l 1,30,-1
 1734 79 l 1,31,-1
 1894 79 l 1,32,-1
 1894 0 l 1,33,-1
 816 0 l 1,34,-1
 816 79 l 1,35,-1
 975 79 l 1,36,-1
 634 649 l 1,37,-1
 305 136 l 2,38,39
 302 131 302 131 302 125 c 0,40,41
 302 111 302 111 315.5 102.5 c 128,-1,42
 329 94 329 94 353.5 88.5 c 128,-1,43
 378 83 378 83 411.5 81 c 128,-1,44
 445 79 445 79 485 79 c 1,45,-1
 485 0 l 1,46,-1
 19 0 l 1,47,-1
 19 79 l 1,0,1
EndSplineSet
EndChar

StartChar: Y
Encoding: 89 89 60
Width: 1770
Flags: W
LayerCount: 2
Fore
SplineSet
404 79 m 1,0,-1
 579 79 l 1,1,-1
 579 500 l 1,2,-1
 148 1339 l 1,3,-1
 -5 1339 l 1,4,-1
 -5 1417 l 1,5,-1
 1063 1417 l 1,6,-1
 1063 1339 l 1,7,-1
 893 1339 l 1,8,-1
 1218 646 l 1,9,-1
 1508 1277 l 2,10,11
 1511 1284 1511 1284 1511 1294 c 0,12,13
 1511 1307 1511 1307 1497.5 1315.5 c 128,-1,14
 1484 1324 1484 1324 1460 1329 c 128,-1,15
 1436 1334 1436 1334 1402.5 1336.5 c 128,-1,16
 1369 1339 1369 1339 1329 1339 c 1,17,-1
 1329 1417 l 1,18,-1
 1785 1417 l 1,19,-1
 1785 1339 l 1,20,21
 1741 1339 1741 1339 1711 1336.5 c 128,-1,22
 1681 1334 1681 1334 1661.5 1327 c 128,-1,23
 1642 1320 1642 1320 1630.5 1308 c 128,-1,24
 1619 1296 1619 1296 1610 1277 c 2,25,-1
 1269 546 l 1,26,-1
 1269 79 l 1,27,-1
 1444 79 l 1,28,-1
 1444 0 l 1,29,-1
 404 0 l 1,30,-1
 404 79 l 1,0,-1
EndSplineSet
EndChar

StartChar: Z
Encoding: 90 90 61
Width: 1659
Flags: W
LayerCount: 2
Fore
SplineSet
85 76 m 1,0,-1
 823 1342 l 1,1,-1
 454 1342 l 2,2,3
 440 1342 440 1342 421 1318 c 128,-1,4
 402 1294 402 1294 380.5 1256.5 c 128,-1,5
 359 1219 359 1219 337 1172 c 128,-1,6
 315 1125 315 1125 295 1078.5 c 128,-1,7
 275 1032 275 1032 258.5 991 c 128,-1,8
 242 950 242 950 233 925 c 1,9,-1
 127 925 l 1,10,-1
 127 1417 l 1,11,-1
 1565 1417 l 1,12,-1
 1565 1342 l 1,13,-1
 824 76 l 1,14,-1
 1202 76 l 2,15,16
 1221 76 1221 76 1244.5 99.5 c 128,-1,17
 1268 123 1268 123 1292.5 160 c 128,-1,18
 1317 197 1317 197 1341 243 c 128,-1,19
 1365 289 1365 289 1386 334.5 c 128,-1,20
 1407 380 1407 380 1424 420.5 c 128,-1,21
 1441 461 1441 461 1451 487 c 1,22,-1
 1557 487 l 1,23,-1
 1557 0 l 1,24,-1
 85 0 l 1,25,-1
 85 76 l 1,0,-1
EndSplineSet
EndChar

StartChar: bracketleft
Encoding: 91 91 62
Width: 980
Flags: W
LayerCount: 2
Fore
SplineSet
283 1644 m 1,0,-1
 885 1644 l 1,1,-1
 885 1575 l 1,2,-1
 724 1575 l 1,3,-1
 724 -158 l 1,4,-1
 885 -158 l 1,5,-1
 885 -227 l 1,6,-1
 283 -227 l 1,7,-1
 283 1644 l 1,0,-1
EndSplineSet
EndChar

StartChar: backslash
Encoding: 92 92 63
Width: 945
Flags: W
LayerCount: 2
Fore
SplineSet
-51 1485 m 1,0,-1
 49 1535 l 1,1,-1
 998 -433 l 1,2,-1
 896 -484 l 1,3,-1
 -51 1485 l 1,0,-1
EndSplineSet
EndChar

StartChar: bracketright
Encoding: 93 93 64
Width: 980
Flags: W
LayerCount: 2
Fore
SplineSet
256 -158 m 1,0,-1
 256 1575 l 1,1,-1
 95 1575 l 1,2,-1
 95 1644 l 1,3,-1
 697 1644 l 1,4,-1
 697 -227 l 1,5,-1
 95 -227 l 1,6,-1
 95 -158 l 1,7,-1
 256 -158 l 1,0,-1
EndSplineSet
EndChar

StartChar: asciicircum
Encoding: 94 94 65
Width: 1366
Flags: W
LayerCount: 2
Fore
SplineSet
683 1177 m 1,0,-1
 1217 254 l 1,1,-1
 1110 192 l 1,2,-1
 683 930 l 1,3,-1
 256 192 l 1,4,-1
 149 254 l 1,5,-1
 683 1177 l 1,0,-1
EndSplineSet
EndChar

StartChar: underscore
Encoding: 95 95 66
Width: 1528
Flags: W
LayerCount: 2
Fore
SplineSet
1538 -65 m 1,0,-1
 1538 -179 l 1,1,-1
 -10 -179 l 1,2,-1
 -10 -65 l 1,3,-1
 1538 -65 l 1,0,-1
EndSplineSet
EndChar

StartChar: grave
Encoding: 96 96 67
Width: 941
Flags: W
LayerCount: 2
Fore
SplineSet
567 1299 m 0,0,1
 532 1311 532 1311 485.5 1328 c 128,-1,2
 439 1345 439 1345 388 1364 c 128,-1,3
 337 1383 337 1383 286 1403 c 128,-1,4
 235 1423 235 1423 191 1441 c 128,-1,5
 147 1459 147 1459 114 1473.5 c 128,-1,6
 81 1488 81 1488 67 1496 c 0,7,8
 32 1516 32 1516 16 1545.5 c 128,-1,9
 0 1575 0 1575 0 1608 c 0,10,11
 0 1636 0 1636 11 1662.5 c 128,-1,12
 22 1689 22 1689 40.5 1709 c 128,-1,13
 59 1729 59 1729 84 1741 c 128,-1,14
 109 1753 109 1753 137 1753 c 0,15,16
 154 1753 154 1753 171 1749 c 128,-1,17
 188 1745 188 1745 205 1735 c 0,18,19
 219 1726 219 1726 248.5 1704.5 c 128,-1,20
 278 1683 278 1683 315.5 1653.5 c 128,-1,21
 353 1624 353 1624 396 1589 c 128,-1,22
 439 1554 439 1554 481.5 1519.5 c 128,-1,23
 524 1485 524 1485 562 1452.5 c 128,-1,24
 600 1420 600 1420 628 1396 c 0,25,26
 650 1377 650 1377 664 1365.5 c 128,-1,27
 678 1354 678 1354 683 1351 c 1,28,-1
 633 1274 l 1,29,30
 627 1277 627 1277 610 1283.5 c 128,-1,31
 593 1290 593 1290 567 1299 c 0,0,1
EndSplineSet
EndChar

StartChar: a
Encoding: 97 97 68
Width: 1842
Flags: W
LayerCount: 2
Fore
SplineSet
131 262 m 0,0,1
 131 339 131 339 160 394.5 c 128,-1,2
 189 450 189 450 242 488.5 c 128,-1,3
 295 527 295 527 369 550.5 c 128,-1,4
 443 574 443 574 533.5 587 c 128,-1,5
 624 600 624 600 728 604.5 c 128,-1,6
 832 609 832 609 944 609 c 1,7,-1
 944 665 l 2,8,9
 944 793 944 793 926.5 870 c 128,-1,10
 909 947 909 947 873.5 988 c 128,-1,11
 838 1029 838 1029 786 1041.5 c 128,-1,12
 734 1054 734 1054 665 1054 c 0,13,14
 628 1054 628 1054 586.5 1048 c 128,-1,15
 545 1042 545 1042 513 1034 c 1,16,17
 559 1029 559 1029 598 1011 c 128,-1,18
 637 993 637 993 665 966 c 128,-1,19
 693 939 693 939 708.5 906 c 128,-1,20
 724 873 724 873 724 839 c 0,21,22
 724 797 724 797 703 760 c 128,-1,23
 682 723 682 723 645 695.5 c 128,-1,24
 608 668 608 668 559 652 c 128,-1,25
 510 636 510 636 454 636 c 256,26,27
 398 636 398 636 349.5 652 c 128,-1,28
 301 668 301 668 264.5 695.5 c 128,-1,29
 228 723 228 723 207 760 c 128,-1,30
 186 797 186 797 186 839 c 0,31,32
 186 895 186 895 216.5 940 c 128,-1,33
 247 985 247 985 299.5 1019.5 c 128,-1,34
 352 1054 352 1054 423.5 1079 c 128,-1,35
 495 1104 495 1104 577 1120 c 128,-1,36
 659 1136 659 1136 747.5 1143.5 c 128,-1,37
 836 1151 836 1151 924 1151 c 0,38,39
 1080 1151 1080 1151 1195.5 1129.5 c 128,-1,40
 1311 1108 1311 1108 1387.5 1053.5 c 128,-1,41
 1464 999 1464 999 1502 904.5 c 128,-1,42
 1540 810 1540 810 1540 665 c 2,43,-1
 1540 246 l 2,44,45
 1540 171 1540 171 1555.5 130.5 c 128,-1,46
 1571 90 1571 90 1613 90 c 0,47,48
 1634 90 1634 90 1647.5 103.5 c 128,-1,49
 1661 117 1661 117 1668.5 139 c 128,-1,50
 1676 161 1676 161 1679 190 c 128,-1,51
 1682 219 1682 219 1682 249 c 2,52,-1
 1682 348 l 1,53,-1
 1771 348 l 1,54,-1
 1771 249 l 2,55,56
 1771 169 1771 169 1750.5 114 c 128,-1,57
 1730 59 1730 59 1679.5 25 c 128,-1,58
 1629 -9 1629 -9 1544.5 -23.5 c 128,-1,59
 1460 -38 1460 -38 1332 -38 c 0,60,61
 1267 -38 1267 -38 1210.5 -31 c 128,-1,62
 1154 -24 1154 -24 1107.5 -7 c 128,-1,63
 1061 10 1061 10 1027 38 c 128,-1,64
 993 66 993 66 973 108 c 1,65,66
 943 62 943 62 893 33.5 c 128,-1,67
 843 5 843 5 785 -11 c 128,-1,68
 727 -27 727 -27 668 -32.5 c 128,-1,69
 609 -38 609 -38 560 -38 c 0,70,71
 443 -38 443 -38 361 -13.5 c 128,-1,72
 279 11 279 11 228 52 c 128,-1,73
 177 93 177 93 154 147.5 c 128,-1,74
 131 202 131 202 131 262 c 0,0,1
708 273 m 0,75,76
 708 199 708 199 735 153.5 c 128,-1,77
 762 108 762 108 824 108 c 0,78,79
 876 108 876 108 910 145.5 c 128,-1,80
 944 183 944 183 944 246 c 2,81,-1
 944 517 l 1,82,83
 872 517 872 517 826 504 c 128,-1,84
 780 491 780 491 753.5 462.5 c 128,-1,85
 727 434 727 434 717.5 387 c 128,-1,86
 708 340 708 340 708 273 c 0,75,76
EndSplineSet
EndChar

StartChar: b
Encoding: 98 98 69
Width: 1856
Flags: W
LayerCount: 2
Fore
SplineSet
227 1440 m 1,0,-1
 51 1440 l 1,1,-1
 51 1512 l 1,2,-1
 822 1512 l 1,3,-1
 822 1054 l 1,4,5
 873 1096 873 1096 948.5 1123.5 c 128,-1,6
 1024 1151 1024 1151 1135 1151 c 0,7,8
 1296 1151 1296 1151 1415 1102.5 c 128,-1,9
 1534 1054 1534 1054 1612 972.5 c 128,-1,10
 1690 891 1690 891 1728.5 783 c 128,-1,11
 1767 675 1767 675 1767 556 c 0,12,13
 1767 434 1767 434 1725.5 326 c 128,-1,14
 1684 218 1684 218 1599.5 137 c 128,-1,15
 1515 56 1515 56 1387 9 c 128,-1,16
 1259 -38 1259 -38 1085 -38 c 0,17,18
 977 -38 977 -38 893.5 -20 c 128,-1,19
 810 -2 810 -2 745.5 27 c 128,-1,20
 681 56 681 56 634 92.5 c 128,-1,21
 587 129 587 129 554 165 c 1,22,-1
 227 -38 l 1,23,-1
 227 1440 l 1,0,-1
812 363 m 2,24,25
 812 285 812 285 825 228 c 128,-1,26
 838 171 838 171 860.5 133 c 128,-1,27
 883 95 883 95 914.5 76.5 c 128,-1,28
 946 58 946 58 984 58 c 0,29,30
 1032 58 1032 58 1064 85 c 128,-1,31
 1096 112 1096 112 1116 171 c 128,-1,32
 1136 230 1136 230 1144.5 325 c 128,-1,33
 1153 420 1153 420 1153 556 c 0,34,35
 1153 691 1153 691 1144.5 783.5 c 128,-1,36
 1136 876 1136 876 1117 934 c 128,-1,37
 1098 992 1098 992 1068.5 1017.5 c 128,-1,38
 1039 1043 1039 1043 996 1043 c 0,39,40
 950 1043 950 1043 915.5 1019.5 c 128,-1,41
 881 996 881 996 858 960 c 128,-1,42
 835 924 835 924 823.5 881 c 128,-1,43
 812 838 812 838 812 799 c 2,44,-1
 812 363 l 2,24,25
EndSplineSet
EndChar

StartChar: c
Encoding: 99 99 70
Width: 1589
Flags: W
LayerCount: 2
Fore
SplineSet
89 567 m 0,0,1
 89 698 89 698 142 806 c 128,-1,2
 195 914 195 914 288.5 990.5 c 128,-1,3
 382 1067 382 1067 510 1109 c 128,-1,4
 638 1151 638 1151 789 1151 c 0,5,6
 979 1151 979 1151 1115 1120.5 c 128,-1,7
 1251 1090 1251 1090 1338.5 1041 c 128,-1,8
 1426 992 1426 992 1467 931 c 128,-1,9
 1508 870 1508 870 1508 810 c 0,10,11
 1508 766 1508 766 1486.5 727 c 128,-1,12
 1465 688 1465 688 1427.5 659 c 128,-1,13
 1390 630 1390 630 1340 613 c 128,-1,14
 1290 596 1290 596 1232 596 c 256,15,16
 1174 596 1174 596 1123 612.5 c 128,-1,17
 1072 629 1072 629 1034.5 657.5 c 128,-1,18
 997 686 997 686 975 724 c 128,-1,19
 953 762 953 762 953 806 c 0,20,21
 953 847 953 847 972.5 883.5 c 128,-1,22
 992 920 992 920 1026.5 948 c 128,-1,23
 1061 976 1061 976 1107.5 994 c 128,-1,24
 1154 1012 1154 1012 1208 1015 c 1,25,26
 1151 1036 1151 1036 1095.5 1047.5 c 128,-1,27
 1040 1059 1040 1059 993 1059 c 0,28,29
 916 1059 916 1059 860 1038.5 c 128,-1,30
 804 1018 804 1018 767.5 962.5 c 128,-1,31
 731 907 731 907 713 809 c 128,-1,32
 695 711 695 711 695 556 c 0,33,34
 695 403 695 403 708.5 307 c 128,-1,35
 722 211 722 211 751.5 156.5 c 128,-1,36
 781 102 781 102 827.5 82 c 128,-1,37
 874 62 874 62 940 62 c 0,38,39
 1024 62 1024 62 1098 83 c 128,-1,40
 1172 104 1172 104 1230.5 142.5 c 128,-1,41
 1289 181 1289 181 1328 235.5 c 128,-1,42
 1367 290 1367 290 1381 358 c 1,43,-1
 1475 358 l 1,44,45
 1465 265 1465 265 1418 191.5 c 128,-1,46
 1371 118 1371 118 1293.5 67 c 128,-1,47
 1216 16 1216 16 1111.5 -11 c 128,-1,48
 1007 -38 1007 -38 883 -38 c 0,49,50
 688 -38 688 -38 539.5 2.5 c 128,-1,51
 391 43 391 43 291 120.5 c 128,-1,52
 191 198 191 198 140 310.5 c 128,-1,53
 89 423 89 423 89 567 c 0,0,1
EndSplineSet
EndChar

StartChar: d
Encoding: 100 100 71
Width: 1856
Flags: W
LayerCount: 2
Fore
SplineSet
89 556 m 256,0,1
 89 675 89 675 127.5 783 c 128,-1,2
 166 891 166 891 244.5 972.5 c 128,-1,3
 323 1054 323 1054 442 1102.5 c 128,-1,4
 561 1151 561 1151 722 1151 c 0,5,6
 832 1151 832 1151 908 1123.5 c 128,-1,7
 984 1096 984 1096 1034 1054 c 1,8,-1
 1034 1440 l 1,9,-1
 860 1440 l 1,10,-1
 860 1512 l 1,11,-1
 1630 1512 l 1,12,-1
 1630 72 l 1,13,-1
 1805 72 l 1,14,-1
 1805 0 l 1,15,-1
 1034 0 l 1,16,-1
 1034 80 l 1,17,18
 993 25 993 25 919 -6.5 c 128,-1,19
 845 -38 845 -38 722 -38 c 0,20,21
 561 -38 561 -38 442 10 c 128,-1,22
 323 58 323 58 244.5 140 c 128,-1,23
 166 222 166 222 127.5 329.5 c 128,-1,24
 89 437 89 437 89 556 c 256,0,1
874 77 m 0,25,26
 911 77 911 77 942 92.5 c 128,-1,27
 973 108 973 108 995.5 142.5 c 128,-1,28
 1018 177 1018 177 1031 231 c 128,-1,29
 1044 285 1044 285 1044 363 c 2,30,-1
 1044 799 l 2,31,32
 1044 838 1044 838 1033 881 c 128,-1,33
 1022 924 1022 924 999 960 c 128,-1,34
 976 996 976 996 941.5 1019.5 c 128,-1,35
 907 1043 907 1043 861 1043 c 0,36,37
 819 1043 819 1043 789 1017.5 c 128,-1,38
 759 992 759 992 740 934 c 128,-1,39
 721 876 721 876 712 783.5 c 128,-1,40
 703 691 703 691 703 556 c 0,41,42
 703 420 703 420 711.5 328 c 128,-1,43
 720 236 720 236 740 180.5 c 128,-1,44
 760 125 760 125 793 101 c 128,-1,45
 826 77 826 77 874 77 c 0,25,26
EndSplineSet
EndChar

StartChar: e
Encoding: 101 101 72
Width: 1587
Flags: W
LayerCount: 2
Fore
SplineSet
89 567 m 0,0,1
 89 701 89 701 144 809 c 128,-1,2
 199 917 199 917 296.5 993 c 128,-1,3
 394 1069 394 1069 527.5 1110 c 128,-1,4
 661 1151 661 1151 817 1151 c 0,5,6
 937 1151 937 1151 1034.5 1127 c 128,-1,7
 1132 1103 1132 1103 1207.5 1061.5 c 128,-1,8
 1283 1020 1283 1020 1337.5 963 c 128,-1,9
 1392 906 1392 906 1427.5 840 c 128,-1,10
 1463 774 1463 774 1480 701.5 c 128,-1,11
 1497 629 1497 629 1497 556 c 1,12,-1
 695 556 l 1,13,14
 695 403 695 403 708.5 307 c 128,-1,15
 722 211 722 211 751.5 156.5 c 128,-1,16
 781 102 781 102 827.5 82 c 128,-1,17
 874 62 874 62 940 62 c 0,18,19
 1024 62 1024 62 1098 83 c 128,-1,20
 1172 104 1172 104 1230.5 142.5 c 128,-1,21
 1289 181 1289 181 1328 235.5 c 128,-1,22
 1367 290 1367 290 1381 358 c 1,23,-1
 1475 358 l 1,24,25
 1465 265 1465 265 1418 191.5 c 128,-1,26
 1371 118 1371 118 1293.5 67 c 128,-1,27
 1216 16 1216 16 1111.5 -11 c 128,-1,28
 1007 -38 1007 -38 883 -38 c 0,29,30
 688 -38 688 -38 539.5 2.5 c 128,-1,31
 391 43 391 43 291 120.5 c 128,-1,32
 191 198 191 198 140 310.5 c 128,-1,33
 89 423 89 423 89 567 c 0,0,1
976 657 m 1,34,35
 973 782 973 782 964 865 c 128,-1,36
 955 948 955 948 938 998 c 128,-1,37
 921 1048 921 1048 896 1068.5 c 128,-1,38
 871 1089 871 1089 836 1089 c 256,39,40
 801 1089 801 1089 775.5 1068.5 c 128,-1,41
 750 1048 750 1048 733 998 c 128,-1,42
 716 948 716 948 707 865 c 128,-1,43
 698 782 698 782 696 657 c 1,44,-1
 976 657 l 1,34,35
EndSplineSet
EndChar

StartChar: f
Encoding: 102 102 73
Width: 1176
Flags: W
LayerCount: 2
Fore
SplineSet
70 72 m 1,0,-1
 246 72 l 1,1,-1
 246 946 l 1,2,-1
 70 946 l 1,3,-1
 70 1018 l 1,4,-1
 246 1018 l 1,5,-1
 246 1097 l 2,6,7
 246 1334 246 1334 380 1442 c 128,-1,8
 514 1550 514 1550 776 1550 c 0,9,10
 814 1550 814 1550 864 1545 c 128,-1,11
 914 1540 914 1540 966.5 1528 c 128,-1,12
 1019 1516 1019 1516 1070.5 1496 c 128,-1,13
 1122 1476 1122 1476 1162 1446.5 c 128,-1,14
 1202 1417 1202 1417 1227 1376.5 c 128,-1,15
 1252 1336 1252 1336 1252 1284 c 0,16,17
 1252 1245 1252 1245 1234 1210.5 c 128,-1,18
 1216 1176 1216 1176 1183.5 1150.5 c 128,-1,19
 1151 1125 1151 1125 1107 1110 c 128,-1,20
 1063 1095 1063 1095 1012 1095 c 0,21,22
 960 1095 960 1095 916 1110 c 128,-1,23
 872 1125 872 1125 840 1150.5 c 128,-1,24
 808 1176 808 1176 790 1210.5 c 128,-1,25
 772 1245 772 1245 772 1284 c 0,26,27
 772 1318 772 1318 786 1348.5 c 128,-1,28
 800 1379 800 1379 825 1403.5 c 128,-1,29
 850 1428 850 1428 885 1445 c 128,-1,30
 920 1462 920 1462 962 1469 c 1,31,32
 914 1481 914 1481 867 1481 c 0,33,34
 828 1481 828 1481 793.5 1470.5 c 128,-1,35
 759 1460 759 1460 733.5 1436.5 c 128,-1,36
 708 1413 708 1413 693 1374.5 c 128,-1,37
 678 1336 678 1336 678 1280 c 0,38,39
 678 1243 678 1243 690 1207 c 128,-1,40
 702 1171 702 1171 720.5 1137.5 c 128,-1,41
 739 1104 739 1104 761 1073.5 c 128,-1,42
 783 1043 783 1043 803 1018 c 1,43,-1
 1037 1018 l 1,44,-1
 1037 946 l 1,45,-1
 841 946 l 1,46,-1
 841 72 l 1,47,-1
 1015 72 l 1,48,-1
 1015 0 l 1,49,-1
 70 0 l 1,50,-1
 70 72 l 1,0,-1
EndSplineSet
EndChar

StartChar: g
Encoding: 103 103 74
Width: 1649
Flags: W
LayerCount: 2
Fore
SplineSet
65 -223 m 0,0,1
 65 -175 65 -175 114.5 -129 c 128,-1,2
 164 -83 164 -83 278 -43 c 1,3,4
 120 41 120 41 120 204 c 0,5,6
 120 252 120 252 135 297.5 c 128,-1,7
 150 343 150 343 181.5 383 c 128,-1,8
 213 423 213 423 261.5 454 c 128,-1,9
 310 485 310 485 376 504 c 1,10,11
 267 551 267 551 211 624.5 c 128,-1,12
 155 698 155 698 155 793 c 0,13,14
 155 864 155 864 193.5 929 c 128,-1,15
 232 994 232 994 310 1043.5 c 128,-1,16
 388 1093 388 1093 507 1122 c 128,-1,17
 626 1151 626 1151 787 1151 c 0,18,19
 871 1151 871 1151 943.5 1143 c 128,-1,20
 1016 1135 1016 1135 1079 1120 c 1,21,22
 1111 1175 1111 1175 1156 1214 c 128,-1,23
 1201 1253 1201 1253 1254.5 1278 c 128,-1,24
 1308 1303 1308 1303 1368 1315 c 128,-1,25
 1428 1327 1428 1327 1490 1327 c 0,26,27
 1533 1327 1533 1327 1570 1314.5 c 128,-1,28
 1607 1302 1607 1302 1634.5 1281 c 128,-1,29
 1662 1260 1662 1260 1678 1232 c 128,-1,30
 1694 1204 1694 1204 1694 1172 c 256,31,32
 1694 1140 1694 1140 1678 1112 c 128,-1,33
 1662 1084 1662 1084 1634.5 1063 c 128,-1,34
 1607 1042 1607 1042 1570 1029.5 c 128,-1,35
 1533 1017 1533 1017 1490 1017 c 0,36,37
 1448 1017 1448 1017 1410.5 1029.5 c 128,-1,38
 1373 1042 1373 1042 1345 1063 c 128,-1,39
 1317 1084 1317 1084 1301 1112 c 128,-1,40
 1285 1140 1285 1140 1285 1172 c 0,41,42
 1285 1198 1285 1198 1297 1224 c 1,43,44
 1254 1206 1254 1206 1215.5 1175 c 128,-1,45
 1177 1144 1177 1144 1150 1099 c 1,46,47
 1282 1054 1282 1054 1350.5 975.5 c 128,-1,48
 1419 897 1419 897 1419 793 c 0,49,50
 1419 712 1419 712 1377 646 c 128,-1,51
 1335 580 1335 580 1254.5 533 c 128,-1,52
 1174 486 1174 486 1056 460.5 c 128,-1,53
 938 435 938 435 787 435 c 0,54,55
 597 435 597 435 462 474 c 1,56,57
 405 463 405 463 382.5 443 c 128,-1,58
 360 423 360 423 360 402 c 0,59,60
 360 388 360 388 370 374 c 128,-1,61
 380 360 380 360 408.5 349 c 128,-1,62
 437 338 437 338 487 330.5 c 128,-1,63
 537 323 537 323 618 323 c 2,64,-1
 1020 323 l 2,65,66
 1130 323 1130 323 1223 304.5 c 128,-1,67
 1316 286 1316 286 1383.5 243.5 c 128,-1,68
 1451 201 1451 201 1489 130 c 128,-1,69
 1527 59 1527 59 1527 -46 c 0,70,71
 1527 -136 1527 -136 1486.5 -208.5 c 128,-1,72
 1446 -281 1446 -281 1354.5 -332 c 128,-1,73
 1263 -383 1263 -383 1115 -410 c 128,-1,74
 967 -437 967 -437 753 -437 c 0,75,76
 567 -437 567 -437 436.5 -420 c 128,-1,77
 306 -403 306 -403 223.5 -374 c 128,-1,78
 141 -345 141 -345 103 -306 c 128,-1,79
 65 -267 65 -267 65 -223 c 0,0,1
787 497 m 256,80,81
 825 497 825 497 850.5 513.5 c 128,-1,82
 876 530 876 530 891 565.5 c 128,-1,83
 906 601 906 601 912 657 c 128,-1,84
 918 713 918 713 918 793 c 256,85,86
 918 873 918 873 912 929 c 128,-1,87
 906 985 906 985 891 1020.5 c 128,-1,88
 876 1056 876 1056 850.5 1072.5 c 128,-1,89
 825 1089 825 1089 787 1089 c 256,90,91
 749 1089 749 1089 723.5 1072.5 c 128,-1,92
 698 1056 698 1056 683 1020.5 c 128,-1,93
 668 985 668 985 661.5 929 c 128,-1,94
 655 873 655 873 655 793 c 256,95,96
 655 713 655 713 661.5 657 c 128,-1,97
 668 601 668 601 683 565.5 c 128,-1,98
 698 530 698 530 723.5 513.5 c 128,-1,99
 749 497 749 497 787 497 c 256,80,81
225 -213 m 0,100,101
 225 -228 225 -228 231.5 -245 c 128,-1,102
 238 -262 238 -262 257.5 -279 c 128,-1,103
 277 -296 277 -296 312.5 -311 c 128,-1,104
 348 -326 348 -326 407 -338 c 128,-1,105
 466 -350 466 -350 551 -357 c 128,-1,106
 636 -364 636 -364 754 -364 c 0,107,108
 895 -364 895 -364 1004 -352 c 128,-1,109
 1113 -340 1113 -340 1187.5 -319.5 c 128,-1,110
 1262 -299 1262 -299 1300.5 -270.5 c 128,-1,111
 1339 -242 1339 -242 1339 -209 c 0,112,113
 1339 -161 1339 -161 1268 -139.5 c 128,-1,114
 1197 -118 1197 -118 1063 -118 c 2,115,-1
 666 -118 l 2,116,117
 576 -118 576 -118 501 -108 c 128,-1,118
 426 -98 426 -98 364 -79 c 1,119,120
 287 -111 287 -111 256 -144.5 c 128,-1,121
 225 -178 225 -178 225 -213 c 0,100,101
EndSplineSet
EndChar

StartChar: h
Encoding: 104 104 75
Width: 1937
Flags: W
LayerCount: 2
Fore
SplineSet
80 72 m 1,0,-1
 255 72 l 1,1,-1
 255 1440 l 1,2,-1
 80 1440 l 1,3,-1
 80 1512 l 1,4,-1
 850 1512 l 1,5,-1
 850 985 l 1,6,7
 882 1024 882 1024 927.5 1055 c 128,-1,8
 973 1086 973 1086 1028 1107.5 c 128,-1,9
 1083 1129 1083 1129 1145.5 1140 c 128,-1,10
 1208 1151 1208 1151 1274 1151 c 0,11,12
 1410 1151 1410 1151 1498.5 1115.5 c 128,-1,13
 1587 1080 1587 1080 1638 1014.5 c 128,-1,14
 1689 949 1689 949 1709 855.5 c 128,-1,15
 1729 762 1729 762 1729 647 c 2,16,-1
 1729 72 l 1,17,-1
 1904 72 l 1,18,-1
 1904 0 l 1,19,-1
 1034 0 l 1,20,-1
 1034 72 l 1,21,-1
 1134 72 l 1,22,-1
 1134 647 l 2,23,24
 1134 750 1134 750 1128 815.5 c 128,-1,25
 1122 881 1122 881 1107 918.5 c 128,-1,26
 1092 956 1092 956 1067 970.5 c 128,-1,27
 1042 985 1042 985 1004 985 c 256,28,29
 966 985 966 985 937 969 c 128,-1,30
 908 953 908 953 888.5 924 c 128,-1,31
 869 895 869 895 859.5 855 c 128,-1,32
 850 815 850 815 850 768 c 2,33,-1
 850 72 l 1,34,-1
 949 72 l 1,35,-1
 949 0 l 1,36,-1
 80 0 l 1,37,-1
 80 72 l 1,0,-1
EndSplineSet
EndChar

StartChar: i
Encoding: 105 105 76
Width: 1077
Flags: W
LayerCount: 2
Fore
SplineSet
542 1214 m 0,0,1
 484 1214 484 1214 430 1225.5 c 128,-1,2
 376 1237 376 1237 335 1262.5 c 128,-1,3
 294 1288 294 1288 269 1328 c 128,-1,4
 244 1368 244 1368 244 1426 c 256,5,6
 244 1484 244 1484 269 1524.5 c 128,-1,7
 294 1565 294 1565 335 1590.5 c 128,-1,8
 376 1616 376 1616 430 1627.5 c 128,-1,9
 484 1639 484 1639 542 1639 c 0,10,11
 599 1639 599 1639 653 1627.5 c 128,-1,12
 707 1616 707 1616 748 1590.5 c 128,-1,13
 789 1565 789 1565 814 1525 c 128,-1,14
 839 1485 839 1485 839 1427 c 256,15,16
 839 1369 839 1369 814 1328.5 c 128,-1,17
 789 1288 789 1288 748 1262.5 c 128,-1,18
 707 1237 707 1237 653 1225.5 c 128,-1,19
 599 1214 599 1214 542 1214 c 0,0,1
80 72 m 1,20,-1
 255 72 l 1,21,-1
 255 1041 l 1,22,-1
 80 1041 l 1,23,-1
 80 1113 l 1,24,-1
 850 1113 l 1,25,-1
 850 72 l 1,26,-1
 1025 72 l 1,27,-1
 1025 0 l 1,28,-1
 80 0 l 1,29,-1
 80 72 l 1,20,-1
EndSplineSet
EndChar

StartChar: j
Encoding: 106 106 77
Width: 1143
Flags: W
LayerCount: 2
Fore
SplineSet
612 1214 m 256,0,1
 554 1214 554 1214 500.5 1225.5 c 128,-1,2
 447 1237 447 1237 405.5 1262.5 c 128,-1,3
 364 1288 364 1288 339.5 1328 c 128,-1,4
 315 1368 315 1368 315 1426 c 256,5,6
 315 1484 315 1484 339.5 1524.5 c 128,-1,7
 364 1565 364 1565 405.5 1590.5 c 128,-1,8
 447 1616 447 1616 500.5 1627.5 c 128,-1,9
 554 1639 554 1639 612 1639 c 256,10,11
 670 1639 670 1639 723.5 1627.5 c 128,-1,12
 777 1616 777 1616 818.5 1590.5 c 128,-1,13
 860 1565 860 1565 885 1525 c 128,-1,14
 910 1485 910 1485 910 1427 c 256,15,16
 910 1369 910 1369 885 1328.5 c 128,-1,17
 860 1288 860 1288 818.5 1262.5 c 128,-1,18
 777 1237 777 1237 723.5 1225.5 c 128,-1,19
 670 1214 670 1214 612 1214 c 256,0,1
165 28 m 256,20,21
 217 28 217 28 260.5 13 c 128,-1,22
 304 -2 304 -2 336 -27.5 c 128,-1,23
 368 -53 368 -53 386 -87.5 c 128,-1,24
 404 -122 404 -122 404 -161 c 0,25,26
 404 -194 404 -194 390.5 -224.5 c 128,-1,27
 377 -255 377 -255 353 -279 c 128,-1,28
 329 -303 329 -303 295 -320.5 c 128,-1,29
 261 -338 261 -338 221 -345 c 1,30,31
 245 -353 245 -353 278.5 -360 c 128,-1,32
 312 -367 312 -367 338 -367 c 0,33,34
 384 -367 384 -367 415 -350 c 128,-1,35
 446 -333 446 -333 464.5 -305.5 c 128,-1,36
 483 -278 483 -278 490.5 -243.5 c 128,-1,37
 498 -209 498 -209 498 -173 c 0,38,39
 498 -135 498 -135 487 -101 c 128,-1,40
 476 -67 476 -67 459 -37 c 128,-1,41
 442 -7 442 -7 422 19 c 128,-1,42
 402 45 402 45 383 68 c 0,43,44
 362 94 362 94 348.5 115 c 128,-1,45
 335 136 335 136 335 153 c 2,46,-1
 335 1041 l 1,47,-1
 161 1041 l 1,48,-1
 161 1113 l 1,49,-1
 930 1113 l 1,50,-1
 930 16 l 2,51,52
 930 -221 930 -221 796.5 -329 c 128,-1,53
 663 -437 663 -437 401 -437 c 0,54,55
 307 -437 307 -437 220.5 -419 c 128,-1,56
 134 -401 134 -401 68 -366 c 128,-1,57
 2 -331 2 -331 -37 -279.5 c 128,-1,58
 -76 -228 -76 -228 -76 -161 c 0,59,60
 -76 -122 -76 -122 -58 -87.5 c 128,-1,61
 -40 -53 -40 -53 -7.5 -27.5 c 128,-1,62
 25 -2 25 -2 69 13 c 128,-1,63
 113 28 113 28 165 28 c 256,20,21
EndSplineSet
EndChar

StartChar: k
Encoding: 107 107 78
Width: 1828
Flags: W
LayerCount: 2
Fore
SplineSet
80 72 m 1,0,-1
 255 72 l 1,1,-1
 255 1440 l 1,2,-1
 80 1440 l 1,3,-1
 80 1512 l 1,4,-1
 850 1512 l 1,5,-1
 850 586 l 1,6,7
 878 612 878 612 917 649.5 c 128,-1,8
 956 687 956 687 999 728.5 c 128,-1,9
 1042 770 1042 770 1084.5 812 c 128,-1,10
 1127 854 1127 854 1162 889 c 128,-1,11
 1197 924 1197 924 1220 949 c 128,-1,12
 1243 974 1243 974 1248 982 c 0,13,14
 1251 986 1251 986 1251.5 988.5 c 128,-1,15
 1252 991 1252 991 1252 994 c 0,16,17
 1252 1007 1252 1007 1238.5 1016 c 128,-1,18
 1225 1025 1225 1025 1200.5 1030.5 c 128,-1,19
 1176 1036 1176 1036 1142.5 1038.5 c 128,-1,20
 1109 1041 1109 1041 1069 1041 c 1,21,-1
 1069 1113 l 1,22,-1
 1677 1113 l 1,23,-1
 1677 1041 l 1,24,25
 1635 1041 1635 1041 1594.5 1039 c 128,-1,26
 1554 1037 1554 1037 1518 1030.5 c 128,-1,27
 1482 1024 1482 1024 1451.5 1011.5 c 128,-1,28
 1421 999 1421 999 1398 978 c 0,29,30
 1372 955 1372 955 1333.5 918 c 128,-1,31
 1295 881 1295 881 1249 836 c 128,-1,32
 1203 791 1203 791 1152.5 741.5 c 128,-1,33
 1102 692 1102 692 1054 643 c 1,34,35
 1083 645 1083 645 1111 646 c 128,-1,36
 1139 647 1139 647 1165 647 c 0,37,38
 1282 647 1282 647 1365.5 631 c 128,-1,39
 1449 615 1449 615 1502.5 576.5 c 128,-1,40
 1556 538 1556 538 1580.5 474.5 c 128,-1,41
 1605 411 1605 411 1605 317 c 0,42,43
 1605 308 1605 308 1605 301.5 c 128,-1,44
 1605 295 1605 295 1605 287.5 c 128,-1,45
 1605 280 1605 280 1604.5 269 c 128,-1,46
 1604 258 1604 258 1603 241 c 256,47,48
 1602 224 1602 224 1601.5 213 c 128,-1,49
 1601 202 1601 202 1601 194 c 128,-1,50
 1601 186 1601 186 1601 179 c 128,-1,51
 1601 172 1601 172 1601 163 c 0,52,53
 1601 136 1601 136 1610.5 117.5 c 128,-1,54
 1620 99 1620 99 1642 99 c 0,55,56
 1657 99 1657 99 1668 109 c 128,-1,57
 1679 119 1679 119 1686.5 142.5 c 128,-1,58
 1694 166 1694 166 1697.5 205 c 128,-1,59
 1701 244 1701 244 1701 302 c 1,60,-1
 1785 302 l 1,61,-1
 1785 269 l 2,62,63
 1785 170 1785 170 1763 109.5 c 128,-1,64
 1741 49 1741 49 1693.5 16 c 128,-1,65
 1646 -17 1646 -17 1570.5 -27.5 c 128,-1,66
 1495 -38 1495 -38 1389 -38 c 0,67,68
 1271 -38 1271 -38 1197.5 -16.5 c 128,-1,69
 1124 5 1124 5 1083 47 c 128,-1,70
 1042 89 1042 89 1027.5 151 c 128,-1,71
 1013 213 1013 213 1013 294 c 0,72,73
 1013 394 1013 394 1002 456.5 c 128,-1,74
 991 519 991 519 955 543 c 1,75,76
 923 510 923 510 895.5 482.5 c 128,-1,77
 868 455 868 455 850 435 c 1,78,-1
 850 72 l 1,79,-1
 975 72 l 1,80,-1
 975 0 l 1,81,-1
 80 0 l 1,82,-1
 80 72 l 1,0,-1
EndSplineSet
EndChar

StartChar: l
Encoding: 108 108 79
Width: 1077
Flags: W
LayerCount: 2
Fore
SplineSet
80 72 m 1,0,-1
 255 72 l 1,1,-1
 255 1440 l 1,2,-1
 80 1440 l 1,3,-1
 80 1512 l 1,4,-1
 850 1512 l 1,5,-1
 850 72 l 1,6,-1
 1025 72 l 1,7,-1
 1025 0 l 1,8,-1
 80 0 l 1,9,-1
 80 72 l 1,0,-1
EndSplineSet
EndChar

StartChar: m
Encoding: 109 109 80
Width: 2778
Flags: W
LayerCount: 2
Fore
SplineSet
80 72 m 1,0,-1
 255 72 l 1,1,-1
 255 1041 l 1,2,-1
 80 1041 l 1,3,-1
 80 1113 l 1,4,-1
 850 1113 l 1,5,-1
 850 985 l 1,6,7
 915 1064 915 1064 1018 1107.5 c 128,-1,8
 1121 1151 1121 1151 1255 1151 c 0,9,10
 1422 1151 1422 1151 1518 1098 c 128,-1,11
 1614 1045 1614 1045 1659 948 c 1,12,13
 1683 991 1683 991 1725 1028 c 128,-1,14
 1767 1065 1767 1065 1821 1092.5 c 128,-1,15
 1875 1120 1875 1120 1939 1135.5 c 128,-1,16
 2003 1151 2003 1151 2071 1151 c 0,17,18
 2221 1151 2221 1151 2317.5 1117.5 c 128,-1,19
 2414 1084 2414 1084 2470.5 1019.5 c 128,-1,20
 2527 955 2527 955 2548.5 861.5 c 128,-1,21
 2570 768 2570 768 2570 647 c 2,22,-1
 2570 72 l 1,23,-1
 2745 72 l 1,24,-1
 2745 0 l 1,25,-1
 1875 0 l 1,26,-1
 1875 72 l 1,27,-1
 1975 72 l 1,28,-1
 1975 647 l 2,29,30
 1975 750 1975 750 1969 815.5 c 128,-1,31
 1963 881 1963 881 1948 918.5 c 128,-1,32
 1933 956 1933 956 1908 970.5 c 128,-1,33
 1883 985 1883 985 1845 985 c 0,34,35
 1780 985 1780 985 1743.5 941.5 c 128,-1,36
 1707 898 1707 898 1696 826 c 1,37,38
 1704 785 1704 785 1707 740.5 c 128,-1,39
 1710 696 1710 696 1710 647 c 2,40,-1
 1710 72 l 1,41,-1
 1809 72 l 1,42,-1
 1809 0 l 1,43,-1
 1015 0 l 1,44,-1
 1015 72 l 1,45,-1
 1115 72 l 1,46,-1
 1115 647 l 2,47,48
 1115 750 1115 750 1109 815.5 c 128,-1,49
 1103 881 1103 881 1088 918.5 c 128,-1,50
 1073 956 1073 956 1048 970.5 c 128,-1,51
 1023 985 1023 985 985 985 c 256,52,53
 947 985 947 985 921 969 c 128,-1,54
 895 953 895 953 879 924 c 128,-1,55
 863 895 863 895 856.5 855 c 128,-1,56
 850 815 850 815 850 768 c 2,57,-1
 850 72 l 1,58,-1
 949 72 l 1,59,-1
 949 0 l 1,60,-1
 80 0 l 1,61,-1
 80 72 l 1,0,-1
EndSplineSet
EndChar

StartChar: n
Encoding: 110 110 81
Width: 1937
Flags: W
LayerCount: 2
Fore
SplineSet
80 72 m 1,0,-1
 255 72 l 1,1,-1
 255 1041 l 1,2,-1
 80 1041 l 1,3,-1
 80 1113 l 1,4,-1
 850 1113 l 1,5,-1
 850 985 l 1,6,7
 882 1024 882 1024 927.5 1055 c 128,-1,8
 973 1086 973 1086 1028 1107.5 c 128,-1,9
 1083 1129 1083 1129 1145.5 1140 c 128,-1,10
 1208 1151 1208 1151 1274 1151 c 0,11,12
 1410 1151 1410 1151 1498.5 1115.5 c 128,-1,13
 1587 1080 1587 1080 1638 1014.5 c 128,-1,14
 1689 949 1689 949 1709 855.5 c 128,-1,15
 1729 762 1729 762 1729 647 c 2,16,-1
 1729 72 l 1,17,-1
 1904 72 l 1,18,-1
 1904 0 l 1,19,-1
 1034 0 l 1,20,-1
 1034 72 l 1,21,-1
 1134 72 l 1,22,-1
 1134 647 l 2,23,24
 1134 750 1134 750 1128 815.5 c 128,-1,25
 1122 881 1122 881 1107 918.5 c 128,-1,26
 1092 956 1092 956 1067 970.5 c 128,-1,27
 1042 985 1042 985 1004 985 c 256,28,29
 966 985 966 985 937 969 c 128,-1,30
 908 953 908 953 888.5 924 c 128,-1,31
 869 895 869 895 859.5 855 c 128,-1,32
 850 815 850 815 850 768 c 2,33,-1
 850 72 l 1,34,-1
 949 72 l 1,35,-1
 949 0 l 1,36,-1
 80 0 l 1,37,-1
 80 72 l 1,0,-1
EndSplineSet
EndChar

StartChar: o
Encoding: 111 111 82
Width: 1689
Flags: W
LayerCount: 2
Fore
SplineSet
89 556 m 256,0,1
 89 685 89 685 136 794 c 128,-1,2
 183 903 183 903 277 982.5 c 128,-1,3
 371 1062 371 1062 513 1106.5 c 128,-1,4
 655 1151 655 1151 845 1151 c 256,5,6
 1035 1151 1035 1151 1176.5 1106.5 c 128,-1,7
 1318 1062 1318 1062 1412 982.5 c 128,-1,8
 1506 903 1506 903 1553 794 c 128,-1,9
 1600 685 1600 685 1600 556 c 256,10,11
 1600 427 1600 427 1553 318.5 c 128,-1,12
 1506 210 1506 210 1412 130.5 c 128,-1,13
 1318 51 1318 51 1176.5 6.5 c 128,-1,14
 1035 -38 1035 -38 845 -38 c 256,15,16
 655 -38 655 -38 513 6.5 c 128,-1,17
 371 51 371 51 277 130.5 c 128,-1,18
 183 210 183 210 136 318.5 c 128,-1,19
 89 427 89 427 89 556 c 256,0,1
845 24 m 0,20,21
 883 24 883 24 910 49 c 128,-1,22
 937 74 937 74 954 135 c 128,-1,23
 971 196 971 196 978.5 298.5 c 128,-1,24
 986 401 986 401 986 556 c 0,25,26
 986 712 986 712 978.5 814.5 c 128,-1,27
 971 917 971 917 954 978 c 128,-1,28
 937 1039 937 1039 910 1064 c 128,-1,29
 883 1089 883 1089 845 1089 c 0,30,31
 806 1089 806 1089 779 1064 c 128,-1,32
 752 1039 752 1039 735 978 c 128,-1,33
 718 917 718 917 710.5 814.5 c 128,-1,34
 703 712 703 712 703 556 c 0,35,36
 703 401 703 401 710.5 298.5 c 128,-1,37
 718 196 718 196 735 135 c 128,-1,38
 752 74 752 74 779 49 c 128,-1,39
 806 24 806 24 845 24 c 0,20,21
EndSplineSet
EndChar

StartChar: p
Encoding: 112 112 83
Width: 1885
Flags: W
LayerCount: 2
Fore
SplineSet
256 -327 m 1,0,-1
 256 1041 l 1,1,-1
 81 1041 l 1,2,-1
 81 1113 l 1,3,-1
 851 1113 l 1,4,-1
 851 1033 l 1,5,6
 892 1088 892 1088 966.5 1119.5 c 128,-1,7
 1041 1151 1041 1151 1164 1151 c 0,8,9
 1325 1151 1325 1151 1444 1102.5 c 128,-1,10
 1563 1054 1563 1054 1641 972.5 c 128,-1,11
 1719 891 1719 891 1757.5 783 c 128,-1,12
 1796 675 1796 675 1796 556 c 256,13,14
 1796 437 1796 437 1757.5 329.5 c 128,-1,15
 1719 222 1719 222 1641 140 c 128,-1,16
 1563 58 1563 58 1444 10 c 128,-1,17
 1325 -38 1325 -38 1164 -38 c 0,18,19
 1053 -38 1053 -38 977.5 -10.5 c 128,-1,20
 902 17 902 17 851 59 c 1,21,-1
 851 -327 l 1,22,-1
 1026 -327 l 1,23,-1
 1026 -399 l 1,24,-1
 81 -399 l 1,25,-1
 81 -327 l 1,26,-1
 256 -327 l 1,0,-1
841 314 m 2,27,28
 841 275 841 275 852.5 232 c 128,-1,29
 864 189 864 189 887 153 c 128,-1,30
 910 117 910 117 944.5 93.5 c 128,-1,31
 979 70 979 70 1026 70 c 0,32,33
 1068 70 1068 70 1098 95.5 c 128,-1,34
 1128 121 1128 121 1146.5 178.5 c 128,-1,35
 1165 236 1165 236 1173.5 329 c 128,-1,36
 1182 422 1182 422 1182 556 c 0,37,38
 1182 693 1182 693 1173.5 785 c 128,-1,39
 1165 877 1165 877 1145 933 c 128,-1,40
 1125 989 1125 989 1093 1012.5 c 128,-1,41
 1061 1036 1061 1036 1013 1036 c 0,42,43
 975 1036 975 1036 943.5 1020.5 c 128,-1,44
 912 1005 912 1005 889.5 970.5 c 128,-1,45
 867 936 867 936 854 882 c 128,-1,46
 841 828 841 828 841 750 c 2,47,-1
 841 314 l 2,27,28
EndSplineSet
EndChar

StartChar: q
Encoding: 113 113 84
Width: 1856
Flags: W
LayerCount: 2
Fore
SplineSet
89 556 m 0,0,1
 89 679 89 679 130.5 787 c 128,-1,2
 172 895 172 895 257 976 c 128,-1,3
 342 1057 342 1057 470 1104 c 128,-1,4
 598 1151 598 1151 772 1151 c 0,5,6
 879 1151 879 1151 963 1133 c 128,-1,7
 1047 1115 1047 1115 1111.5 1086 c 128,-1,8
 1176 1057 1176 1057 1222.5 1020.5 c 128,-1,9
 1269 984 1269 984 1302 948 c 1,10,-1
 1630 1151 l 1,11,-1
 1630 -327 l 1,12,-1
 1805 -327 l 1,13,-1
 1805 -399 l 1,14,-1
 860 -399 l 1,15,-1
 860 -327 l 1,16,-1
 1034 -327 l 1,17,-1
 1034 59 l 1,18,19
 984 17 984 17 908 -10.5 c 128,-1,20
 832 -38 832 -38 722 -38 c 0,21,22
 561 -38 561 -38 442 10 c 128,-1,23
 323 58 323 58 244.5 140 c 128,-1,24
 166 222 166 222 127.5 329.5 c 128,-1,25
 89 437 89 437 89 556 c 0,0,1
861 70 m 0,26,27
 907 70 907 70 941.5 93.5 c 128,-1,28
 976 117 976 117 999 153 c 128,-1,29
 1022 189 1022 189 1033 232 c 128,-1,30
 1044 275 1044 275 1044 314 c 2,31,-1
 1044 750 l 2,32,33
 1044 828 1044 828 1031 885 c 128,-1,34
 1018 942 1018 942 995.5 980 c 128,-1,35
 973 1018 973 1018 942 1036.5 c 128,-1,36
 911 1055 911 1055 874 1055 c 0,37,38
 826 1055 826 1055 793 1028.5 c 128,-1,39
 760 1002 760 1002 740 942.5 c 128,-1,40
 720 883 720 883 711.5 788 c 128,-1,41
 703 693 703 693 703 556 c 0,42,43
 703 422 703 422 712 329 c 128,-1,44
 721 236 721 236 740 178.5 c 128,-1,45
 759 121 759 121 789 95.5 c 128,-1,46
 819 70 819 70 861 70 c 0,26,27
EndSplineSet
EndChar

StartChar: r
Encoding: 114 114 85
Width: 1584
Flags: W
LayerCount: 2
Fore
SplineSet
80 72 m 1,0,-1
 255 72 l 1,1,-1
 255 1041 l 1,2,-1
 80 1041 l 1,3,-1
 80 1113 l 1,4,-1
 850 1113 l 1,5,-1
 850 985 l 1,6,7
 882 1024 882 1024 926 1054.5 c 128,-1,8
 970 1085 970 1085 1023.5 1106.5 c 128,-1,9
 1077 1128 1077 1128 1138.5 1139.5 c 128,-1,10
 1200 1151 1200 1151 1266 1151 c 0,11,12
 1335 1151 1335 1151 1390 1134 c 128,-1,13
 1445 1117 1445 1117 1484 1087.5 c 128,-1,14
 1523 1058 1523 1058 1543.5 1017.5 c 128,-1,15
 1564 977 1564 977 1564 930 c 0,16,17
 1564 885 1564 885 1541.5 845 c 128,-1,18
 1519 805 1519 805 1479.5 775 c 128,-1,19
 1440 745 1440 745 1387 727.5 c 128,-1,20
 1334 710 1334 710 1274 710 c 256,21,22
 1214 710 1214 710 1161 727.5 c 128,-1,23
 1108 745 1108 745 1068.5 775 c 128,-1,24
 1029 805 1029 805 1006 845 c 128,-1,25
 983 885 983 885 983 930 c 0,26,27
 983 953 983 953 989.5 975.5 c 128,-1,28
 996 998 996 998 1007 1018 c 1,29,30
 986 1008 986 1008 958.5 987.5 c 128,-1,31
 931 967 931 967 907 937 c 128,-1,32
 883 907 883 907 866.5 867.5 c 128,-1,33
 850 828 850 828 850 782 c 2,34,-1
 850 72 l 1,35,-1
 1044 72 l 1,36,-1
 1044 0 l 1,37,-1
 80 0 l 1,38,-1
 80 72 l 1,0,-1
EndSplineSet
EndChar

StartChar: s
Encoding: 115 115 86
Width: 1560
Flags: W
LayerCount: 2
Fore
SplineSet
123 436 m 1,0,-1
 197 436 l 1,1,2
 240 360 240 360 316 290.5 c 128,-1,3
 392 221 392 221 487.5 167.5 c 128,-1,4
 583 114 583 114 690 82 c 128,-1,5
 797 50 797 50 903 50 c 0,6,7
 947 50 947 50 988 54.5 c 128,-1,8
 1029 59 1029 59 1060 71.5 c 128,-1,9
 1091 84 1091 84 1109.5 105 c 128,-1,10
 1128 126 1128 126 1128 159 c 0,11,12
 1128 193 1128 193 1097.5 215.5 c 128,-1,13
 1067 238 1067 238 1015 253 c 128,-1,14
 963 268 963 268 895.5 278 c 128,-1,15
 828 288 828 288 755 298 c 0,16,17
 623 315 623 315 508 343 c 128,-1,18
 393 371 393 371 308 420 c 128,-1,19
 223 469 223 469 174.5 544 c 128,-1,20
 126 619 126 619 126 730 c 0,21,22
 126 832 126 832 171.5 910.5 c 128,-1,23
 217 989 217 989 298 1042.5 c 128,-1,24
 379 1096 379 1096 490 1123.5 c 128,-1,25
 601 1151 601 1151 732 1151 c 0,26,27
 794 1151 794 1151 857.5 1139 c 128,-1,28
 921 1127 921 1127 980.5 1107.5 c 128,-1,29
 1040 1088 1040 1088 1093.5 1062.5 c 128,-1,30
 1147 1037 1147 1037 1190 1011 c 1,31,-1
 1324 1139 l 1,32,-1
 1407 1139 l 1,33,-1
 1407 745 l 1,34,-1
 1336 745 l 1,35,36
 1295 814 1295 814 1232.5 873 c 128,-1,37
 1170 932 1170 932 1091 975 c 128,-1,38
 1012 1018 1012 1018 920 1042.5 c 128,-1,39
 828 1067 828 1067 728 1067 c 0,40,41
 679 1067 679 1067 638 1062 c 128,-1,42
 597 1057 597 1057 567 1046 c 128,-1,43
 537 1035 537 1035 520.5 1017 c 128,-1,44
 504 999 504 999 504 974 c 0,45,46
 504 940 504 940 529 918 c 128,-1,47
 554 896 554 896 603.5 879.5 c 128,-1,48
 653 863 653 863 726 850 c 128,-1,49
 799 837 799 837 896 822 c 0,50,51
 1019 802 1019 802 1125 773 c 128,-1,52
 1231 744 1231 744 1308.5 694 c 128,-1,53
 1386 644 1386 644 1430.5 567 c 128,-1,54
 1475 490 1475 490 1475 373 c 0,55,56
 1475 278 1475 278 1438.5 201.5 c 128,-1,57
 1402 125 1402 125 1330.5 72 c 128,-1,58
 1259 19 1259 19 1154 -9.5 c 128,-1,59
 1049 -38 1049 -38 913 -38 c 0,60,61
 849 -38 849 -38 775 -25.5 c 128,-1,62
 701 -13 701 -13 628.5 10.5 c 128,-1,63
 556 34 556 34 491 67.5 c 128,-1,64
 426 101 426 101 381 143 c 1,65,-1
 206 -23 l 1,66,-1
 123 -23 l 1,67,-1
 123 436 l 1,0,-1
EndSplineSet
EndChar

StartChar: t
Encoding: 116 116 87
Width: 1237
Flags: W
LayerCount: 2
Fore
SplineSet
198 1041 m 1,0,-1
 23 1041 l 1,1,-1
 23 1113 l 1,2,-1
 198 1113 l 2,3,4
 299 1113 299 1113 379.5 1147.5 c 128,-1,5
 460 1182 460 1182 516.5 1237.5 c 128,-1,6
 573 1293 573 1293 603 1362 c 128,-1,7
 633 1431 633 1431 633 1500 c 1,8,-1
 793 1500 l 1,9,-1
 793 1113 l 1,10,-1
 1115 1113 l 1,11,-1
 1115 1041 l 1,12,-1
 793 1041 l 1,13,-1
 793 425 l 2,14,15
 793 318 793 318 804.5 250.5 c 128,-1,16
 816 183 816 183 837.5 145 c 128,-1,17
 859 107 859 107 888.5 93.5 c 128,-1,18
 918 80 918 80 954 80 c 0,19,20
 989 80 989 80 1022 95.5 c 128,-1,21
 1055 111 1055 111 1080 145.5 c 128,-1,22
 1105 180 1105 180 1120 235.5 c 128,-1,23
 1135 291 1135 291 1135 372 c 0,24,25
 1135 391 1135 391 1134 411.5 c 128,-1,26
 1133 432 1133 432 1131 454 c 1,27,-1
 1215 454 l 1,28,29
 1218 404 1218 404 1218 363 c 0,30,31
 1218 238 1218 238 1183.5 159.5 c 128,-1,32
 1149 81 1149 81 1085 37 c 128,-1,33
 1021 -7 1021 -7 929.5 -23 c 128,-1,34
 838 -39 838 -39 724 -39 c 0,35,36
 596 -39 596 -39 498 -14 c 128,-1,37
 400 11 400 11 333 65.5 c 128,-1,38
 266 120 266 120 232 206 c 128,-1,39
 198 292 198 292 198 415 c 2,40,-1
 198 1041 l 1,0,-1
EndSplineSet
EndChar

StartChar: u
Encoding: 117 117 88
Width: 1909
Flags: W
LayerCount: 2
Fore
SplineSet
208 1041 m 1,0,-1
 33 1041 l 1,1,-1
 33 1113 l 1,2,-1
 803 1113 l 1,3,-1
 803 466 l 2,4,5
 803 363 803 363 809 297.5 c 128,-1,6
 815 232 815 232 830 194.5 c 128,-1,7
 845 157 845 157 870 142.5 c 128,-1,8
 895 128 895 128 933 128 c 256,9,10
 971 128 971 128 1000 144 c 128,-1,11
 1029 160 1029 160 1048.5 189 c 128,-1,12
 1068 218 1068 218 1077.5 258 c 128,-1,13
 1087 298 1087 298 1087 345 c 2,14,-1
 1087 1041 l 1,15,-1
 940 1041 l 1,16,-1
 940 1113 l 1,17,-1
 1682 1113 l 1,18,-1
 1682 72 l 1,19,-1
 1856 72 l 1,20,-1
 1856 0 l 1,21,-1
 1087 0 l 1,22,-1
 1087 128 l 1,23,24
 1055 89 1055 89 1009.5 58 c 128,-1,25
 964 27 964 27 909.5 5.5 c 128,-1,26
 855 -16 855 -16 792.5 -27 c 128,-1,27
 730 -38 730 -38 664 -38 c 0,28,29
 527 -38 527 -38 438.5 -2.5 c 128,-1,30
 350 33 350 33 299 98.5 c 128,-1,31
 248 164 248 164 228 257 c 128,-1,32
 208 350 208 350 208 466 c 2,33,-1
 208 1041 l 1,0,-1
EndSplineSet
EndChar

StartChar: v
Encoding: 118 118 89
Width: 1568
Flags: W
LayerCount: 2
Fore
SplineSet
165 1041 m 1,0,-1
 -9 1041 l 1,1,-1
 -9 1113 l 1,2,-1
 923 1113 l 1,3,-1
 923 1041 l 1,4,-1
 789 1041 l 1,5,-1
 1062 364 l 1,6,7
 1083 419 1083 419 1108 484.5 c 128,-1,8
 1133 550 1133 550 1158.5 617 c 128,-1,9
 1184 684 1184 684 1208 747 c 128,-1,10
 1232 810 1232 810 1251 860 c 128,-1,11
 1270 910 1270 910 1282 943 c 128,-1,12
 1294 976 1294 976 1296 982 c 0,13,14
 1299 989 1299 989 1299 994 c 0,15,16
 1299 1007 1299 1007 1285.5 1016 c 128,-1,17
 1272 1025 1272 1025 1247.5 1030.5 c 128,-1,18
 1223 1036 1223 1036 1189.5 1038.5 c 128,-1,19
 1156 1041 1156 1041 1116 1041 c 1,20,-1
 1116 1113 l 1,21,-1
 1582 1113 l 1,22,-1
 1582 1041 l 1,23,24
 1538 1041 1538 1041 1506.5 1037.5 c 128,-1,25
 1475 1034 1475 1034 1453.5 1026.5 c 128,-1,26
 1432 1019 1432 1019 1418.5 1007 c 128,-1,27
 1405 995 1405 995 1398 978 c 0,28,29
 1390 961 1390 961 1373 916.5 c 128,-1,30
 1356 872 1356 872 1332 810 c 128,-1,31
 1308 748 1308 748 1279.5 672.5 c 128,-1,32
 1251 597 1251 597 1221 517 c 128,-1,33
 1191 437 1191 437 1161.5 358 c 128,-1,34
 1132 279 1132 279 1106.5 210 c 128,-1,35
 1081 141 1081 141 1061 86 c 128,-1,36
 1041 31 1041 31 1030 0 c 1,37,-1
 601 0 l 1,38,-1
 165 1041 l 1,0,-1
EndSplineSet
EndChar

StartChar: w
Encoding: 119 119 90
Width: 2333
Flags: W
LayerCount: 2
Fore
SplineSet
165 1041 m 1,0,-1
 -9 1041 l 1,1,-1
 -9 1113 l 1,2,-1
 885 1113 l 1,3,-1
 885 1041 l 1,4,-1
 798 1041 l 1,5,-1
 981 403 l 1,6,-1
 1125 915 l 1,7,-1
 1081 1041 l 1,8,-1
 954 1041 l 1,9,-1
 954 1113 l 1,10,-1
 1802 1113 l 1,11,-1
 1802 1041 l 1,12,-1
 1715 1041 l 1,13,-1
 1898 403 l 1,14,15
 1914 459 1914 459 1932 521.5 c 128,-1,16
 1950 584 1950 584 1968 646.5 c 128,-1,17
 1986 709 1986 709 2002 766.5 c 128,-1,18
 2018 824 2018 824 2031 870 c 128,-1,19
 2044 916 2044 916 2052 945.5 c 128,-1,20
 2060 975 2060 975 2062 981 c 0,21,22
 2064 989 2064 989 2064 994 c 0,23,24
 2064 1007 2064 1007 2050.5 1016 c 128,-1,25
 2037 1025 2037 1025 2013 1030.5 c 128,-1,26
 1989 1036 1989 1036 1955.5 1038.5 c 128,-1,27
 1922 1041 1922 1041 1882 1041 c 1,28,-1
 1882 1113 l 1,29,-1
 2348 1113 l 1,30,-1
 2348 1041 l 1,31,32
 2304 1041 2304 1041 2272 1037.5 c 128,-1,33
 2240 1034 2240 1034 2218.5 1026.5 c 128,-1,34
 2197 1019 2197 1019 2183.5 1007 c 128,-1,35
 2170 995 2170 995 2163 978 c 256,36,37
 2156 961 2156 961 2141.5 918 c 128,-1,38
 2127 875 2127 875 2108 814.5 c 128,-1,39
 2089 754 2089 754 2066.5 680 c 128,-1,40
 2044 606 2044 606 2021 528 c 128,-1,41
 1998 450 1998 450 1975 371.5 c 128,-1,42
 1952 293 1952 293 1932 222.5 c 128,-1,43
 1912 152 1912 152 1896 94.5 c 128,-1,44
 1880 37 1880 37 1871 0 c 1,45,-1
 1442 0 l 1,46,-1
 1176 768 l 1,47,-1
 954 0 l 1,48,-1
 525 0 l 1,49,-1
 165 1041 l 1,0,-1
EndSplineSet
EndChar

StartChar: x
Encoding: 120 120 91
Width: 1695
Flags: W
LayerCount: 2
Fore
SplineSet
0 72 m 1,0,1
 44 72 44 72 74.5 76.5 c 128,-1,2
 105 81 105 81 126 89 c 128,-1,3
 147 97 147 97 160 108.5 c 128,-1,4
 173 120 173 120 184 135 c 2,5,-1
 519 594 l 1,6,-1
 222 1041 l 1,7,-1
 47 1041 l 1,8,-1
 47 1113 l 1,9,-1
 1008 1113 l 1,10,-1
 1008 1041 l 1,11,-1
 874 1041 l 1,12,-1
 1123 667 l 1,13,14
 1145 697 1145 697 1170 730.5 c 128,-1,15
 1195 764 1195 764 1219 797.5 c 128,-1,16
 1243 831 1243 831 1266 862 c 128,-1,17
 1289 893 1289 893 1307 918 c 128,-1,18
 1325 943 1325 943 1337 960 c 128,-1,19
 1349 977 1349 977 1352 982 c 0,20,21
 1356 989 1356 989 1356 994 c 0,22,23
 1356 1007 1356 1007 1342.5 1016 c 128,-1,24
 1329 1025 1329 1025 1304.5 1030.5 c 128,-1,25
 1280 1036 1280 1036 1246.5 1038.5 c 128,-1,26
 1213 1041 1213 1041 1173 1041 c 1,27,-1
 1173 1113 l 1,28,-1
 1648 1113 l 1,29,-1
 1648 1041 l 1,30,31
 1604 1041 1604 1041 1573.5 1036.5 c 128,-1,32
 1543 1032 1543 1032 1522 1024 c 128,-1,33
 1501 1016 1501 1016 1487.5 1004.5 c 128,-1,34
 1474 993 1474 993 1464 978 c 0,35,36
 1448 955 1448 955 1416.5 911.5 c 128,-1,37
 1385 868 1385 868 1345 813 c 128,-1,38
 1305 758 1305 758 1261.5 698 c 128,-1,39
 1218 638 1218 638 1178 584 c 1,40,-1
 1519 72 l 1,41,-1
 1695 72 l 1,42,-1
 1695 0 l 1,43,-1
 733 0 l 1,44,-1
 733 72 l 1,45,-1
 866 72 l 1,46,-1
 573 512 l 1,47,48
 553 485 553 485 525.5 448 c 128,-1,49
 498 411 498 411 468.5 371 c 128,-1,50
 439 331 439 331 410 291 c 128,-1,51
 381 251 381 251 357 217.5 c 128,-1,52
 333 184 333 184 316.5 160.5 c 128,-1,53
 300 137 300 137 296 131 c 0,54,55
 294 127 294 127 293.5 124.5 c 128,-1,56
 293 122 293 122 293 119 c 0,57,58
 293 106 293 106 306.5 97 c 128,-1,59
 320 88 320 88 344.5 82.5 c 128,-1,60
 369 77 369 77 402.5 74.5 c 128,-1,61
 436 72 436 72 476 72 c 1,62,-1
 476 0 l 1,63,-1
 0 0 l 1,64,-1
 0 72 l 1,0,1
EndSplineSet
EndChar

StartChar: y
Encoding: 121 121 92
Width: 1571
Flags: W
LayerCount: 2
Fore
SplineSet
27 -248 m 0,0,1
 27 -209 27 -209 46.5 -174.5 c 128,-1,2
 66 -140 66 -140 100 -114.5 c 128,-1,3
 134 -89 134 -89 179.5 -74 c 128,-1,4
 225 -59 225 -59 277 -59 c 0,5,6
 327 -59 327 -59 372 -73 c 128,-1,7
 417 -87 417 -87 451.5 -111 c 128,-1,8
 486 -135 486 -135 506 -168 c 128,-1,9
 526 -201 526 -201 526 -239 c 0,10,11
 526 -274 526 -274 508.5 -306 c 128,-1,12
 491 -338 491 -338 459 -355 c 1,13,14
 548 -347 548 -347 618.5 -301.5 c 128,-1,15
 689 -256 689 -256 746 -175 c 1,16,-1
 165 1041 l 1,17,-1
 -9 1041 l 1,18,-1
 -9 1113 l 1,19,-1
 923 1113 l 1,20,-1
 923 1041 l 1,21,-1
 789 1041 l 1,22,-1
 1053 430 l 1,23,24
 1078 485 1078 485 1105.5 545.5 c 128,-1,25
 1133 606 1133 606 1159.5 665.5 c 128,-1,26
 1186 725 1186 725 1210 779.5 c 128,-1,27
 1234 834 1234 834 1252.5 877 c 128,-1,28
 1271 920 1271 920 1282.5 948 c 128,-1,29
 1294 976 1294 976 1296 982 c 0,30,31
 1299 989 1299 989 1299 994 c 0,32,33
 1299 1007 1299 1007 1285.5 1016 c 128,-1,34
 1272 1025 1272 1025 1247.5 1030.5 c 128,-1,35
 1223 1036 1223 1036 1189.5 1038.5 c 128,-1,36
 1156 1041 1156 1041 1116 1041 c 1,37,-1
 1116 1113 l 1,38,-1
 1582 1113 l 1,39,-1
 1582 1041 l 1,40,41
 1538 1041 1538 1041 1506.5 1037.5 c 128,-1,42
 1475 1034 1475 1034 1453 1026.5 c 128,-1,43
 1431 1019 1431 1019 1418 1007 c 128,-1,44
 1405 995 1405 995 1398 978 c 0,45,46
 1394 968 1394 968 1371.5 917 c 128,-1,47
 1349 866 1349 866 1313 787 c 128,-1,48
 1277 708 1277 708 1231 607 c 128,-1,49
 1185 506 1185 506 1133 396 c 128,-1,50
 1081 286 1081 286 1027 174 c 128,-1,51
 973 62 973 62 921 -40 c 0,52,53
 873 -135 873 -135 821.5 -209 c 128,-1,54
 770 -283 770 -283 702.5 -333.5 c 128,-1,55
 635 -384 635 -384 546 -410.5 c 128,-1,56
 457 -437 457 -437 334 -437 c 0,57,58
 272 -437 272 -437 216 -427 c 128,-1,59
 160 -417 160 -417 118 -395 c 128,-1,60
 76 -373 76 -373 51.5 -337 c 128,-1,61
 27 -301 27 -301 27 -248 c 0,0,1
EndSplineSet
EndChar

StartChar: z
Encoding: 122 122 93
Width: 1651
Flags: W
LayerCount: 2
Fore
SplineSet
104 72 m 1,0,-1
 824 1041 l 1,1,-1
 472 1041 l 2,2,3
 461 1041 461 1041 443 1021 c 128,-1,4
 425 1001 425 1001 404 969 c 128,-1,5
 383 937 383 937 360.5 896.5 c 128,-1,6
 338 856 338 856 317 815.5 c 128,-1,7
 296 775 296 775 279 738 c 128,-1,8
 262 701 262 701 252 676 c 1,9,-1
 155 676 l 1,10,-1
 155 1113 l 1,11,-1
 1516 1113 l 1,12,-1
 1516 1041 l 1,13,-1
 803 72 l 1,14,-1
 1173 72 l 2,15,16
 1190 72 1190 72 1212.5 93.5 c 128,-1,17
 1235 115 1235 115 1259.5 148.5 c 128,-1,18
 1284 182 1284 182 1309 223.5 c 128,-1,19
 1334 265 1334 265 1356 305.5 c 128,-1,20
 1378 346 1378 346 1395 381 c 128,-1,21
 1412 416 1412 416 1422 437 c 1,22,-1
 1518 437 l 1,23,-1
 1518 0 l 1,24,-1
 104 0 l 1,25,-1
 104 72 l 1,0,-1
EndSplineSet
EndChar

StartChar: braceleft
Encoding: 123 123 94
Width: 946
Flags: W
LayerCount: 2
Fore
SplineSet
272 86 m 0,0,1
 272 127 272 127 273 167.5 c 128,-1,2
 274 208 274 208 276 260 c 0,3,4
 279 335 279 335 279 400 c 0,5,6
 279 455 279 455 273.5 504.5 c 128,-1,7
 268 554 268 554 253 591 c 128,-1,8
 238 628 238 628 211 649.5 c 128,-1,9
 184 671 184 671 140 671 c 1,10,-1
 140 745 l 1,11,12
 184 745 184 745 211 766.5 c 128,-1,13
 238 788 238 788 253 825 c 128,-1,14
 268 862 268 862 273.5 911.5 c 128,-1,15
 279 961 279 961 279 1016 c 0,16,17
 279 1081 279 1081 276 1156 c 0,18,19
 274 1208 274 1208 273 1248.5 c 128,-1,20
 272 1289 272 1289 272 1330 c 0,21,22
 272 1439 272 1439 312.5 1503 c 128,-1,23
 353 1567 353 1567 429 1600 c 128,-1,24
 505 1633 505 1633 614.5 1643 c 128,-1,25
 724 1653 724 1653 862 1653 c 1,26,-1
 862 1584 l 1,27,28
 806 1584 806 1584 771.5 1573.5 c 128,-1,29
 737 1563 737 1563 718 1536.5 c 128,-1,30
 699 1510 699 1510 692.5 1465 c 128,-1,31
 686 1420 686 1420 686 1350 c 0,32,33
 686 1304 686 1304 687 1261.5 c 128,-1,34
 688 1219 688 1219 690 1177 c 0,35,36
 692 1124 692 1124 693 1084.5 c 128,-1,37
 694 1045 694 1045 694 1002 c 0,38,39
 694 935 694 935 666.5 884.5 c 128,-1,40
 639 834 639 834 595 798 c 128,-1,41
 551 762 551 762 495.5 740 c 128,-1,42
 440 718 440 718 383 708 c 1,43,44
 440 698 440 698 495.5 676 c 128,-1,45
 551 654 551 654 595 618 c 128,-1,46
 639 582 639 582 666.5 531.5 c 128,-1,47
 694 481 694 481 694 414 c 0,48,49
 694 371 694 371 693 331.5 c 128,-1,50
 692 292 692 292 690 239 c 0,51,52
 688 197 688 197 687 154.5 c 128,-1,53
 686 112 686 112 686 66 c 0,54,55
 686 -4 686 -4 692.5 -49 c 128,-1,56
 699 -94 699 -94 718 -120.5 c 128,-1,57
 737 -147 737 -147 771.5 -157.5 c 128,-1,58
 806 -168 806 -168 862 -168 c 1,59,-1
 862 -237 l 1,60,61
 724 -237 724 -237 614.5 -227 c 128,-1,62
 505 -217 505 -217 429 -184 c 128,-1,63
 353 -151 353 -151 312.5 -87 c 128,-1,64
 272 -23 272 -23 272 86 c 0,0,1
EndSplineSet
EndChar

StartChar: bar
Encoding: 124 124 95
Width: 527
Flags: W
LayerCount: 2
Fore
SplineSet
212 1824 m 1,0,-1
 315 1824 l 1,1,-1
 315 -590 l 1,2,-1
 212 -590 l 1,3,-1
 212 1824 l 1,0,-1
EndSplineSet
EndChar

StartChar: braceright
Encoding: 125 125 96
Width: 946
Flags: W
LayerCount: 2
Fore
SplineSet
140 -168 m 1,0,1
 209 -147 209 -147 228 -120.5 c 128,-1,2
 247 -94 247 -94 253.5 -49 c 128,-1,3
 260 -4 260 -4 260 66 c 0,4,5
 260 112 260 112 259 154.5 c 128,-1,6
 258 197 258 197 256 239 c 0,7,8
 254 292 254 292 253 331.5 c 128,-1,9
 252 371 252 371 252 414 c 0,10,11
 252 481 252 481 279.5 531.5 c 128,-1,12
 307 582 307 582 351 618 c 128,-1,13
 395 654 395 654 450.5 676 c 128,-1,14
 506 698 506 698 563 708 c 1,15,16
 506 718 506 718 450.5 740 c 128,-1,17
 395 762 395 762 351 798 c 128,-1,18
 307 834 307 834 279.5 884.5 c 128,-1,19
 252 935 252 935 252 1002 c 0,20,21
 252 1045 252 1045 253 1084.5 c 128,-1,22
 254 1124 254 1124 256 1177 c 0,23,24
 258 1219 258 1219 259 1261.5 c 128,-1,25
 260 1304 260 1304 260 1350 c 0,26,27
 260 1420 260 1420 253.5 1465 c 128,-1,28
 247 1510 247 1510 228 1536.5 c 128,-1,29
 209 1563 209 1563 174.5 1573.5 c 128,-1,30
 140 1584 140 1584 84 1584 c 1,31,-1
 84 1653 l 1,32,33
 222 1653 222 1653 331.5 1643 c 128,-1,34
 441 1633 441 1633 517 1600 c 128,-1,35
 593 1567 593 1567 633.5 1503 c 128,-1,36
 674 1439 674 1439 674 1330 c 0,37,38
 674 1289 674 1289 673 1248.5 c 128,-1,39
 672 1208 672 1208 670 1156 c 0,40,41
 667 1081 667 1081 667 1016 c 0,42,43
 667 961 667 961 672.5 911.5 c 128,-1,44
 678 862 678 862 693 825 c 128,-1,45
 708 788 708 788 735 766.5 c 128,-1,46
 762 745 762 745 806 745 c 1,47,-1
 806 671 l 1,48,49
 762 671 762 671 735 649.5 c 128,-1,50
 708 628 708 628 693 591 c 128,-1,51
 678 554 678 554 672.5 504.5 c 128,-1,52
 667 455 667 455 667 400 c 0,53,54
 667 335 667 335 670 260 c 0,55,56
 672 208 672 208 673 167.5 c 128,-1,57
 674 127 674 127 674 86 c 0,58,59
 674 -23 674 -23 633.5 -87 c 128,-1,60
 593 -151 593 -151 517 -184 c 128,-1,61
 441 -217 441 -217 331.5 -227 c 128,-1,62
 222 -237 222 -237 84 -237 c 1,63,-1
 84 -168 l 1,64,-1
 140 -168 l 1,0,1
EndSplineSet
EndChar

StartChar: asciitilde
Encoding: 126 126 97
Width: 1488
Flags: W
LayerCount: 2
Fore
SplineSet
141 699 m 1,0,1
 172 735 172 735 218.5 770.5 c 128,-1,2
 265 806 265 806 320 834 c 128,-1,3
 375 862 375 862 434 879 c 128,-1,4
 493 896 493 896 549 896 c 0,5,6
 614 896 614 896 666.5 878.5 c 128,-1,7
 719 861 719 861 773 839 c 0,8,9
 822 819 822 819 875.5 803.5 c 128,-1,10
 929 788 929 788 996 788 c 0,11,12
 1073 788 1073 788 1151.5 803.5 c 128,-1,13
 1230 819 1230 819 1302 842 c 1,14,-1
 1347 788 l 1,15,16
 1316 752 1316 752 1269.5 716.5 c 128,-1,17
 1223 681 1223 681 1168 653 c 128,-1,18
 1113 625 1113 625 1053.5 608 c 128,-1,19
 994 591 994 591 939 591 c 0,20,21
 873 591 873 591 819 609 c 128,-1,22
 765 627 765 627 711 650 c 0,23,24
 663 670 663 670 610.5 684.5 c 128,-1,25
 558 699 558 699 492 699 c 0,26,27
 415 699 415 699 336.5 683.5 c 128,-1,28
 258 668 258 668 186 645 c 1,29,-1
 141 699 l 1,0,1
EndSplineSet
EndChar

StartChar: exclamdown
Encoding: 161 161 98
Width: 912
Flags: W
LayerCount: 2
Fore
SplineSet
467 517 m 0,0,1
 411 517 411 517 362 538 c 128,-1,2
 313 559 313 559 276 595.5 c 128,-1,3
 239 632 239 632 218 681.5 c 128,-1,4
 197 731 197 731 197 787 c 0,5,6
 197 842 197 842 218 891 c 128,-1,7
 239 940 239 940 276 977 c 128,-1,8
 313 1014 313 1014 362 1035 c 128,-1,9
 411 1056 411 1056 467 1056 c 0,10,11
 522 1056 522 1056 571 1035 c 128,-1,12
 620 1014 620 1014 657 977 c 128,-1,13
 694 940 694 940 715 891 c 128,-1,14
 736 842 736 842 736 787 c 0,15,16
 736 731 736 731 715 681.5 c 128,-1,17
 694 632 694 632 657 595.5 c 128,-1,18
 620 559 620 559 571 538 c 128,-1,19
 522 517 522 517 467 517 c 0,0,1
136 -177 m 0,20,21
 136 -115 136 -115 155.5 -52.5 c 128,-1,22
 175 10 175 10 206.5 71.5 c 128,-1,23
 238 133 238 133 277.5 191.5 c 128,-1,24
 317 250 317 250 356 305 c 0,25,26
 385 345 385 345 410.5 382 c 128,-1,27
 436 419 436 419 457 454 c 1,28,29
 477 420 477 420 502.5 383 c 128,-1,30
 528 346 528 346 556 306 c 0,31,32
 595 251 595 251 634 192.5 c 128,-1,33
 673 134 673 134 704.5 72.5 c 128,-1,34
 736 11 736 11 756 -51.5 c 128,-1,35
 776 -114 776 -114 776 -177 c 0,36,37
 776 -245 776 -245 750.5 -294.5 c 128,-1,38
 725 -344 725 -344 681 -375.5 c 128,-1,39
 637 -407 637 -407 579 -422 c 128,-1,40
 521 -437 521 -437 457 -437 c 0,41,42
 391 -437 391 -437 333 -422 c 128,-1,43
 275 -407 275 -407 231 -375.5 c 128,-1,44
 187 -344 187 -344 161.5 -294.5 c 128,-1,45
 136 -245 136 -245 136 -177 c 0,20,21
EndSplineSet
EndChar

StartChar: cent
Encoding: 162 162 99
Width: 1589
Flags: W
LayerCount: 2
Fore
SplineSet
89 567 m 0,0,1
 89 698 89 698 142 806 c 128,-1,2
 195 914 195 914 288.5 990.5 c 128,-1,3
 382 1067 382 1067 510 1109 c 128,-1,4
 638 1151 638 1151 789 1151 c 2,5,-1
 803 1151 l 1,6,-1
 803 1303 l 1,7,-1
 906 1303 l 1,8,-1
 906 1147 l 1,9,10
 1057 1137 1057 1137 1170 1103.5 c 128,-1,11
 1283 1070 1283 1070 1358 1023 c 128,-1,12
 1433 976 1433 976 1470.5 919.5 c 128,-1,13
 1508 863 1508 863 1508 806 c 0,14,15
 1508 762 1508 762 1486 724 c 128,-1,16
 1464 686 1464 686 1426.5 657.5 c 128,-1,17
 1389 629 1389 629 1339 612.5 c 128,-1,18
 1289 596 1289 596 1232 596 c 0,19,20
 1174 596 1174 596 1123 612.5 c 128,-1,21
 1072 629 1072 629 1034.5 657.5 c 128,-1,22
 997 686 997 686 975 724 c 128,-1,23
 953 762 953 762 953 806 c 0,24,25
 953 847 953 847 972.5 883.5 c 128,-1,26
 992 920 992 920 1026.5 948 c 128,-1,27
 1061 976 1061 976 1107.5 994 c 128,-1,28
 1154 1012 1154 1012 1208 1015 c 1,29,30
 1139 1035 1139 1035 1073.5 1046 c 128,-1,31
 1008 1057 1008 1057 959 1057 c 0,32,33
 945 1057 945 1057 931.5 1056 c 128,-1,34
 918 1055 918 1055 906 1053 c 1,35,-1
 906 63 l 1,36,37
 914 62 914 62 922.5 62 c 128,-1,38
 931 62 931 62 940 62 c 0,39,40
 1024 62 1024 62 1098 83 c 128,-1,41
 1172 104 1172 104 1230.5 142.5 c 128,-1,42
 1289 181 1289 181 1328 235.5 c 128,-1,43
 1367 290 1367 290 1381 358 c 1,44,-1
 1475 358 l 1,45,46
 1465 268 1465 268 1420 196 c 128,-1,47
 1375 124 1375 124 1300.5 73 c 128,-1,48
 1226 22 1226 22 1126 -6 c 128,-1,49
 1026 -34 1026 -34 906 -37 c 1,50,-1
 906 -200 l 1,51,-1
 803 -200 l 1,52,-1
 803 -36 l 1,53,54
 627 -28 627 -28 493.5 16.5 c 128,-1,55
 360 61 360 61 270 138 c 128,-1,56
 180 215 180 215 134.5 323 c 128,-1,57
 89 431 89 431 89 567 c 0,0,1
803 1009 m 1,58,59
 776 986 776 986 755.5 948.5 c 128,-1,60
 735 911 735 911 721.5 856 c 128,-1,61
 708 801 708 801 701.5 727 c 128,-1,62
 695 653 695 653 695 556 c 0,63,64
 695 452 695 452 701 375 c 128,-1,65
 707 298 707 298 720.5 242.5 c 128,-1,66
 734 187 734 187 754 151.5 c 128,-1,67
 774 116 774 116 803 96 c 1,68,-1
 803 1009 l 1,58,59
EndSplineSet
EndChar

StartChar: sterling
Encoding: 163 163 100
Width: 1835
Flags: W
LayerCount: 2
Fore
SplineSet
132 187 m 0,0,1
 132 239 132 239 153.5 277 c 128,-1,2
 175 315 175 315 210.5 340.5 c 128,-1,3
 246 366 246 366 292 378.5 c 128,-1,4
 338 391 338 391 387 391 c 0,5,6
 412 391 412 391 440 389.5 c 128,-1,7
 468 388 468 388 500 386 c 1,8,-1
 448 467 l 1,9,-1
 164 467 l 1,10,-1
 164 570 l 1,11,-1
 386 570 l 1,12,13
 372 597 372 597 358 625 c 128,-1,14
 344 653 344 653 331 683 c 1,15,-1
 164 683 l 1,16,-1
 164 786 l 1,17,-1
 296 786 l 1,18,19
 284 830 284 830 277 876 c 128,-1,20
 270 922 270 922 270 971 c 0,21,22
 270 1062 270 1062 294.5 1133.5 c 128,-1,23
 319 1205 319 1205 364 1258.5 c 128,-1,24
 409 1312 409 1312 471 1349.5 c 128,-1,25
 533 1387 533 1387 608 1410.5 c 128,-1,26
 683 1434 683 1434 768 1444.5 c 128,-1,27
 853 1455 853 1455 944 1455 c 0,28,29
 1122 1455 1122 1455 1264 1429 c 128,-1,30
 1406 1403 1406 1403 1505.5 1354 c 128,-1,31
 1605 1305 1605 1305 1658.5 1235 c 128,-1,32
 1712 1165 1712 1165 1712 1077 c 0,33,34
 1712 1020 1712 1020 1685 976.5 c 128,-1,35
 1658 933 1658 933 1614.5 903.5 c 128,-1,36
 1571 874 1571 874 1516.5 859 c 128,-1,37
 1462 844 1462 844 1407 844 c 0,38,39
 1344 844 1344 844 1288.5 862 c 128,-1,40
 1233 880 1233 880 1192 911.5 c 128,-1,41
 1151 943 1151 943 1127 985 c 128,-1,42
 1103 1027 1103 1027 1103 1075 c 0,43,44
 1103 1121 1103 1121 1123 1162 c 128,-1,45
 1143 1203 1143 1203 1179 1233.5 c 128,-1,46
 1215 1264 1215 1264 1266 1281.5 c 128,-1,47
 1317 1299 1317 1299 1380 1299 c 0,48,49
 1403 1299 1403 1299 1425 1296.5 c 128,-1,50
 1447 1294 1447 1294 1469 1288 c 1,51,52
 1406 1317 1406 1317 1313 1337 c 128,-1,53
 1220 1357 1220 1357 1120 1357 c 0,54,55
 1045 1357 1045 1357 996.5 1339 c 128,-1,56
 948 1321 948 1321 919.5 1289.5 c 128,-1,57
 891 1258 891 1258 880 1215.5 c 128,-1,58
 869 1173 869 1173 869 1123 c 0,59,60
 869 1070 869 1070 870.5 1026.5 c 128,-1,61
 872 983 872 983 875 943.5 c 128,-1,62
 878 904 878 904 882 866 c 128,-1,63
 886 828 886 828 891 786 c 1,64,-1
 1222 786 l 1,65,-1
 1222 683 l 1,66,-1
 897 683 l 1,67,68
 898 665 898 665 898 645.5 c 128,-1,69
 898 626 898 626 898 605 c 0,70,71
 898 596 898 596 898 587 c 128,-1,72
 898 578 898 578 897 570 c 1,73,-1
 1222 570 l 1,74,-1
 1222 467 l 1,75,-1
 888 467 l 1,76,77
 883 436 883 436 876 408 c 128,-1,78
 869 380 869 380 861 353 c 1,79,80
 946 345 946 345 1029.5 340 c 128,-1,81
 1113 335 1113 335 1191 335 c 0,82,83
 1261 335 1261 335 1334.5 339 c 128,-1,84
 1408 343 1408 343 1471.5 357.5 c 128,-1,85
 1535 372 1535 372 1582 399.5 c 128,-1,86
 1629 427 1629 427 1648 474 c 1,87,-1
 1713 474 l 1,88,89
 1717 439 1717 439 1719.5 406 c 128,-1,90
 1722 373 1722 373 1722 344 c 0,91,92
 1722 255 1722 255 1701 184.5 c 128,-1,93
 1680 114 1680 114 1633 64.5 c 128,-1,94
 1586 15 1586 15 1511 -11.5 c 128,-1,95
 1436 -38 1436 -38 1328 -38 c 0,96,97
 1247 -38 1247 -38 1169.5 -22 c 128,-1,98
 1092 -6 1092 -6 1020 20.5 c 128,-1,99
 948 47 948 47 881 80 c 128,-1,100
 814 113 814 113 754 147 c 1,101,102
 680 53 680 53 601.5 7.5 c 128,-1,103
 523 -38 523 -38 423 -38 c 0,104,105
 355 -38 355 -38 301.5 -20.5 c 128,-1,106
 248 -3 248 -3 210 27 c 128,-1,107
 172 57 172 57 152 98 c 128,-1,108
 132 139 132 139 132 187 c 0,0,1
291 189 m 0,109,110
 291 152 291 152 303.5 125 c 128,-1,111
 316 98 316 98 337 80 c 128,-1,112
 358 62 358 62 385 53.5 c 128,-1,113
 412 45 412 45 441 45 c 256,114,115
 470 45 470 45 497.5 53.5 c 128,-1,116
 525 62 525 62 547 79 c 128,-1,117
 569 96 569 96 582 121.5 c 128,-1,118
 595 147 595 147 595 180 c 0,119,120
 595 214 595 214 578 249 c 1,121,122
 527 278 527 278 485.5 296.5 c 128,-1,123
 444 315 444 315 414 315 c 0,124,125
 389 315 389 315 367 306 c 128,-1,126
 345 297 345 297 328 280.5 c 128,-1,127
 311 264 311 264 301 241 c 128,-1,128
 291 218 291 218 291 189 c 0,109,110
EndSplineSet
EndChar

StartChar: currency
Encoding: 164 164 101
Width: 1382
Flags: W
LayerCount: 2
Fore
SplineSet
319 251 m 1,0,1
 268 314 268 314 239 391.5 c 128,-1,2
 210 469 210 469 210 557 c 0,3,4
 210 642 210 642 237.5 718 c 128,-1,5
 265 794 265 794 314 856 c 1,6,-1
 124 1047 l 1,7,-1
 195 1119 l 1,8,-1
 385 928 l 1,9,10
 448 980 448 980 525.5 1009 c 128,-1,11
 603 1038 603 1038 691 1038 c 256,12,13
 779 1038 779 1038 856 1009 c 128,-1,14
 933 980 933 980 996 928 c 1,15,-1
 1187 1119 l 1,16,-1
 1258 1047 l 1,17,-1
 1067 856 l 1,18,19
 1117 794 1117 794 1144.5 718 c 128,-1,20
 1172 642 1172 642 1172 557 c 0,21,22
 1172 469 1172 469 1143 391.5 c 128,-1,23
 1114 314 1114 314 1062 251 c 1,24,-1
 1258 56 l 1,25,-1
 1187 -15 l 1,26,-1
 990 180 l 1,27,28
 928 131 928 131 852 103.5 c 128,-1,29
 776 76 776 76 691 76 c 0,30,31
 605 76 605 76 529 103.5 c 128,-1,32
 453 131 453 131 391 181 c 1,33,-1
 195 -15 l 1,34,-1
 124 56 l 1,35,-1
 319 251 l 1,0,1
310 557 m 256,36,37
 310 478 310 478 340 408.5 c 128,-1,38
 370 339 370 339 421.5 287.5 c 128,-1,39
 473 236 473 236 542.5 206 c 128,-1,40
 612 176 612 176 691 176 c 256,41,42
 770 176 770 176 839 206 c 128,-1,43
 908 236 908 236 960 287.5 c 128,-1,44
 1012 339 1012 339 1042 408.5 c 128,-1,45
 1072 478 1072 478 1072 557 c 256,46,47
 1072 636 1072 636 1042 705 c 128,-1,48
 1012 774 1012 774 960 826 c 128,-1,49
 908 878 908 878 839 908 c 128,-1,50
 770 938 770 938 691 938 c 256,51,52
 612 938 612 938 542.5 908 c 128,-1,53
 473 878 473 878 421.5 826 c 128,-1,54
 370 774 370 774 340 705 c 128,-1,55
 310 636 310 636 310 557 c 256,36,37
EndSplineSet
EndChar

StartChar: yen
Encoding: 165 165 102
Width: 1770
Flags: W
LayerCount: 2
Fore
SplineSet
327 328 m 1,0,-1
 579 328 l 1,1,-1
 579 445 l 1,2,-1
 327 445 l 1,3,-1
 327 548 l 1,4,-1
 562 548 l 1,5,-1
 149 1339 l 1,6,-1
 -5 1339 l 1,7,-1
 -5 1417 l 1,8,-1
 1063 1417 l 1,9,-1
 1063 1339 l 1,10,-1
 882 1339 l 1,11,-1
 1209 619 l 1,12,-1
 1508 1277 l 2,13,14
 1510 1282 1510 1282 1510.5 1286.5 c 128,-1,15
 1511 1291 1511 1291 1511 1294 c 0,16,17
 1511 1307 1511 1307 1497.5 1315.5 c 128,-1,18
 1484 1324 1484 1324 1460 1329 c 128,-1,19
 1436 1334 1436 1334 1402.5 1336.5 c 128,-1,20
 1369 1339 1369 1339 1329 1339 c 1,21,-1
 1329 1417 l 1,22,-1
 1785 1417 l 1,23,-1
 1785 1339 l 1,24,25
 1741 1339 1741 1339 1711 1336.5 c 128,-1,26
 1681 1334 1681 1334 1661.5 1327 c 128,-1,27
 1642 1320 1642 1320 1630.5 1308 c 128,-1,28
 1619 1296 1619 1296 1610 1277 c 2,29,-1
 1274 548 l 1,30,-1
 1518 548 l 1,31,-1
 1518 445 l 1,32,-1
 1269 445 l 1,33,-1
 1269 328 l 1,34,-1
 1518 328 l 1,35,-1
 1518 225 l 1,36,-1
 1269 225 l 1,37,-1
 1269 79 l 1,38,-1
 1444 79 l 1,39,-1
 1444 0 l 1,40,-1
 404 0 l 1,41,-1
 404 79 l 1,42,-1
 579 79 l 1,43,-1
 579 225 l 1,44,-1
 327 225 l 1,45,-1
 327 328 l 1,0,-1
EndSplineSet
EndChar

StartChar: brokenbar
Encoding: 166 166 103
Width: 527
Flags: W
LayerCount: 2
Fore
SplineSet
212 1824 m 1,0,-1
 315 1824 l 1,1,-1
 315 710 l 1,2,-1
 212 710 l 1,3,-1
 212 1824 l 1,0,-1
315 524 m 1,4,-1
 315 -590 l 1,5,-1
 212 -590 l 1,6,-1
 212 524 l 1,7,-1
 315 524 l 1,4,-1
EndSplineSet
EndChar

StartChar: section
Encoding: 167 167 104
Width: 1484
Flags: W
LayerCount: 2
Fore
SplineSet
139 63 m 0,0,1
 139 95 139 95 154 123.5 c 128,-1,2
 169 152 169 152 195.5 173 c 128,-1,3
 222 194 222 194 258 206.5 c 128,-1,4
 294 219 294 219 337 219 c 0,5,6
 379 219 379 219 415 206.5 c 128,-1,7
 451 194 451 194 477 173 c 128,-1,8
 503 152 503 152 518 123.5 c 128,-1,9
 533 95 533 95 533 63 c 0,10,11
 533 46 533 46 527.5 27.5 c 128,-1,12
 522 9 522 9 510.5 -9 c 128,-1,13
 499 -27 499 -27 480.5 -42.5 c 128,-1,14
 462 -58 462 -58 437 -68 c 1,15,16
 453 -76 453 -76 486.5 -83.5 c 128,-1,17
 520 -91 520 -91 564.5 -98 c 128,-1,18
 609 -105 609 -105 662.5 -109 c 128,-1,19
 716 -113 716 -113 773 -113 c 0,20,21
 912 -113 912 -113 989.5 -80.5 c 128,-1,22
 1067 -48 1067 -48 1067 2 c 0,23,24
 1067 33 1067 33 1037.5 58.5 c 128,-1,25
 1008 84 1008 84 957.5 105 c 128,-1,26
 907 126 907 126 840.5 144 c 128,-1,27
 774 162 774 162 700 178 c 0,28,29
 572 205 572 205 468 234 c 128,-1,30
 364 263 364 263 290 306.5 c 128,-1,31
 216 350 216 350 175.5 415.5 c 128,-1,32
 135 481 135 481 135 582 c 0,33,34
 135 639 135 639 153 692.5 c 128,-1,35
 171 746 171 746 205 792.5 c 128,-1,36
 239 839 239 839 288.5 877.5 c 128,-1,37
 338 916 338 916 400 943 c 1,38,39
 300 995 300 995 249 1069.5 c 128,-1,40
 198 1144 198 1144 198 1259 c 0,41,42
 198 1355 198 1355 241.5 1430.5 c 128,-1,43
 285 1506 285 1506 361.5 1559 c 128,-1,44
 438 1612 438 1612 541.5 1640 c 128,-1,45
 645 1668 645 1668 764 1668 c 0,46,47
 873 1668 873 1668 967 1648.5 c 128,-1,48
 1061 1629 1061 1629 1130.5 1596 c 128,-1,49
 1200 1563 1200 1563 1239.5 1518.5 c 128,-1,50
 1279 1474 1279 1474 1279 1424 c 0,51,52
 1279 1392 1279 1392 1265.5 1363.5 c 128,-1,53
 1252 1335 1252 1335 1227 1314 c 128,-1,54
 1202 1293 1202 1293 1167.5 1281 c 128,-1,55
 1133 1269 1133 1269 1090 1269 c 0,56,57
 1048 1269 1048 1269 1011.5 1281 c 128,-1,58
 975 1293 975 1293 949 1314 c 128,-1,59
 923 1335 923 1335 908 1363.5 c 128,-1,60
 893 1392 893 1392 893 1424 c 0,61,62
 893 1440 893 1440 899 1459.5 c 128,-1,63
 905 1479 905 1479 919 1497 c 128,-1,64
 933 1515 933 1515 954.5 1529 c 128,-1,65
 976 1543 976 1543 1008 1549 c 1,66,67
 991 1559 991 1559 965.5 1567 c 128,-1,68
 940 1575 940 1575 908 1581 c 128,-1,69
 876 1587 876 1587 839.5 1590 c 128,-1,70
 803 1593 803 1593 765 1593 c 0,71,72
 705 1593 705 1593 649 1583.5 c 128,-1,73
 593 1574 593 1574 550.5 1556 c 128,-1,74
 508 1538 508 1538 482 1512.5 c 128,-1,75
 456 1487 456 1487 456 1454 c 0,76,77
 456 1420 456 1420 482.5 1393.5 c 128,-1,78
 509 1367 509 1367 557 1346 c 128,-1,79
 605 1325 605 1325 671 1308 c 128,-1,80
 737 1291 737 1291 815 1276 c 0,81,82
 933 1252 933 1252 1030.5 1221 c 128,-1,83
 1128 1190 1128 1190 1197.5 1143 c 128,-1,84
 1267 1096 1267 1096 1305 1028 c 128,-1,85
 1343 960 1343 960 1343 862 c 0,86,87
 1343 751 1343 751 1287 668.5 c 128,-1,88
 1231 586 1231 586 1131 535 c 1,89,90
 1183 511 1183 511 1223.5 480 c 128,-1,91
 1264 449 1264 449 1292 408.5 c 128,-1,92
 1320 368 1320 368 1334.5 316 c 128,-1,93
 1349 264 1349 264 1349 198 c 0,94,95
 1349 102 1349 102 1305 27.5 c 128,-1,96
 1261 -47 1261 -47 1182 -97.5 c 128,-1,97
 1103 -148 1103 -148 993.5 -174.5 c 128,-1,98
 884 -201 884 -201 753 -201 c 0,99,100
 683 -201 683 -201 618.5 -194.5 c 128,-1,101
 554 -188 554 -188 496 -176.5 c 128,-1,102
 438 -165 438 -165 389 -150.5 c 128,-1,103
 340 -136 340 -136 301 -120 c 0,104,105
 220 -86 220 -86 179.5 -38 c 128,-1,106
 139 10 139 10 139 63 c 0,0,1
439 814 m 0,107,108
 439 784 439 784 467 758.5 c 128,-1,109
 495 733 495 733 545 711 c 128,-1,110
 595 689 595 689 665.5 669 c 128,-1,111
 736 649 736 649 822 630 c 0,112,113
 870 619 870 619 914.5 608 c 128,-1,114
 959 597 959 597 1000 584 c 1,115,116
 1028 597 1028 597 1044 615 c 128,-1,117
 1060 633 1060 633 1060 659 c 0,118,119
 1060 692 1060 692 1031 717.5 c 128,-1,120
 1002 743 1002 743 952.5 764 c 128,-1,121
 903 785 903 785 836.5 803.5 c 128,-1,122
 770 822 770 822 694 841 c 0,123,124
 590 866 590 866 504 897 c 1,125,126
 474 883 474 883 456.5 863 c 128,-1,127
 439 843 439 843 439 814 c 0,107,108
EndSplineSet
EndChar

StartChar: dieresis
Encoding: 168 168 105
Width: 941
Flags: W
LayerCount: 2
Fore
SplineSet
757 1316 m 0,0,1
 720 1316 720 1316 688 1329.5 c 128,-1,2
 656 1343 656 1343 632.5 1367 c 128,-1,3
 609 1391 609 1391 595.5 1422.5 c 128,-1,4
 582 1454 582 1454 582 1490 c 256,5,6
 582 1526 582 1526 595.5 1558 c 128,-1,7
 609 1590 609 1590 632.5 1614 c 128,-1,8
 656 1638 656 1638 688 1651.5 c 128,-1,9
 720 1665 720 1665 757 1665 c 0,10,11
 793 1665 793 1665 824.5 1651.5 c 128,-1,12
 856 1638 856 1638 880 1614 c 128,-1,13
 904 1590 904 1590 917.5 1558 c 128,-1,14
 931 1526 931 1526 931 1490 c 256,15,16
 931 1454 931 1454 917.5 1422.5 c 128,-1,17
 904 1391 904 1391 880 1367 c 128,-1,18
 856 1343 856 1343 824.5 1329.5 c 128,-1,19
 793 1316 793 1316 757 1316 c 0,0,1
185 1316 m 256,20,21
 149 1316 149 1316 117 1329.5 c 128,-1,22
 85 1343 85 1343 61 1367 c 128,-1,23
 37 1391 37 1391 23.5 1422.5 c 128,-1,24
 10 1454 10 1454 10 1490 c 256,25,26
 10 1526 10 1526 23.5 1558 c 128,-1,27
 37 1590 37 1590 61 1614 c 128,-1,28
 85 1638 85 1638 117 1651.5 c 128,-1,29
 149 1665 149 1665 185 1665 c 256,30,31
 221 1665 221 1665 253 1651.5 c 128,-1,32
 285 1638 285 1638 308.5 1614 c 128,-1,33
 332 1590 332 1590 345.5 1558 c 128,-1,34
 359 1526 359 1526 359 1490 c 256,35,36
 359 1454 359 1454 345.5 1422.5 c 128,-1,37
 332 1391 332 1391 308.5 1367 c 128,-1,38
 285 1343 285 1343 253 1329.5 c 128,-1,39
 221 1316 221 1316 185 1316 c 256,20,21
EndSplineSet
EndChar

StartChar: copyright
Encoding: 169 169 106
Width: 1789
Flags: W
LayerCount: 2
Fore
SplineSet
148 708 m 0,0,1
 148 811 148 811 174.5 906.5 c 128,-1,2
 201 1002 201 1002 249.5 1085 c 128,-1,3
 298 1168 298 1168 366.5 1236 c 128,-1,4
 435 1304 435 1304 517.5 1353 c 128,-1,5
 600 1402 600 1402 695.5 1428.5 c 128,-1,6
 791 1455 791 1455 894 1455 c 256,7,8
 997 1455 997 1455 1092.5 1428.5 c 128,-1,9
 1188 1402 1188 1402 1271 1353 c 128,-1,10
 1354 1304 1354 1304 1422 1236 c 128,-1,11
 1490 1168 1490 1168 1539 1085 c 128,-1,12
 1588 1002 1588 1002 1614.5 906.5 c 128,-1,13
 1641 811 1641 811 1641 708 c 256,14,15
 1641 605 1641 605 1614.5 509.5 c 128,-1,16
 1588 414 1588 414 1539 331.5 c 128,-1,17
 1490 249 1490 249 1422 180.5 c 128,-1,18
 1354 112 1354 112 1271 63.5 c 128,-1,19
 1188 15 1188 15 1092.5 -11.5 c 128,-1,20
 997 -38 997 -38 894 -38 c 0,21,22
 739 -38 739 -38 603.5 20.5 c 128,-1,23
 468 79 468 79 366.5 180.5 c 128,-1,24
 265 282 265 282 206.5 417.5 c 128,-1,25
 148 553 148 553 148 708 c 0,0,1
241 708 m 256,26,27
 241 618 241 618 264.5 534.5 c 128,-1,28
 288 451 288 451 330.5 378.5 c 128,-1,29
 373 306 373 306 432.5 246.5 c 128,-1,30
 492 187 492 187 564.5 144.5 c 128,-1,31
 637 102 637 102 720.5 78.5 c 128,-1,32
 804 55 804 55 894 55 c 256,33,34
 984 55 984 55 1067.5 78.5 c 128,-1,35
 1151 102 1151 102 1223.5 144.5 c 128,-1,36
 1296 187 1296 187 1355.5 246.5 c 128,-1,37
 1415 306 1415 306 1457.5 378.5 c 128,-1,38
 1500 451 1500 451 1523.5 534.5 c 128,-1,39
 1547 618 1547 618 1547 708 c 256,40,41
 1547 798 1547 798 1523.5 881.5 c 128,-1,42
 1500 965 1500 965 1457.5 1037.5 c 128,-1,43
 1415 1110 1415 1110 1355.5 1169.5 c 128,-1,44
 1296 1229 1296 1229 1223.5 1271.5 c 128,-1,45
 1151 1314 1151 1314 1067.5 1337.5 c 128,-1,46
 984 1361 984 1361 894 1361 c 256,47,48
 804 1361 804 1361 720.5 1337.5 c 128,-1,49
 637 1314 637 1314 564.5 1271.5 c 128,-1,50
 492 1229 492 1229 432.5 1169.5 c 128,-1,51
 373 1110 373 1110 330.5 1037.5 c 128,-1,52
 288 965 288 965 264.5 881.5 c 128,-1,53
 241 798 241 798 241 708 c 256,26,27
396 678 m 0,54,55
 396 780 396 780 429 867.5 c 128,-1,56
 462 955 462 955 527 1018.5 c 128,-1,57
 592 1082 592 1082 690 1118.5 c 128,-1,58
 788 1155 788 1155 918 1155 c 0,59,60
 965 1155 965 1155 1013 1146 c 128,-1,61
 1061 1137 1061 1137 1106 1119.5 c 128,-1,62
 1151 1102 1151 1102 1191 1076 c 128,-1,63
 1231 1050 1231 1050 1262 1016 c 1,64,-1
 1309 1092 l 1,65,-1
 1361 1092 l 1,66,-1
 1361 749 l 1,67,-1
 1293 749 l 1,68,69
 1271 846 1271 846 1236.5 908.5 c 128,-1,70
 1202 971 1202 971 1160.5 1007.5 c 128,-1,71
 1119 1044 1119 1044 1073.5 1058 c 128,-1,72
 1028 1072 1028 1072 984 1072 c 0,73,74
 953 1072 953 1072 922.5 1059.5 c 128,-1,75
 892 1047 892 1047 867.5 1010.5 c 128,-1,76
 843 974 843 974 828 908 c 128,-1,77
 813 842 813 842 813 735 c 0,78,79
 813 619 813 619 826.5 542 c 128,-1,80
 840 465 840 465 865 419.5 c 128,-1,81
 890 374 890 374 926 355 c 128,-1,82
 962 336 962 336 1008 336 c 0,83,84
 1062 336 1062 336 1111.5 351.5 c 128,-1,85
 1161 367 1161 367 1199.5 404 c 128,-1,86
 1238 441 1238 441 1263 502 c 128,-1,87
 1288 563 1288 563 1294 653 c 1,88,-1
 1368 653 l 1,89,90
 1363 567 1363 567 1337.5 492.5 c 128,-1,91
 1312 418 1312 418 1258.5 362.5 c 128,-1,92
 1205 307 1205 307 1120.5 275 c 128,-1,93
 1036 243 1036 243 915 243 c 0,94,95
 797 243 797 243 701.5 275 c 128,-1,96
 606 307 606 307 538 364.5 c 128,-1,97
 470 422 470 422 433 502 c 128,-1,98
 396 582 396 582 396 678 c 0,54,55
EndSplineSet
EndChar

StartChar: ordfeminine
Encoding: 170 170 107
Width: 1192
Flags: W
LayerCount: 2
Fore
SplineSet
400 675 m 0,0,1
 334 675 334 675 287.5 690.5 c 128,-1,2
 241 706 241 706 212.5 731 c 128,-1,3
 184 756 184 756 171 788 c 128,-1,4
 158 820 158 820 158 854 c 0,5,6
 158 919 158 919 194 959 c 128,-1,7
 230 999 230 999 292 1021.5 c 128,-1,8
 354 1044 354 1044 437.5 1051.5 c 128,-1,9
 521 1059 521 1059 616 1059 c 1,10,-1
 616 1081 l 2,11,12
 616 1152 616 1152 607.5 1193.5 c 128,-1,13
 599 1235 599 1235 581.5 1256 c 128,-1,14
 564 1277 564 1277 537.5 1283 c 128,-1,15
 511 1289 511 1289 476 1289 c 0,16,17
 457 1289 457 1289 427 1286.5 c 128,-1,18
 397 1284 397 1284 373 1279 c 1,19,20
 426 1274 426 1274 459 1251 c 128,-1,21
 492 1228 492 1228 492 1189 c 0,22,23
 492 1165 492 1165 480 1144.5 c 128,-1,24
 468 1124 468 1124 447.5 1108.5 c 128,-1,25
 427 1093 427 1093 399 1084 c 128,-1,26
 371 1075 371 1075 340 1075 c 256,27,28
 309 1075 309 1075 281.5 1084 c 128,-1,29
 254 1093 254 1093 233.5 1108.5 c 128,-1,30
 213 1124 213 1124 201 1144.5 c 128,-1,31
 189 1165 189 1165 189 1189 c 0,32,33
 189 1232 189 1232 226.5 1263.5 c 128,-1,34
 264 1295 264 1295 323.5 1315 c 128,-1,35
 383 1335 383 1335 457 1345 c 128,-1,36
 531 1355 531 1355 605 1355 c 0,37,38
 693 1355 693 1355 758 1343 c 128,-1,39
 823 1331 823 1331 866 1300 c 128,-1,40
 909 1269 909 1269 930.5 1216 c 128,-1,41
 952 1163 952 1163 952 1081 c 2,42,-1
 952 845 l 2,43,44
 952 802 952 802 961 779.5 c 128,-1,45
 970 757 970 757 993 757 c 0,46,47
 1005 757 1005 757 1012.5 764.5 c 128,-1,48
 1020 772 1020 772 1024.5 784.5 c 128,-1,49
 1029 797 1029 797 1030.5 813 c 128,-1,50
 1032 829 1032 829 1032 846 c 2,51,-1
 1032 902 l 1,52,-1
 1093 902 l 1,53,-1
 1093 846 l 2,54,55
 1093 804 1093 804 1081 772 c 128,-1,56
 1069 740 1069 740 1042.5 718.5 c 128,-1,57
 1016 697 1016 697 973 686 c 128,-1,58
 930 675 930 675 868 675 c 0,59,60
 826 675 826 675 788.5 678 c 128,-1,61
 751 681 751 681 720.5 690 c 128,-1,62
 690 699 690 699 667.5 715 c 128,-1,63
 645 731 645 731 633 757 c 1,64,65
 616 731 616 731 587.5 715 c 128,-1,66
 559 699 559 699 526.5 690 c 128,-1,67
 494 681 494 681 460.5 678 c 128,-1,68
 427 675 427 675 400 675 c 0,0,1
549 767 m 0,69,70
 578 767 578 767 597 788.5 c 128,-1,71
 616 810 616 810 616 845 c 2,72,-1
 616 998 l 1,73,74
 575 998 575 998 549.5 990.5 c 128,-1,75
 524 983 524 983 509 966.5 c 128,-1,76
 494 950 494 950 488.5 924 c 128,-1,77
 483 898 483 898 483 860 c 0,78,79
 483 818 483 818 498.5 792.5 c 128,-1,80
 514 767 514 767 549 767 c 0,69,70
EndSplineSet
EndChar

StartChar: guillemotleft
Encoding: 171 171 108
Width: 1522
Flags: W
LayerCount: 2
Fore
SplineSet
1409 1090 m 1,0,-1
 1452 1048 l 1,1,-1
 1014 556 l 1,2,-1
 1452 64 l 1,3,-1
 1409 22 l 1,4,-1
 590 556 l 1,5,-1
 1409 1090 l 1,0,-1
859 1090 m 1,6,-1
 902 1048 l 1,7,-1
 464 556 l 1,8,-1
 902 64 l 1,9,-1
 859 22 l 1,10,-1
 40 556 l 1,11,-1
 859 1090 l 1,6,-1
EndSplineSet
EndChar

StartChar: logicalnot
Encoding: 172 172 109
Width: 1264
Flags: W
LayerCount: 2
Fore
SplineSet
209 1113 m 1,0,-1
 1104 1113 l 1,1,-1
 1104 618 l 1,2,-1
 980 618 l 1,3,-1
 980 989 l 1,4,-1
 209 989 l 1,5,-1
 209 1113 l 1,0,-1
EndSplineSet
EndChar

StartChar: uni00AD
Encoding: 173 173 110
Width: 1075
Flags: W
LayerCount: 2
Fore
SplineSet
90 715 m 1,0,-1
 985 715 l 1,1,-1
 985 591 l 1,2,-1
 90 591 l 1,3,-1
 90 715 l 1,0,-1
EndSplineSet
EndChar

StartChar: registered
Encoding: 174 174 111
Width: 1789
Flags: W
LayerCount: 2
Fore
SplineSet
148 708 m 0,0,1
 148 811 148 811 174.5 906.5 c 128,-1,2
 201 1002 201 1002 249.5 1085 c 128,-1,3
 298 1168 298 1168 366.5 1236 c 128,-1,4
 435 1304 435 1304 517.5 1353 c 128,-1,5
 600 1402 600 1402 695.5 1428.5 c 128,-1,6
 791 1455 791 1455 894 1455 c 256,7,8
 997 1455 997 1455 1092.5 1428.5 c 128,-1,9
 1188 1402 1188 1402 1271 1353 c 128,-1,10
 1354 1304 1354 1304 1422 1236 c 128,-1,11
 1490 1168 1490 1168 1539 1085 c 128,-1,12
 1588 1002 1588 1002 1614.5 906.5 c 128,-1,13
 1641 811 1641 811 1641 708 c 256,14,15
 1641 605 1641 605 1614.5 509.5 c 128,-1,16
 1588 414 1588 414 1539 331.5 c 128,-1,17
 1490 249 1490 249 1422 180.5 c 128,-1,18
 1354 112 1354 112 1271 63.5 c 128,-1,19
 1188 15 1188 15 1092.5 -11.5 c 128,-1,20
 997 -38 997 -38 894 -38 c 0,21,22
 739 -38 739 -38 603.5 20.5 c 128,-1,23
 468 79 468 79 366.5 180.5 c 128,-1,24
 265 282 265 282 206.5 417.5 c 128,-1,25
 148 553 148 553 148 708 c 0,0,1
241 708 m 256,26,27
 241 618 241 618 264.5 534.5 c 128,-1,28
 288 451 288 451 330.5 378.5 c 128,-1,29
 373 306 373 306 432.5 246.5 c 128,-1,30
 492 187 492 187 564.5 144.5 c 128,-1,31
 637 102 637 102 720.5 78.5 c 128,-1,32
 804 55 804 55 894 55 c 256,33,34
 984 55 984 55 1067.5 78.5 c 128,-1,35
 1151 102 1151 102 1223.5 144.5 c 128,-1,36
 1296 187 1296 187 1355.5 246.5 c 128,-1,37
 1415 306 1415 306 1457.5 378.5 c 128,-1,38
 1500 451 1500 451 1523.5 534.5 c 128,-1,39
 1547 618 1547 618 1547 708 c 256,40,41
 1547 798 1547 798 1523.5 881.5 c 128,-1,42
 1500 965 1500 965 1457.5 1037.5 c 128,-1,43
 1415 1110 1415 1110 1355.5 1169.5 c 128,-1,44
 1296 1229 1296 1229 1223.5 1271.5 c 128,-1,45
 1151 1314 1151 1314 1067.5 1337.5 c 128,-1,46
 984 1361 984 1361 894 1361 c 256,47,48
 804 1361 804 1361 720.5 1337.5 c 128,-1,49
 637 1314 637 1314 564.5 1271.5 c 128,-1,50
 492 1229 492 1229 432.5 1169.5 c 128,-1,51
 373 1110 373 1110 330.5 1037.5 c 128,-1,52
 288 965 288 965 264.5 881.5 c 128,-1,53
 241 798 241 798 241 708 c 256,26,27
450 346 m 1,54,-1
 517 346 l 1,55,-1
 517 1078 l 1,56,-1
 450 1078 l 1,57,-1
 450 1146 l 1,58,-1
 1020 1146 l 2,59,60
 1180 1146 1180 1146 1261.5 1082.5 c 128,-1,61
 1343 1019 1343 1019 1343 909 c 0,62,63
 1343 866 1343 866 1327.5 829 c 128,-1,64
 1312 792 1312 792 1272 764.5 c 128,-1,65
 1232 737 1232 737 1162.5 721 c 128,-1,66
 1093 705 1093 705 985 703 c 1,67,68
 1086 702 1086 702 1154 690 c 128,-1,69
 1222 678 1222 678 1263 654 c 128,-1,70
 1304 630 1304 630 1321.5 594.5 c 128,-1,71
 1339 559 1339 559 1339 512 c 0,72,73
 1339 498 1339 498 1339 487.5 c 128,-1,74
 1339 477 1339 477 1337 455 c 0,75,76
 1336 444 1336 444 1336 434 c 128,-1,77
 1336 424 1336 424 1336 413 c 0,78,79
 1336 386 1336 386 1340 365.5 c 128,-1,80
 1344 345 1344 345 1357 337 c 1,81,-1
 1357 281 l 1,82,83
 1331 266 1331 266 1291 258.5 c 128,-1,84
 1251 251 1251 251 1204 251 c 0,85,86
 1139 251 1139 251 1096.5 263.5 c 128,-1,87
 1054 276 1054 276 1028.5 303.5 c 128,-1,88
 1003 331 1003 331 993 375.5 c 128,-1,89
 983 420 983 420 983 484 c 0,90,91
 983 547 983 547 978.5 585 c 128,-1,92
 974 623 974 623 962 644 c 128,-1,93
 950 665 950 665 930 672 c 128,-1,94
 910 679 910 679 880 679 c 1,95,-1
 880 278 l 1,96,-1
 450 278 l 1,97,-1
 450 346 l 1,54,-1
880 748 m 1,98,99
 913 748 913 748 934 753 c 128,-1,100
 955 758 955 758 967.5 774.5 c 128,-1,101
 980 791 980 791 985 823 c 128,-1,102
 990 855 990 855 990 909 c 256,103,104
 990 963 990 963 985 996.5 c 128,-1,105
 980 1030 980 1030 967.5 1048 c 128,-1,106
 955 1066 955 1066 934 1072 c 128,-1,107
 913 1078 913 1078 880 1078 c 1,108,-1
 880 748 l 1,98,99
EndSplineSet
EndChar

StartChar: macron
Encoding: 175 175 112
Width: 941
Flags: W
LayerCount: 2
Fore
SplineSet
23 1455 m 1,0,-1
 918 1455 l 1,1,-1
 918 1291 l 1,2,-1
 23 1291 l 1,3,-1
 23 1455 l 1,0,-1
EndSplineSet
EndChar

StartChar: degree
Encoding: 176 176 113
Width: 955
Flags: W
LayerCount: 2
Fore
SplineSet
478 855 m 256,0,1
 404 855 404 855 338.5 883 c 128,-1,2
 273 911 273 911 224.5 960 c 128,-1,3
 176 1009 176 1009 147.5 1074.5 c 128,-1,4
 119 1140 119 1140 119 1214 c 256,5,6
 119 1288 119 1288 147.5 1353.5 c 128,-1,7
 176 1419 176 1419 224.5 1467.5 c 128,-1,8
 273 1516 273 1516 338.5 1544 c 128,-1,9
 404 1572 404 1572 478 1572 c 256,10,11
 552 1572 552 1572 617.5 1544 c 128,-1,12
 683 1516 683 1516 731.5 1467.5 c 128,-1,13
 780 1419 780 1419 808 1353.5 c 128,-1,14
 836 1288 836 1288 836 1214 c 256,15,16
 836 1140 836 1140 808 1074.5 c 128,-1,17
 780 1009 780 1009 731.5 960 c 128,-1,18
 683 911 683 911 617.5 883 c 128,-1,19
 552 855 552 855 478 855 c 256,0,1
478 1018 m 256,20,21
 518 1018 518 1018 554 1033.5 c 128,-1,22
 590 1049 590 1049 617 1075.5 c 128,-1,23
 644 1102 644 1102 659.5 1137.5 c 128,-1,24
 675 1173 675 1173 675 1214 c 0,25,26
 675 1254 675 1254 659.5 1290 c 128,-1,27
 644 1326 644 1326 617 1352.5 c 128,-1,28
 590 1379 590 1379 554 1394.5 c 128,-1,29
 518 1410 518 1410 478 1410 c 256,30,31
 438 1410 438 1410 402.5 1394.5 c 128,-1,32
 367 1379 367 1379 340 1352.5 c 128,-1,33
 313 1326 313 1326 297.5 1290 c 128,-1,34
 282 1254 282 1254 282 1214 c 0,35,36
 282 1173 282 1173 297.5 1137.5 c 128,-1,37
 313 1102 313 1102 340 1075.5 c 128,-1,38
 367 1049 367 1049 402.5 1033.5 c 128,-1,39
 438 1018 438 1018 478 1018 c 256,20,21
EndSplineSet
EndChar

StartChar: plusminus
Encoding: 177 177 114
Width: 1073
Flags: W
LayerCount: 2
Fore
SplineSet
474 591 m 1,0,-1
 89 591 l 1,1,-1
 89 715 l 1,2,-1
 474 715 l 1,3,-1
 474 1100 l 1,4,-1
 598 1100 l 1,5,-1
 598 715 l 1,6,-1
 984 715 l 1,7,-1
 984 591 l 1,8,-1
 598 591 l 1,9,-1
 598 205 l 1,10,-1
 474 205 l 1,11,-1
 474 591 l 1,0,-1
89 124 m 1,12,-1
 984 124 l 1,13,-1
 984 0 l 1,14,-1
 89 0 l 1,15,-1
 89 124 l 1,12,-1
EndSplineSet
EndChar

StartChar: twosuperior
Encoding: 178 178 115
Width: 1111
Flags: W
LayerCount: 2
Fore
SplineSet
166 787 m 1,0,1
 210 824 210 824 258.5 868.5 c 128,-1,2
 307 913 307 913 353 961.5 c 128,-1,3
 399 1010 399 1010 441 1061 c 128,-1,4
 483 1112 483 1112 515 1163 c 128,-1,5
 547 1214 547 1214 565.5 1264 c 128,-1,6
 584 1314 584 1314 584 1360 c 0,7,8
 584 1399 584 1399 573.5 1423 c 128,-1,9
 563 1447 563 1447 546 1460.5 c 128,-1,10
 529 1474 529 1474 506 1478.5 c 128,-1,11
 483 1483 483 1483 458 1483 c 0,12,13
 437 1483 437 1483 418 1480 c 1,14,15
 460 1463 460 1463 485.5 1431.5 c 128,-1,16
 511 1400 511 1400 511 1362 c 0,17,18
 511 1333 511 1333 497 1308 c 128,-1,19
 483 1283 483 1283 458 1264 c 128,-1,20
 433 1245 433 1245 400 1234.5 c 128,-1,21
 367 1224 367 1224 330 1224 c 0,22,23
 292 1224 292 1224 259.5 1234.5 c 128,-1,24
 227 1245 227 1245 202.5 1264 c 128,-1,25
 178 1283 178 1283 164 1308 c 128,-1,26
 150 1333 150 1333 150 1362 c 0,27,28
 150 1403 150 1403 177 1435 c 128,-1,29
 204 1467 204 1467 253 1488.5 c 128,-1,30
 302 1510 302 1510 371 1521.5 c 128,-1,31
 440 1533 440 1533 525 1533 c 0,32,33
 600 1533 600 1533 675.5 1520 c 128,-1,34
 751 1507 751 1507 811.5 1478.5 c 128,-1,35
 872 1450 872 1450 909.5 1404 c 128,-1,36
 947 1358 947 1358 947 1292 c 0,37,38
 947 1224 947 1224 908 1174.5 c 128,-1,39
 869 1125 869 1125 804 1090.5 c 128,-1,40
 739 1056 739 1056 653.5 1034 c 128,-1,41
 568 1012 568 1012 474 998 c 1,42,43
 471 993 471 993 470 984 c 2,44,-1
 468 972 l 1,45,-1
 871 972 l 1,46,47
 884 989 884 989 896 1013 c 128,-1,48
 908 1037 908 1037 913 1055 c 1,49,-1
 967 1053 l 1,50,-1
 926 720 l 1,51,-1
 166 720 l 1,52,-1
 166 787 l 1,0,1
EndSplineSet
EndChar

StartChar: threesuperior
Encoding: 179 179 116
Width: 1056
Flags: W
LayerCount: 2
Fore
SplineSet
404 763 m 1,0,1
 418 761 418 761 430.5 760 c 128,-1,2
 443 759 443 759 455 759 c 0,3,4
 486 759 486 759 512 767 c 128,-1,5
 538 775 538 775 557 793 c 128,-1,6
 576 811 576 811 586.5 840.5 c 128,-1,7
 597 870 597 870 597 914 c 0,8,9
 597 956 597 956 582 988.5 c 128,-1,10
 567 1021 567 1021 540.5 1043.5 c 128,-1,11
 514 1066 514 1066 477.5 1078.5 c 128,-1,12
 441 1091 441 1091 399 1094 c 1,13,-1
 399 1150 l 1,14,15
 439 1154 439 1154 475 1170 c 128,-1,16
 511 1186 511 1186 538.5 1212.5 c 128,-1,17
 566 1239 566 1239 582 1273.5 c 128,-1,18
 598 1308 598 1308 598 1349 c 0,19,20
 598 1389 598 1389 586.5 1414.5 c 128,-1,21
 575 1440 575 1440 555.5 1455 c 128,-1,22
 536 1470 536 1470 510.5 1476 c 128,-1,23
 485 1482 485 1482 457 1482 c 0,24,25
 439 1482 439 1482 420.5 1481 c 128,-1,26
 402 1480 402 1480 380 1475 c 1,27,28
 406 1469 406 1469 428.5 1457 c 128,-1,29
 451 1445 451 1445 467.5 1428.5 c 128,-1,30
 484 1412 484 1412 493.5 1391.5 c 128,-1,31
 503 1371 503 1371 503 1349 c 0,32,33
 503 1321 503 1321 489 1297 c 128,-1,34
 475 1273 475 1273 451 1255 c 128,-1,35
 427 1237 427 1237 395 1226.5 c 128,-1,36
 363 1216 363 1216 327 1216 c 0,37,38
 289 1216 289 1216 257 1226.5 c 128,-1,39
 225 1237 225 1237 201.5 1255 c 128,-1,40
 178 1273 178 1273 164.5 1297 c 128,-1,41
 151 1321 151 1321 151 1349 c 0,42,43
 151 1389 151 1389 177 1423 c 128,-1,44
 203 1457 203 1457 251 1481.5 c 128,-1,45
 299 1506 299 1506 367 1519.5 c 128,-1,46
 435 1533 435 1533 519 1533 c 0,47,48
 587 1533 587 1533 658 1521.5 c 128,-1,49
 729 1510 729 1510 787 1485 c 128,-1,50
 845 1460 845 1460 882 1420.5 c 128,-1,51
 919 1381 919 1381 919 1325 c 0,52,53
 919 1226 919 1226 816 1175.5 c 128,-1,54
 713 1125 713 1125 514 1123 c 1,55,56
 607 1122 607 1122 686 1114.5 c 128,-1,57
 765 1107 765 1107 822 1086 c 128,-1,58
 879 1065 879 1065 911.5 1028.5 c 128,-1,59
 944 992 944 992 944 934 c 256,60,61
 944 876 944 876 914.5 834 c 128,-1,62
 885 792 885 792 831 764.5 c 128,-1,63
 777 737 777 737 702 723.5 c 128,-1,64
 627 710 627 710 537 710 c 0,65,66
 448 710 448 710 375 720.5 c 128,-1,67
 302 731 302 731 249.5 752 c 128,-1,68
 197 773 197 773 168.5 804 c 128,-1,69
 140 835 140 835 140 877 c 0,70,71
 140 905 140 905 153.5 929.5 c 128,-1,72
 167 954 167 954 190.5 972 c 128,-1,73
 214 990 214 990 246 1000.5 c 128,-1,74
 278 1011 278 1011 315 1011 c 256,75,76
 352 1011 352 1011 384.5 1000.5 c 128,-1,77
 417 990 417 990 441 972 c 128,-1,78
 465 954 465 954 478.5 929.5 c 128,-1,79
 492 905 492 905 492 877 c 0,80,81
 492 840 492 840 468 810 c 128,-1,82
 444 780 444 780 404 763 c 1,0,1
EndSplineSet
EndChar

StartChar: acute
Encoding: 180 180 117
Width: 941
Flags: W
LayerCount: 2
Fore
SplineSet
129 1351 m 1,0,1
 134 1354 134 1354 148 1365.5 c 128,-1,2
 162 1377 162 1377 184 1396 c 0,3,4
 212 1420 212 1420 250 1452.5 c 128,-1,5
 288 1485 288 1485 330.5 1519.5 c 128,-1,6
 373 1554 373 1554 416 1589 c 128,-1,7
 459 1624 459 1624 496.5 1653.5 c 128,-1,8
 534 1683 534 1683 563 1704.5 c 128,-1,9
 592 1726 592 1726 607 1735 c 0,10,11
 624 1745 624 1745 641 1749 c 128,-1,12
 658 1753 658 1753 675 1753 c 0,13,14
 703 1753 703 1753 727.5 1741 c 128,-1,15
 752 1729 752 1729 771 1709 c 128,-1,16
 790 1689 790 1689 801 1662.5 c 128,-1,17
 812 1636 812 1636 812 1608 c 0,18,19
 812 1575 812 1575 796 1545.5 c 128,-1,20
 780 1516 780 1516 745 1496 c 0,21,22
 731 1488 731 1488 698 1473.5 c 128,-1,23
 665 1459 665 1459 621 1441 c 128,-1,24
 577 1423 577 1423 526 1403 c 128,-1,25
 475 1383 475 1383 424 1364 c 128,-1,26
 373 1345 373 1345 326.5 1328 c 128,-1,27
 280 1311 280 1311 245 1299 c 0,28,29
 219 1290 219 1290 202 1283.5 c 128,-1,30
 185 1277 185 1277 179 1274 c 1,31,-1
 129 1351 l 1,0,1
EndSplineSet
EndChar

StartChar: mu
Encoding: 181 181 118
AltUni2: 0003bc.ffffffff.0
Width: 1910
Flags: W
LayerCount: 2
Fore
SplineSet
213 1113 m 1,0,-1
 808 1113 l 1,1,2
 798 912 798 912 792 742 c 128,-1,3
 786 572 786 572 786 415 c 0,4,5
 786 326 786 326 801 270 c 128,-1,6
 816 214 816 214 839.5 182 c 128,-1,7
 863 150 863 150 892 138.5 c 128,-1,8
 921 127 921 127 949 127 c 0,9,10
 985 127 985 127 1012 144 c 128,-1,11
 1039 161 1039 161 1057 190.5 c 128,-1,12
 1075 220 1075 220 1083.5 259.5 c 128,-1,13
 1092 299 1092 299 1092 345 c 2,14,-1
 1092 1113 l 1,15,-1
 1687 1113 l 1,16,-1
 1687 140 l 2,17,18
 1687 118 1687 118 1698 108.5 c 128,-1,19
 1709 99 1709 99 1724 99 c 256,20,21
 1739 99 1739 99 1750 109 c 128,-1,22
 1761 119 1761 119 1768.5 142.5 c 128,-1,23
 1776 166 1776 166 1779.5 205 c 128,-1,24
 1783 244 1783 244 1783 302 c 1,25,-1
 1867 302 l 1,26,-1
 1867 269 l 2,27,28
 1867 170 1867 170 1845 109.5 c 128,-1,29
 1823 49 1823 49 1775.5 16 c 128,-1,30
 1728 -17 1728 -17 1652.5 -27.5 c 128,-1,31
 1577 -38 1577 -38 1471 -38 c 0,32,33
 1387 -38 1387 -38 1326.5 -27 c 128,-1,34
 1266 -16 1266 -16 1223.5 5 c 128,-1,35
 1181 26 1181 26 1155 57.5 c 128,-1,36
 1129 89 1129 89 1115 131 c 1,37,38
 1107 103 1107 103 1093.5 79 c 128,-1,39
 1080 55 1080 55 1059 37 c 128,-1,40
 1038 19 1038 19 1009.5 9 c 128,-1,41
 981 -1 981 -1 943 -1 c 0,42,43
 833 -1 833 -1 782 110 c 1,44,-1
 808 -509 l 1,45,-1
 213 -509 l 1,46,-1
 213 1113 l 1,0,-1
EndSplineSet
EndChar

StartChar: paragraph
Encoding: 182 182 119
Width: 1390
Flags: W
LayerCount: 2
Fore
SplineSet
1035 1417 m 1,0,-1
 1295 1417 l 1,1,-1
 1295 1339 l 1,2,-1
 1120 1339 l 1,3,-1
 1120 -221 l 1,4,-1
 1295 -221 l 1,5,-1
 1295 -300 l 1,6,-1
 1035 -300 l 1,7,-1
 1035 1417 l 1,0,-1
830 -221 m 1,8,-1
 830 439 l 1,9,-1
 611 439 l 2,10,11
 487 439 487 439 389.5 474.5 c 128,-1,12
 292 510 292 510 224.5 574 c 128,-1,13
 157 638 157 638 121 727.5 c 128,-1,14
 85 817 85 817 85 924 c 0,15,16
 85 1021 85 1021 120.5 1110 c 128,-1,17
 156 1199 156 1199 223.5 1267.5 c 128,-1,18
 291 1336 291 1336 389 1376.5 c 128,-1,19
 487 1417 487 1417 611 1417 c 2,20,-1
 922 1417 l 1,21,-1
 922 -300 l 1,22,-1
 656 -300 l 1,23,-1
 656 -221 l 1,24,-1
 830 -221 l 1,8,-1
EndSplineSet
EndChar

StartChar: periodcentered
Encoding: 183 183 120
Width: 813
Flags: W
LayerCount: 2
Fore
SplineSet
407 362 m 0,0,1
 351 362 351 362 302 383 c 128,-1,2
 253 404 253 404 216 441 c 128,-1,3
 179 478 179 478 158 526.5 c 128,-1,4
 137 575 137 575 137 631 c 256,5,6
 137 687 137 687 158 736.5 c 128,-1,7
 179 786 179 786 216 822.5 c 128,-1,8
 253 859 253 859 302 880 c 128,-1,9
 351 901 351 901 407 901 c 0,10,11
 462 901 462 901 511 880 c 128,-1,12
 560 859 560 859 597 822.5 c 128,-1,13
 634 786 634 786 655 736.5 c 128,-1,14
 676 687 676 687 676 631 c 256,15,16
 676 575 676 575 655 526.5 c 128,-1,17
 634 478 634 478 597 441 c 128,-1,18
 560 404 560 404 511 383 c 128,-1,19
 462 362 462 362 407 362 c 0,0,1
EndSplineSet
EndChar

StartChar: cedilla
Encoding: 184 184 121
Width: 941
Flags: W
LayerCount: 2
Fore
SplineSet
441 0 m 1,0,-1
 441 -188 l 1,1,2
 488 -165 488 -165 537.5 -156.5 c 128,-1,3
 587 -148 587 -148 626 -148 c 0,4,5
 672 -148 672 -148 710 -160.5 c 128,-1,6
 748 -173 748 -173 775.5 -196 c 128,-1,7
 803 -219 803 -219 818 -250.5 c 128,-1,8
 833 -282 833 -282 833 -319 c 0,9,10
 833 -411 833 -411 764 -465 c 128,-1,11
 695 -519 695 -519 550 -519 c 0,12,13
 478 -519 478 -519 411.5 -508.5 c 128,-1,14
 345 -498 345 -498 288.5 -481 c 128,-1,15
 232 -464 232 -464 187.5 -443.5 c 128,-1,16
 143 -423 143 -423 113 -402 c 1,17,-1
 138 -348 l 1,18,19
 155 -358 155 -358 187.5 -370.5 c 128,-1,20
 220 -383 220 -383 259.5 -394.5 c 128,-1,21
 299 -406 299 -406 342 -413.5 c 128,-1,22
 385 -421 385 -421 423 -421 c 0,23,24
 451 -421 451 -421 474.5 -417 c 128,-1,25
 498 -413 498 -413 515 -402.5 c 128,-1,26
 532 -392 532 -392 541.5 -374 c 128,-1,27
 551 -356 551 -356 551 -328 c 0,28,29
 551 -287 551 -287 527 -265 c 128,-1,30
 503 -243 503 -243 467 -243 c 0,31,32
 456 -243 456 -243 442.5 -245.5 c 128,-1,33
 429 -248 429 -248 418 -253 c 1,34,-1
 367 -253 l 1,35,-1
 367 0 l 1,36,-1
 441 0 l 1,0,-1
EndSplineSet
EndChar

StartChar: onesuperior
Encoding: 185 185 122
Width: 836
Flags: W
LayerCount: 2
Fore
SplineSet
150 779 m 1,0,-1
 276 779 l 1,1,-1
 276 1359 l 1,2,-1
 150 1359 l 1,3,-1
 150 1423 l 1,4,5
 203 1423 203 1423 258.5 1430.5 c 128,-1,6
 314 1438 314 1438 365 1451 c 128,-1,7
 416 1464 416 1464 460.5 1481 c 128,-1,8
 505 1498 505 1498 537 1517 c 1,9,-1
 618 1517 l 1,10,-1
 618 779 l 1,11,-1
 742 779 l 1,12,-1
 742 720 l 1,13,-1
 150 720 l 1,14,-1
 150 779 l 1,0,-1
EndSplineSet
EndChar

StartChar: ordmasculine
Encoding: 186 186 123
Width: 1144
Flags: W
LayerCount: 2
Fore
SplineSet
572 675 m 0,0,1
 354 675 354 675 247 760.5 c 128,-1,2
 140 846 140 846 140 1014 c 0,3,4
 140 1183 140 1183 247 1269 c 128,-1,5
 354 1355 354 1355 572 1355 c 0,6,7
 789 1355 789 1355 896.5 1268.5 c 128,-1,8
 1004 1182 1004 1182 1004 1014 c 0,9,10
 1004 847 1004 847 896.5 761 c 128,-1,11
 789 675 789 675 572 675 c 0,0,1
572 721 m 256,12,13
 594 721 594 721 609.5 733.5 c 128,-1,14
 625 746 625 746 634.5 779 c 128,-1,15
 644 812 644 812 648 868.5 c 128,-1,16
 652 925 652 925 652 1014 c 256,17,18
 652 1103 652 1103 648 1160.5 c 128,-1,19
 644 1218 644 1218 634.5 1251 c 128,-1,20
 625 1284 625 1284 609.5 1296.5 c 128,-1,21
 594 1309 594 1309 572 1309 c 256,22,23
 550 1309 550 1309 535 1296.5 c 128,-1,24
 520 1284 520 1284 510.5 1251 c 128,-1,25
 501 1218 501 1218 496.5 1160.5 c 128,-1,26
 492 1103 492 1103 492 1014 c 256,27,28
 492 925 492 925 496.5 868.5 c 128,-1,29
 501 812 501 812 510.5 779 c 128,-1,30
 520 746 520 746 535 733.5 c 128,-1,31
 550 721 550 721 572 721 c 256,12,13
EndSplineSet
EndChar

StartChar: guillemotright
Encoding: 187 187 124
Width: 1522
Flags: W
LayerCount: 2
Fore
SplineSet
1058 556 m 1,0,-1
 620 1048 l 1,1,-1
 663 1090 l 1,2,-1
 1482 556 l 1,3,-1
 663 22 l 1,4,-1
 620 64 l 1,5,-1
 1058 556 l 1,0,-1
508 556 m 1,6,-1
 70 1048 l 1,7,-1
 113 1090 l 1,8,-1
 932 556 l 1,9,-1
 113 22 l 1,10,-1
 70 64 l 1,11,-1
 508 556 l 1,6,-1
EndSplineSet
EndChar

StartChar: onequarter
Encoding: 188 188 125
Width: 1956
Flags: W
LayerCount: 2
Fore
SplineSet
120 679 m 1,0,-1
 246 679 l 1,1,-1
 246 1259 l 1,2,-1
 120 1259 l 1,3,-1
 120 1323 l 1,4,5
 173 1323 173 1323 228.5 1330.5 c 128,-1,6
 284 1338 284 1338 335 1351 c 128,-1,7
 386 1364 386 1364 430.5 1381 c 128,-1,8
 475 1398 475 1398 507 1417 c 1,9,-1
 588 1417 l 1,10,-1
 588 679 l 1,11,-1
 712 679 l 1,12,-1
 712 620 l 1,13,-1
 120 620 l 1,14,-1
 120 679 l 1,0,-1
1673 1411 m 1,15,-1
 1750 1332 l 1,16,-1
 441 23 l 1,17,-1
 362 101 l 1,18,-1
 1673 1411 l 1,15,-1
1042 249 m 1,19,-1
 1493 797 l 1,20,-1
 1731 797 l 1,21,-1
 1731 249 l 1,22,-1
 1849 249 l 1,23,-1
 1849 196 l 1,24,-1
 1731 196 l 1,25,-1
 1731 59 l 1,26,-1
 1828 59 l 1,27,-1
 1828 0 l 1,28,-1
 1292 0 l 1,29,-1
 1292 59 l 1,30,-1
 1389 59 l 1,31,-1
 1389 196 l 1,32,-1
 1042 196 l 1,33,-1
 1042 249 l 1,19,-1
1389 249 m 1,34,-1
 1389 550 l 1,35,-1
 1146 249 l 1,36,-1
 1389 249 l 1,34,-1
EndSplineSet
EndChar

StartChar: onehalf
Encoding: 189 189 126
Width: 2159
Flags: W
LayerCount: 2
Fore
SplineSet
100 679 m 1,0,-1
 226 679 l 1,1,-1
 226 1259 l 1,2,-1
 100 1259 l 1,3,-1
 100 1323 l 1,4,5
 153 1323 153 1323 208.5 1330.5 c 128,-1,6
 264 1338 264 1338 315 1351 c 128,-1,7
 366 1364 366 1364 410.5 1381 c 128,-1,8
 455 1398 455 1398 487 1417 c 1,9,-1
 568 1417 l 1,10,-1
 568 679 l 1,11,-1
 692 679 l 1,12,-1
 692 620 l 1,13,-1
 100 620 l 1,14,-1
 100 679 l 1,0,-1
1639 1411 m 1,15,-1
 1716 1332 l 1,16,-1
 407 23 l 1,17,-1
 328 101 l 1,18,-1
 1639 1411 l 1,15,-1
1214 67 m 1,19,20
 1258 104 1258 104 1306.5 148.5 c 128,-1,21
 1355 193 1355 193 1401 241.5 c 128,-1,22
 1447 290 1447 290 1489 341 c 128,-1,23
 1531 392 1531 392 1563 443 c 128,-1,24
 1595 494 1595 494 1613.5 544 c 128,-1,25
 1632 594 1632 594 1632 640 c 0,26,27
 1632 679 1632 679 1621.5 703 c 128,-1,28
 1611 727 1611 727 1594 740.5 c 128,-1,29
 1577 754 1577 754 1554 758.5 c 128,-1,30
 1531 763 1531 763 1506 763 c 0,31,32
 1485 763 1485 763 1466 760 c 1,33,34
 1508 743 1508 743 1533.5 711.5 c 128,-1,35
 1559 680 1559 680 1559 642 c 0,36,37
 1559 613 1559 613 1545 588 c 128,-1,38
 1531 563 1531 563 1506 544 c 128,-1,39
 1481 525 1481 525 1448 514.5 c 128,-1,40
 1415 504 1415 504 1378 504 c 0,41,42
 1340 504 1340 504 1307.5 514.5 c 128,-1,43
 1275 525 1275 525 1250.5 544 c 128,-1,44
 1226 563 1226 563 1212 588 c 128,-1,45
 1198 613 1198 613 1198 642 c 0,46,47
 1198 683 1198 683 1225 715 c 128,-1,48
 1252 747 1252 747 1301 768.5 c 128,-1,49
 1350 790 1350 790 1419 801.5 c 128,-1,50
 1488 813 1488 813 1573 813 c 0,51,52
 1648 813 1648 813 1723.5 800 c 128,-1,53
 1799 787 1799 787 1859.5 758.5 c 128,-1,54
 1920 730 1920 730 1957.5 684 c 128,-1,55
 1995 638 1995 638 1995 572 c 0,56,57
 1995 504 1995 504 1956 454.5 c 128,-1,58
 1917 405 1917 405 1852 370.5 c 128,-1,59
 1787 336 1787 336 1701.5 314 c 128,-1,60
 1616 292 1616 292 1522 278 c 1,61,62
 1519 273 1519 273 1518 264 c 2,63,-1
 1516 252 l 1,64,-1
 1919 252 l 1,65,66
 1932 269 1932 269 1944 293 c 128,-1,67
 1956 317 1956 317 1961 335 c 1,68,-1
 2015 333 l 1,69,-1
 1974 0 l 1,70,-1
 1214 0 l 1,71,-1
 1214 67 l 1,19,20
EndSplineSet
EndChar

StartChar: threequarters
Encoding: 190 190 127
Width: 2079
Flags: W
LayerCount: 2
Fore
SplineSet
404 663 m 1,0,1
 418 661 418 661 430.5 660 c 128,-1,2
 443 659 443 659 455 659 c 0,3,4
 486 659 486 659 512 667 c 128,-1,5
 538 675 538 675 557 693 c 128,-1,6
 576 711 576 711 586.5 740.5 c 128,-1,7
 597 770 597 770 597 814 c 0,8,9
 597 856 597 856 582 888.5 c 128,-1,10
 567 921 567 921 540.5 943.5 c 128,-1,11
 514 966 514 966 477.5 978.5 c 128,-1,12
 441 991 441 991 399 994 c 1,13,-1
 399 1050 l 1,14,15
 439 1054 439 1054 475 1070 c 128,-1,16
 511 1086 511 1086 538.5 1112.5 c 128,-1,17
 566 1139 566 1139 582 1173.5 c 128,-1,18
 598 1208 598 1208 598 1249 c 0,19,20
 598 1289 598 1289 586.5 1314.5 c 128,-1,21
 575 1340 575 1340 555.5 1355 c 128,-1,22
 536 1370 536 1370 510.5 1376 c 128,-1,23
 485 1382 485 1382 457 1382 c 0,24,25
 439 1382 439 1382 420.5 1381 c 128,-1,26
 402 1380 402 1380 380 1375 c 1,27,28
 406 1369 406 1369 428.5 1357 c 128,-1,29
 451 1345 451 1345 467.5 1328.5 c 128,-1,30
 484 1312 484 1312 493.5 1291.5 c 128,-1,31
 503 1271 503 1271 503 1249 c 0,32,33
 503 1221 503 1221 489 1197 c 128,-1,34
 475 1173 475 1173 451 1155 c 128,-1,35
 427 1137 427 1137 395 1126.5 c 128,-1,36
 363 1116 363 1116 327 1116 c 0,37,38
 289 1116 289 1116 257 1126.5 c 128,-1,39
 225 1137 225 1137 201.5 1155 c 128,-1,40
 178 1173 178 1173 164.5 1197 c 128,-1,41
 151 1221 151 1221 151 1249 c 0,42,43
 151 1289 151 1289 177 1323 c 128,-1,44
 203 1357 203 1357 251 1381.5 c 128,-1,45
 299 1406 299 1406 367 1419.5 c 128,-1,46
 435 1433 435 1433 519 1433 c 0,47,48
 587 1433 587 1433 658 1421.5 c 128,-1,49
 729 1410 729 1410 787 1385 c 128,-1,50
 845 1360 845 1360 882 1320.5 c 128,-1,51
 919 1281 919 1281 919 1225 c 0,52,53
 919 1126 919 1126 816 1075.5 c 128,-1,54
 713 1025 713 1025 514 1023 c 1,55,56
 607 1022 607 1022 686 1014.5 c 128,-1,57
 765 1007 765 1007 822 986 c 128,-1,58
 879 965 879 965 911.5 928.5 c 128,-1,59
 944 892 944 892 944 834 c 256,60,61
 944 776 944 776 914.5 734 c 128,-1,62
 885 692 885 692 831 664.5 c 128,-1,63
 777 637 777 637 702 623.5 c 128,-1,64
 627 610 627 610 537 610 c 0,65,66
 448 610 448 610 375 620.5 c 128,-1,67
 302 631 302 631 249.5 652 c 128,-1,68
 197 673 197 673 168.5 704 c 128,-1,69
 140 735 140 735 140 777 c 0,70,71
 140 805 140 805 153.5 829.5 c 128,-1,72
 167 854 167 854 190.5 872 c 128,-1,73
 214 890 214 890 246 900.5 c 128,-1,74
 278 911 278 911 315 911 c 256,75,76
 352 911 352 911 384.5 900.5 c 128,-1,77
 417 890 417 890 441 872 c 128,-1,78
 465 854 465 854 478.5 829.5 c 128,-1,79
 492 805 492 805 492 777 c 0,80,81
 492 740 492 740 468 710 c 128,-1,82
 444 680 444 680 404 663 c 1,0,1
1786 1411 m 1,83,-1
 1863 1332 l 1,84,-1
 554 23 l 1,85,-1
 475 101 l 1,86,-1
 1786 1411 l 1,83,-1
1165 249 m 1,87,-1
 1616 797 l 1,88,-1
 1854 797 l 1,89,-1
 1854 249 l 1,90,-1
 1972 249 l 1,91,-1
 1972 196 l 1,92,-1
 1854 196 l 1,93,-1
 1854 59 l 1,94,-1
 1951 59 l 1,95,-1
 1951 0 l 1,96,-1
 1415 0 l 1,97,-1
 1415 59 l 1,98,-1
 1512 59 l 1,99,-1
 1512 196 l 1,100,-1
 1165 196 l 1,101,-1
 1165 249 l 1,87,-1
1512 249 m 1,102,-1
 1512 550 l 1,103,-1
 1269 249 l 1,104,-1
 1512 249 l 1,102,-1
EndSplineSet
EndChar

StartChar: questiondown
Encoding: 191 191 128
Width: 1542
Flags: W
LayerCount: 2
Fore
SplineSet
773 517 m 256,0,1
 717 517 717 517 668.5 538 c 128,-1,2
 620 559 620 559 583 595.5 c 128,-1,3
 546 632 546 632 525 681.5 c 128,-1,4
 504 731 504 731 504 787 c 0,5,6
 504 842 504 842 525 891 c 128,-1,7
 546 940 546 940 583 977 c 128,-1,8
 620 1014 620 1014 668.5 1035 c 128,-1,9
 717 1056 717 1056 773 1056 c 256,10,11
 829 1056 829 1056 878 1035 c 128,-1,12
 927 1014 927 1014 964 977 c 128,-1,13
 1001 940 1001 940 1022 891 c 128,-1,14
 1043 842 1043 842 1043 787 c 0,15,16
 1043 731 1043 731 1022 681.5 c 128,-1,17
 1001 632 1001 632 964 595.5 c 128,-1,18
 927 559 927 559 878 538 c 128,-1,19
 829 517 829 517 773 517 c 256,0,1
76 -36 m 0,20,21
 76 42 76 42 106 100 c 128,-1,22
 136 158 136 158 186.5 200.5 c 128,-1,23
 237 243 237 243 302.5 273.5 c 128,-1,24
 368 304 368 304 439 326.5 c 128,-1,25
 510 349 510 349 581.5 366 c 128,-1,26
 653 383 653 383 715 398.5 c 128,-1,27
 777 414 777 414 824.5 431.5 c 128,-1,28
 872 449 872 449 896 473 c 1,29,30
 896 424 896 424 880 372.5 c 128,-1,31
 864 321 864 321 840.5 268 c 128,-1,32
 817 215 817 215 789.5 160.5 c 128,-1,33
 762 106 762 106 738.5 51.5 c 128,-1,34
 715 -3 715 -3 699 -58 c 128,-1,35
 683 -113 683 -113 683 -167 c 0,36,37
 683 -255 683 -255 740.5 -307.5 c 128,-1,38
 798 -360 798 -360 904 -360 c 0,39,40
 938 -360 938 -360 983.5 -355 c 128,-1,41
 1029 -350 1029 -350 1073 -340 c 1,42,43
 1020 -331 1020 -331 974 -308.5 c 128,-1,44
 928 -286 928 -286 894.5 -254.5 c 128,-1,45
 861 -223 861 -223 842 -184 c 128,-1,46
 823 -145 823 -145 823 -101 c 0,47,48
 823 -50 823 -50 848.5 -5.5 c 128,-1,49
 874 39 874 39 917.5 72 c 128,-1,50
 961 105 961 105 1020 124 c 128,-1,51
 1079 143 1079 143 1145 143 c 0,52,53
 1212 143 1212 143 1271 124 c 128,-1,54
 1330 105 1330 105 1373.5 72 c 128,-1,55
 1417 39 1417 39 1442 -5.5 c 128,-1,56
 1467 -50 1467 -50 1467 -101 c 0,57,58
 1467 -180 1467 -180 1420 -242.5 c 128,-1,59
 1373 -305 1373 -305 1282 -348 c 128,-1,60
 1191 -391 1191 -391 1057 -414 c 128,-1,61
 923 -437 923 -437 750 -437 c 0,62,63
 624 -437 624 -437 503 -413.5 c 128,-1,64
 382 -390 382 -390 287 -341 c 128,-1,65
 192 -292 192 -292 134 -216 c 128,-1,66
 76 -140 76 -140 76 -36 c 0,20,21
EndSplineSet
EndChar

StartChar: Agrave
Encoding: 192 192 129
Width: 1892
Flags: W
LayerCount: 2
Fore
SplineSet
549 1666 m 0,0,1
 505 1683 505 1683 484.5 1716.5 c 128,-1,2
 464 1750 464 1750 464 1788 c 0,3,4
 464 1816 464 1816 474 1843 c 128,-1,5
 484 1870 484 1870 502 1891 c 128,-1,6
 520 1912 520 1912 544.5 1924.5 c 128,-1,7
 569 1937 569 1937 598 1937 c 0,8,9
 612 1937 612 1937 625.5 1934.5 c 128,-1,10
 639 1932 639 1932 652 1927 c 0,11,12
 667 1920 667 1920 697.5 1904 c 128,-1,13
 728 1888 728 1888 767.5 1866 c 128,-1,14
 807 1844 807 1844 853 1818 c 128,-1,15
 899 1792 899 1792 945 1765 c 128,-1,16
 991 1738 991 1738 1034 1712.5 c 128,-1,17
 1077 1687 1077 1687 1112 1667 c 0,18,19
 1146 1647 1146 1647 1169 1633.5 c 128,-1,20
 1192 1620 1192 1620 1198 1617 c 1,21,-1
 1174 1548 l 1,22,23
 1166 1550 1166 1550 1135 1555 c 128,-1,24
 1104 1560 1104 1560 1058 1568 c 0,25,26
 1017 1575 1017 1575 967 1583 c 128,-1,27
 917 1591 917 1591 865.5 1600 c 128,-1,28
 814 1609 814 1609 763.5 1618.5 c 128,-1,29
 713 1628 713 1628 670 1636.5 c 128,-1,30
 627 1645 627 1645 595 1652.5 c 128,-1,31
 563 1660 563 1660 549 1666 c 0,0,1
-15 79 m 1,32,33
 66 79 66 79 109.5 90 c 128,-1,34
 153 101 153 101 165 130 c 2,35,-1
 680 1417 l 1,36,-1
 1119 1417 l 1,37,-1
 1722 79 l 1,38,-1
 1896 79 l 1,39,-1
 1896 0 l 1,40,-1
 762 0 l 1,41,-1
 762 79 l 1,42,-1
 955 79 l 1,43,-1
 817 424 l 1,44,-1
 377 424 l 1,45,-1
 260 133 l 2,46,47
 259 130 259 130 259 125 c 0,48,49
 259 111 259 111 272.5 102.5 c 128,-1,50
 286 94 286 94 310.5 88.5 c 128,-1,51
 335 83 335 83 368.5 81 c 128,-1,52
 402 79 402 79 442 79 c 1,53,-1
 442 0 l 1,54,-1
 -15 0 l 1,55,-1
 -15 79 l 1,32,33
786 503 m 1,56,-1
 593 975 l 1,57,-1
 408 503 l 1,58,-1
 786 503 l 1,56,-1
EndSplineSet
EndChar

StartChar: Aacute
Encoding: 193 193 130
Width: 1892
Flags: W
LayerCount: 2
Fore
SplineSet
598 1617 m 1,0,1
 604 1620 604 1620 627 1633.5 c 128,-1,2
 650 1647 650 1647 684 1667 c 256,3,4
 718 1687 718 1687 761.5 1712.5 c 128,-1,5
 805 1738 805 1738 851 1765 c 128,-1,6
 897 1792 897 1792 943 1818 c 128,-1,7
 989 1844 989 1844 1028.5 1866 c 128,-1,8
 1068 1888 1068 1888 1098.5 1904 c 128,-1,9
 1129 1920 1129 1920 1144 1927 c 0,10,11
 1157 1932 1157 1932 1170.5 1934.5 c 128,-1,12
 1184 1937 1184 1937 1198 1937 c 0,13,14
 1226 1937 1226 1937 1250.5 1924.5 c 128,-1,15
 1275 1912 1275 1912 1293 1891 c 128,-1,16
 1311 1870 1311 1870 1321.5 1843 c 128,-1,17
 1332 1816 1332 1816 1332 1788 c 0,18,19
 1332 1750 1332 1750 1311.5 1716.5 c 128,-1,20
 1291 1683 1291 1683 1247 1666 c 0,21,22
 1232 1660 1232 1660 1200.5 1652.5 c 128,-1,23
 1169 1645 1169 1645 1126 1636.5 c 128,-1,24
 1083 1628 1083 1628 1032.5 1618.5 c 128,-1,25
 982 1609 982 1609 930.5 1600 c 128,-1,26
 879 1591 879 1591 829 1583 c 128,-1,27
 779 1575 779 1575 738 1568 c 0,28,29
 692 1560 692 1560 661 1555 c 128,-1,30
 630 1550 630 1550 622 1548 c 1,31,-1
 598 1617 l 1,0,1
-15 79 m 1,32,33
 66 79 66 79 109.5 90 c 128,-1,34
 153 101 153 101 165 130 c 2,35,-1
 680 1417 l 1,36,-1
 1119 1417 l 1,37,-1
 1722 79 l 1,38,-1
 1896 79 l 1,39,-1
 1896 0 l 1,40,-1
 762 0 l 1,41,-1
 762 79 l 1,42,-1
 955 79 l 1,43,-1
 817 424 l 1,44,-1
 377 424 l 1,45,-1
 260 133 l 2,46,47
 259 130 259 130 259 125 c 0,48,49
 259 111 259 111 272.5 102.5 c 128,-1,50
 286 94 286 94 310.5 88.5 c 128,-1,51
 335 83 335 83 368.5 81 c 128,-1,52
 402 79 402 79 442 79 c 1,53,-1
 442 0 l 1,54,-1
 -15 0 l 1,55,-1
 -15 79 l 1,32,33
786 503 m 1,56,-1
 593 975 l 1,57,-1
 408 503 l 1,58,-1
 786 503 l 1,56,-1
EndSplineSet
EndChar

StartChar: Acircumflex
Encoding: 194 194 131
Width: 1892
Flags: W
LayerCount: 2
Fore
SplineSet
401 1580 m 1,0,-1
 898 1937 l 1,1,-1
 1395 1580 l 1,2,-1
 1337 1504 l 1,3,-1
 898 1652 l 1,4,-1
 458 1504 l 1,5,-1
 401 1580 l 1,0,-1
-15 79 m 1,6,7
 66 79 66 79 109.5 90 c 128,-1,8
 153 101 153 101 165 130 c 2,9,-1
 680 1417 l 1,10,-1
 1119 1417 l 1,11,-1
 1722 79 l 1,12,-1
 1896 79 l 1,13,-1
 1896 0 l 1,14,-1
 762 0 l 1,15,-1
 762 79 l 1,16,-1
 955 79 l 1,17,-1
 817 424 l 1,18,-1
 377 424 l 1,19,-1
 260 133 l 2,20,21
 259 130 259 130 259 125 c 0,22,23
 259 111 259 111 272.5 102.5 c 128,-1,24
 286 94 286 94 310.5 88.5 c 128,-1,25
 335 83 335 83 368.5 81 c 128,-1,26
 402 79 402 79 442 79 c 1,27,-1
 442 0 l 1,28,-1
 -15 0 l 1,29,-1
 -15 79 l 1,6,7
786 503 m 1,30,-1
 593 975 l 1,31,-1
 408 503 l 1,32,-1
 786 503 l 1,30,-1
EndSplineSet
EndChar

StartChar: Atilde
Encoding: 195 195 132
Width: 1892
Flags: W
LayerCount: 2
Fore
SplineSet
373 1596 m 1,0,1
 379 1661 379 1661 401.5 1715 c 128,-1,2
 424 1769 424 1769 460.5 1808 c 128,-1,3
 497 1847 497 1847 548 1868.5 c 128,-1,4
 599 1890 599 1890 662 1890 c 0,5,6
 722 1890 722 1890 785.5 1870 c 128,-1,7
 849 1850 849 1850 915 1825 c 0,8,9
 978 1802 978 1802 1040 1783.5 c 128,-1,10
 1102 1765 1102 1765 1162 1765 c 0,11,12
 1218 1765 1218 1765 1270 1787 c 128,-1,13
 1322 1809 1322 1809 1370 1866 c 1,14,-1
 1425 1831 l 1,15,16
 1419 1766 1419 1766 1396.5 1712 c 128,-1,17
 1374 1658 1374 1658 1337.5 1619 c 128,-1,18
 1301 1580 1301 1580 1250 1558.5 c 128,-1,19
 1199 1537 1199 1537 1136 1537 c 0,20,21
 1082 1537 1082 1537 1023.5 1554 c 128,-1,22
 965 1571 965 1571 905 1594 c 0,23,24
 837 1620 837 1620 769.5 1641 c 128,-1,25
 702 1662 702 1662 636 1662 c 0,26,27
 579 1662 579 1662 527 1640 c 128,-1,28
 475 1618 475 1618 428 1561 c 1,29,-1
 373 1596 l 1,0,1
-15 79 m 1,30,31
 66 79 66 79 109.5 90 c 128,-1,32
 153 101 153 101 165 130 c 2,33,-1
 680 1417 l 1,34,-1
 1119 1417 l 1,35,-1
 1722 79 l 1,36,-1
 1896 79 l 1,37,-1
 1896 0 l 1,38,-1
 762 0 l 1,39,-1
 762 79 l 1,40,-1
 955 79 l 1,41,-1
 817 424 l 1,42,-1
 377 424 l 1,43,-1
 260 133 l 2,44,45
 259 130 259 130 259 125 c 0,46,47
 259 111 259 111 272.5 102.5 c 128,-1,48
 286 94 286 94 310.5 88.5 c 128,-1,49
 335 83 335 83 368.5 81 c 128,-1,50
 402 79 402 79 442 79 c 1,51,-1
 442 0 l 1,52,-1
 -15 0 l 1,53,-1
 -15 79 l 1,30,31
786 503 m 1,54,-1
 593 975 l 1,55,-1
 408 503 l 1,56,-1
 786 503 l 1,54,-1
EndSplineSet
EndChar

StartChar: Adieresis
Encoding: 196 196 133
Width: 1892
Flags: W
LayerCount: 2
Fore
SplineSet
1185 1523 m 0,0,1
 1148 1523 1148 1523 1116 1536.5 c 128,-1,2
 1084 1550 1084 1550 1060.5 1574 c 128,-1,3
 1037 1598 1037 1598 1023.5 1629.5 c 128,-1,4
 1010 1661 1010 1661 1010 1697 c 256,5,6
 1010 1733 1010 1733 1023.5 1765 c 128,-1,7
 1037 1797 1037 1797 1060.5 1821 c 128,-1,8
 1084 1845 1084 1845 1116 1858.5 c 128,-1,9
 1148 1872 1148 1872 1185 1872 c 0,10,11
 1221 1872 1221 1872 1252.5 1858.5 c 128,-1,12
 1284 1845 1284 1845 1308 1821 c 128,-1,13
 1332 1797 1332 1797 1345.5 1765 c 128,-1,14
 1359 1733 1359 1733 1359 1697 c 256,15,16
 1359 1661 1359 1661 1345.5 1629.5 c 128,-1,17
 1332 1598 1332 1598 1308 1574 c 128,-1,18
 1284 1550 1284 1550 1252.5 1536.5 c 128,-1,19
 1221 1523 1221 1523 1185 1523 c 0,0,1
613 1523 m 256,20,21
 577 1523 577 1523 545 1536.5 c 128,-1,22
 513 1550 513 1550 489 1574 c 128,-1,23
 465 1598 465 1598 451.5 1629.5 c 128,-1,24
 438 1661 438 1661 438 1697 c 256,25,26
 438 1733 438 1733 451.5 1765 c 128,-1,27
 465 1797 465 1797 489 1821 c 128,-1,28
 513 1845 513 1845 545 1858.5 c 128,-1,29
 577 1872 577 1872 613 1872 c 256,30,31
 649 1872 649 1872 681 1858.5 c 128,-1,32
 713 1845 713 1845 736.5 1821 c 128,-1,33
 760 1797 760 1797 773.5 1765 c 128,-1,34
 787 1733 787 1733 787 1697 c 256,35,36
 787 1661 787 1661 773.5 1629.5 c 128,-1,37
 760 1598 760 1598 736.5 1574 c 128,-1,38
 713 1550 713 1550 681 1536.5 c 128,-1,39
 649 1523 649 1523 613 1523 c 256,20,21
-15 79 m 1,40,41
 66 79 66 79 109.5 90 c 128,-1,42
 153 101 153 101 165 130 c 2,43,-1
 680 1417 l 1,44,-1
 1119 1417 l 1,45,-1
 1722 79 l 1,46,-1
 1896 79 l 1,47,-1
 1896 0 l 1,48,-1
 762 0 l 1,49,-1
 762 79 l 1,50,-1
 955 79 l 1,51,-1
 817 424 l 1,52,-1
 377 424 l 1,53,-1
 260 133 l 2,54,55
 259 130 259 130 259 125 c 0,56,57
 259 111 259 111 272.5 102.5 c 128,-1,58
 286 94 286 94 310.5 88.5 c 128,-1,59
 335 83 335 83 368.5 81 c 128,-1,60
 402 79 402 79 442 79 c 1,61,-1
 442 0 l 1,62,-1
 -15 0 l 1,63,-1
 -15 79 l 1,40,41
786 503 m 1,64,-1
 593 975 l 1,65,-1
 408 503 l 1,66,-1
 786 503 l 1,64,-1
EndSplineSet
EndChar

StartChar: Aring
Encoding: 197 197 134
Width: 1892
Flags: W
LayerCount: 2
Fore
SplineSet
-15 79 m 1,0,1
 66 79 66 79 109.5 90 c 128,-1,2
 153 101 153 101 165 130 c 2,3,-1
 680 1417 l 1,4,-1
 816 1417 l 1,5,6
 800 1421 800 1421 785 1428 c 0,7,8
 741 1447 741 1447 708 1480 c 128,-1,9
 675 1513 675 1513 656 1557.5 c 128,-1,10
 637 1602 637 1602 637 1652 c 256,11,12
 637 1702 637 1702 656 1746 c 128,-1,13
 675 1790 675 1790 708 1823 c 128,-1,14
 741 1856 741 1856 785.5 1875 c 128,-1,15
 830 1894 830 1894 880 1894 c 256,16,17
 930 1894 930 1894 974 1875 c 128,-1,18
 1018 1856 1018 1856 1051 1823 c 128,-1,19
 1084 1790 1084 1790 1103 1746 c 128,-1,20
 1122 1702 1122 1702 1122 1652 c 256,21,22
 1122 1602 1122 1602 1103 1557.5 c 128,-1,23
 1084 1513 1084 1513 1051 1480 c 128,-1,24
 1018 1447 1018 1447 974 1428 c 0,25,26
 958 1421 958 1421 942 1417 c 1,27,-1
 1119 1417 l 1,28,-1
 1722 79 l 1,29,-1
 1896 79 l 1,30,-1
 1896 0 l 1,31,-1
 762 0 l 1,32,-1
 762 79 l 1,33,-1
 955 79 l 1,34,-1
 817 424 l 1,35,-1
 377 424 l 1,36,-1
 260 133 l 2,37,38
 259 130 259 130 259 125 c 0,39,40
 259 111 259 111 272.5 102.5 c 128,-1,41
 286 94 286 94 310.5 88.5 c 128,-1,42
 335 83 335 83 368.5 81 c 128,-1,43
 402 79 402 79 442 79 c 1,44,-1
 442 0 l 1,45,-1
 -15 0 l 1,46,-1
 -15 79 l 1,0,1
786 503 m 1,47,-1
 593 975 l 1,48,-1
 408 503 l 1,49,-1
 786 503 l 1,47,-1
880 1519 m 256,50,51
 907 1519 907 1519 931.5 1529.5 c 128,-1,52
 956 1540 956 1540 974 1558 c 128,-1,53
 992 1576 992 1576 1002.5 1600.5 c 128,-1,54
 1013 1625 1013 1625 1013 1652 c 256,55,56
 1013 1679 1013 1679 1002.5 1703.5 c 128,-1,57
 992 1728 992 1728 974 1746 c 128,-1,58
 956 1764 956 1764 931.5 1774.5 c 128,-1,59
 907 1785 907 1785 880 1785 c 256,60,61
 853 1785 853 1785 828.5 1774.5 c 128,-1,62
 804 1764 804 1764 786 1746 c 128,-1,63
 768 1728 768 1728 757.5 1703.5 c 128,-1,64
 747 1679 747 1679 747 1652 c 256,65,66
 747 1625 747 1625 757.5 1600.5 c 128,-1,67
 768 1576 768 1576 786 1558 c 128,-1,68
 804 1540 804 1540 828.5 1529.5 c 128,-1,69
 853 1519 853 1519 880 1519 c 256,50,51
EndSplineSet
EndChar

StartChar: AE
Encoding: 198 198 135
Width: 2433
Flags: W
LayerCount: 2
Fore
SplineSet
-15 79 m 1,0,1
 66 79 66 79 108 90.5 c 128,-1,2
 150 102 150 102 165 130 c 2,3,-1
 855 1417 l 1,4,-1
 2229 1417 l 1,5,-1
 2229 930 l 1,6,-1
 2161 930 l 1,7,-1
 1883 1339 l 1,8,-1
 1545 1339 l 1,9,-1
 1545 744 l 1,10,-1
 1696 744 l 1,11,-1
 1828 1074 l 1,12,-1
 1893 1074 l 1,13,-1
 1893 334 l 1,14,-1
 1828 334 l 1,15,-1
 1696 666 l 1,16,-1
 1545 666 l 1,17,-1
 1545 79 l 1,18,-1
 1918 79 l 1,19,-1
 2208 534 l 1,20,-1
 2277 534 l 1,21,-1
 2277 0 l 1,22,-1
 662 0 l 1,23,-1
 662 79 l 1,24,-1
 855 79 l 1,25,-1
 855 424 l 1,26,-1
 420 424 l 1,27,-1
 271 134 l 2,28,29
 269 128 269 128 269 125 c 0,30,31
 269 111 269 111 282.5 102.5 c 128,-1,32
 296 94 296 94 320.5 88.5 c 128,-1,33
 345 83 345 83 378.5 81 c 128,-1,34
 412 79 412 79 452 79 c 1,35,-1
 452 0 l 1,36,-1
 -15 0 l 1,37,-1
 -15 79 l 1,0,1
855 503 m 1,38,-1
 855 1255 l 1,39,-1
 464 503 l 1,40,-1
 855 503 l 1,38,-1
EndSplineSet
EndChar

StartChar: Ccedilla
Encoding: 199 199 136
Width: 1847
Flags: W
LayerCount: 2
Fore
SplineSet
118 675 m 0,0,1
 118 841 118 841 171 984 c 128,-1,2
 224 1127 224 1127 330.5 1231.5 c 128,-1,3
 437 1336 437 1336 596 1395.5 c 128,-1,4
 755 1455 755 1455 967 1455 c 0,5,6
 1121 1455 1121 1455 1253 1408 c 128,-1,7
 1385 1361 1385 1361 1497 1256 c 1,8,-1
 1620 1440 l 1,9,-1
 1689 1440 l 1,10,-1
 1689 791 l 1,11,-1
 1611 791 l 1,12,13
 1575 950 1575 950 1513.5 1055 c 128,-1,14
 1452 1160 1452 1160 1378.5 1222.5 c 128,-1,15
 1305 1285 1305 1285 1225.5 1310.5 c 128,-1,16
 1146 1336 1146 1336 1075 1336 c 0,17,18
 1041 1336 1041 1336 1007.5 1330.5 c 128,-1,19
 974 1325 974 1325 943 1305.5 c 128,-1,20
 912 1286 912 1286 885 1249 c 128,-1,21
 858 1212 858 1212 838.5 1148.5 c 128,-1,22
 819 1085 819 1085 807.5 992 c 128,-1,23
 796 899 796 899 796 768 c 0,24,25
 796 631 796 631 804.5 527 c 128,-1,26
 813 423 813 423 830.5 347 c 128,-1,27
 848 271 848 271 873.5 221 c 128,-1,28
 899 171 899 171 933.5 141 c 128,-1,29
 968 111 968 111 1011 98.5 c 128,-1,30
 1054 86 1054 86 1105 86 c 0,31,32
 1205 86 1205 86 1292 116.5 c 128,-1,33
 1379 147 1379 147 1446 213 c 128,-1,34
 1513 279 1513 279 1556.5 383 c 128,-1,35
 1600 487 1600 487 1613 633 c 1,36,-1
 1701 633 l 1,37,38
 1696 543 1696 543 1677 459.5 c 128,-1,39
 1658 376 1658 376 1622.5 303.5 c 128,-1,40
 1587 231 1587 231 1534 171 c 128,-1,41
 1481 111 1481 111 1407 66.5 c 128,-1,42
 1333 22 1333 22 1237 -4.5 c 128,-1,43
 1141 -31 1141 -31 1021 -36 c 1,44,-1
 1021 -150 l 1,45,46
 1068 -127 1068 -127 1117.5 -118.5 c 128,-1,47
 1167 -110 1167 -110 1206 -110 c 0,48,49
 1252 -110 1252 -110 1290 -122.5 c 128,-1,50
 1328 -135 1328 -135 1355.5 -158 c 128,-1,51
 1383 -181 1383 -181 1398 -212.5 c 128,-1,52
 1413 -244 1413 -244 1413 -281 c 0,53,54
 1413 -373 1413 -373 1344 -427 c 128,-1,55
 1275 -481 1275 -481 1130 -481 c 0,56,57
 1058 -481 1058 -481 991.5 -470.5 c 128,-1,58
 925 -460 925 -460 868.5 -443 c 128,-1,59
 812 -426 812 -426 767.5 -405.5 c 128,-1,60
 723 -385 723 -385 693 -364 c 1,61,-1
 718 -310 l 1,62,63
 735 -320 735 -320 767.5 -332.5 c 128,-1,64
 800 -345 800 -345 839.5 -356.5 c 128,-1,65
 879 -368 879 -368 922 -375.5 c 128,-1,66
 965 -383 965 -383 1003 -383 c 0,67,68
 1031 -383 1031 -383 1054.5 -379 c 128,-1,69
 1078 -375 1078 -375 1095 -364.5 c 128,-1,70
 1112 -354 1112 -354 1121.5 -336 c 128,-1,71
 1131 -318 1131 -318 1131 -290 c 0,72,73
 1131 -249 1131 -249 1107 -227 c 128,-1,74
 1083 -205 1083 -205 1047 -205 c 0,75,76
 1036 -205 1036 -205 1022.5 -207.5 c 128,-1,77
 1009 -210 1009 -210 998 -215 c 1,78,-1
 947 -215 l 1,79,-1
 947 -38 l 1,80,81
 758 -36 758 -36 605 17 c 128,-1,82
 452 70 452 70 344 164 c 128,-1,83
 236 258 236 258 177 388.5 c 128,-1,84
 118 519 118 519 118 675 c 0,0,1
EndSplineSet
EndChar

StartChar: Egrave
Encoding: 200 200 137
Width: 1852
Flags: W
LayerCount: 2
Fore
SplineSet
589 1666 m 0,0,1
 545 1683 545 1683 524.5 1716.5 c 128,-1,2
 504 1750 504 1750 504 1788 c 0,3,4
 504 1816 504 1816 514 1843 c 128,-1,5
 524 1870 524 1870 542 1891 c 128,-1,6
 560 1912 560 1912 584.5 1924.5 c 128,-1,7
 609 1937 609 1937 638 1937 c 0,8,9
 652 1937 652 1937 665.5 1934.5 c 128,-1,10
 679 1932 679 1932 692 1927 c 0,11,12
 707 1920 707 1920 737.5 1904 c 128,-1,13
 768 1888 768 1888 807.5 1866 c 128,-1,14
 847 1844 847 1844 893 1818 c 128,-1,15
 939 1792 939 1792 985 1765 c 128,-1,16
 1031 1738 1031 1738 1074 1712.5 c 128,-1,17
 1117 1687 1117 1687 1152 1667 c 0,18,19
 1186 1647 1186 1647 1209 1633.5 c 128,-1,20
 1232 1620 1232 1620 1238 1617 c 1,21,-1
 1214 1548 l 1,22,23
 1206 1550 1206 1550 1175 1555 c 128,-1,24
 1144 1560 1144 1560 1098 1568 c 0,25,26
 1057 1575 1057 1575 1007 1583 c 128,-1,27
 957 1591 957 1591 905.5 1600 c 128,-1,28
 854 1609 854 1609 803.5 1618.5 c 128,-1,29
 753 1628 753 1628 710 1636.5 c 128,-1,30
 667 1645 667 1645 635 1652.5 c 128,-1,31
 603 1660 603 1660 589 1666 c 0,0,1
99 79 m 1,32,-1
 274 79 l 1,33,-1
 274 1339 l 1,34,-1
 99 1339 l 1,35,-1
 99 1417 l 1,36,-1
 1648 1417 l 1,37,-1
 1648 930 l 1,38,-1
 1580 930 l 1,39,-1
 1302 1339 l 1,40,-1
 964 1339 l 1,41,-1
 964 744 l 1,42,-1
 1115 744 l 1,43,-1
 1247 1074 l 1,44,-1
 1312 1074 l 1,45,-1
 1312 334 l 1,46,-1
 1247 334 l 1,47,-1
 1115 666 l 1,48,-1
 964 666 l 1,49,-1
 964 79 l 1,50,-1
 1337 79 l 1,51,-1
 1627 534 l 1,52,-1
 1696 534 l 1,53,-1
 1696 0 l 1,54,-1
 99 0 l 1,55,-1
 99 79 l 1,32,-1
EndSplineSet
EndChar

StartChar: Eacute
Encoding: 201 201 138
Width: 1852
Flags: W
LayerCount: 2
Fore
SplineSet
638 1617 m 1,0,1
 644 1620 644 1620 667 1633.5 c 128,-1,2
 690 1647 690 1647 724 1667 c 256,3,4
 758 1687 758 1687 801.5 1712.5 c 128,-1,5
 845 1738 845 1738 891 1765 c 128,-1,6
 937 1792 937 1792 983 1818 c 128,-1,7
 1029 1844 1029 1844 1068.5 1866 c 128,-1,8
 1108 1888 1108 1888 1138.5 1904 c 128,-1,9
 1169 1920 1169 1920 1184 1927 c 0,10,11
 1197 1932 1197 1932 1210.5 1934.5 c 128,-1,12
 1224 1937 1224 1937 1238 1937 c 0,13,14
 1266 1937 1266 1937 1290.5 1924.5 c 128,-1,15
 1315 1912 1315 1912 1333 1891 c 128,-1,16
 1351 1870 1351 1870 1361.5 1843 c 128,-1,17
 1372 1816 1372 1816 1372 1788 c 0,18,19
 1372 1750 1372 1750 1351.5 1716.5 c 128,-1,20
 1331 1683 1331 1683 1287 1666 c 0,21,22
 1272 1660 1272 1660 1240.5 1652.5 c 128,-1,23
 1209 1645 1209 1645 1166 1636.5 c 128,-1,24
 1123 1628 1123 1628 1072.5 1618.5 c 128,-1,25
 1022 1609 1022 1609 970.5 1600 c 128,-1,26
 919 1591 919 1591 869 1583 c 128,-1,27
 819 1575 819 1575 778 1568 c 0,28,29
 732 1560 732 1560 701 1555 c 128,-1,30
 670 1550 670 1550 662 1548 c 1,31,-1
 638 1617 l 1,0,1
99 79 m 1,32,-1
 274 79 l 1,33,-1
 274 1339 l 1,34,-1
 99 1339 l 1,35,-1
 99 1417 l 1,36,-1
 1648 1417 l 1,37,-1
 1648 930 l 1,38,-1
 1580 930 l 1,39,-1
 1302 1339 l 1,40,-1
 964 1339 l 1,41,-1
 964 744 l 1,42,-1
 1115 744 l 1,43,-1
 1247 1074 l 1,44,-1
 1312 1074 l 1,45,-1
 1312 334 l 1,46,-1
 1247 334 l 1,47,-1
 1115 666 l 1,48,-1
 964 666 l 1,49,-1
 964 79 l 1,50,-1
 1337 79 l 1,51,-1
 1627 534 l 1,52,-1
 1696 534 l 1,53,-1
 1696 0 l 1,54,-1
 99 0 l 1,55,-1
 99 79 l 1,32,-1
EndSplineSet
EndChar

StartChar: Ecircumflex
Encoding: 202 202 139
Width: 1852
Flags: W
LayerCount: 2
Fore
SplineSet
441 1580 m 1,0,-1
 938 1937 l 1,1,-1
 1435 1580 l 1,2,-1
 1377 1504 l 1,3,-1
 938 1652 l 1,4,-1
 498 1504 l 1,5,-1
 441 1580 l 1,0,-1
99 79 m 1,6,-1
 274 79 l 1,7,-1
 274 1339 l 1,8,-1
 99 1339 l 1,9,-1
 99 1417 l 1,10,-1
 1648 1417 l 1,11,-1
 1648 930 l 1,12,-1
 1580 930 l 1,13,-1
 1302 1339 l 1,14,-1
 964 1339 l 1,15,-1
 964 744 l 1,16,-1
 1115 744 l 1,17,-1
 1247 1074 l 1,18,-1
 1312 1074 l 1,19,-1
 1312 334 l 1,20,-1
 1247 334 l 1,21,-1
 1115 666 l 1,22,-1
 964 666 l 1,23,-1
 964 79 l 1,24,-1
 1337 79 l 1,25,-1
 1627 534 l 1,26,-1
 1696 534 l 1,27,-1
 1696 0 l 1,28,-1
 99 0 l 1,29,-1
 99 79 l 1,6,-1
EndSplineSet
EndChar

